<?xml version="1.0" encoding="UTF-8"?>
<!DOCTYPE svg PUBLIC "-//W3C//DTD SVG 1.1//EN" "http://www.w3.org/Graphics/SVG/1.1/DTD/svg11.dtd">
<svg xmlns="http://www.w3.org/2000/svg" version="1.1" width="657px" height="196px" style="shape-rendering:geometricPrecision; text-rendering:geometricPrecision; image-rendering:optimizeQuality; fill-rule:evenodd; clip-rule:evenodd" xmlns:xlink="http://www.w3.org/1999/xlink">
<g><path style="opacity:0.985" fill="#243c96" d="M -0.5,-0.5 C 5.16667,-0.5 10.8333,-0.5 16.5,-0.5C 16.5,15.8333 16.5,32.1667 16.5,48.5C 10.8333,48.5 5.16667,48.5 -0.5,48.5C -0.5,32.1667 -0.5,15.8333 -0.5,-0.5 Z"/></g>
<g><path style="opacity:1" fill="#243f96" d="M 16.5,-0.5 C 18.5,-0.5 20.5,-0.5 22.5,-0.5C 22.5,15.8333 22.5,32.1667 22.5,48.5C 20.5,48.5 18.5,48.5 16.5,48.5C 16.5,32.1667 16.5,15.8333 16.5,-0.5 Z"/></g>
<g><path style="opacity:1" fill="#254095" d="M 22.5,-0.5 C 23.5,-0.5 24.5,-0.5 25.5,-0.5C 25.5,15.8333 25.5,32.1667 25.5,48.5C 24.5,48.5 23.5,48.5 22.5,48.5C 22.5,32.1667 22.5,15.8333 22.5,-0.5 Z"/></g>
<g><path style="opacity:1" fill="#244195" d="M 25.5,-0.5 C 26.5,-0.5 27.5,-0.5 28.5,-0.5C 28.5,15.8333 28.5,32.1667 28.5,48.5C 27.5,48.5 26.5,48.5 25.5,48.5C 25.5,32.1667 25.5,15.8333 25.5,-0.5 Z"/></g>
<g><path style="opacity:1" fill="#254195" d="M 28.5,-0.5 C 30.1667,-0.5 31.8333,-0.5 33.5,-0.5C 33.5,15.8333 33.5,32.1667 33.5,48.5C 31.8333,48.5 30.1667,48.5 28.5,48.5C 28.5,32.1667 28.5,15.8333 28.5,-0.5 Z"/></g>
<g><path style="opacity:1" fill="#264394" d="M 33.5,-0.5 C 36.1667,-0.5 38.8333,-0.5 41.5,-0.5C 41.5,15.8333 41.5,32.1667 41.5,48.5C 38.8333,48.5 36.1667,48.5 33.5,48.5C 33.5,32.1667 33.5,15.8333 33.5,-0.5 Z"/></g>
<g><path style="opacity:1" fill="#284793" d="M 41.5,-0.5 C 49.8333,-0.5 58.1667,-0.5 66.5,-0.5C 66.5,15.8333 66.5,32.1667 66.5,48.5C 58.1667,48.5 49.8333,48.5 41.5,48.5C 41.5,32.1667 41.5,15.8333 41.5,-0.5 Z"/></g>
<g><path style="opacity:1" fill="#274e91" d="M 66.5,-0.5 C 77.5,-0.5 88.5,-0.5 99.5,-0.5C 99.5,15.8333 99.5,32.1667 99.5,48.5C 88.5,48.5 77.5,48.5 66.5,48.5C 66.5,32.1667 66.5,15.8333 66.5,-0.5 Z"/></g>
<g><path style="opacity:1" fill="#275390" d="M 99.5,-0.5 C 106.167,-0.5 112.833,-0.5 119.5,-0.5C 119.5,15.8333 119.5,32.1667 119.5,48.5C 112.833,48.5 106.167,48.5 99.5,48.5C 99.5,32.1667 99.5,15.8333 99.5,-0.5 Z"/></g>
<g><path style="opacity:1" fill="#27568f" d="M 119.5,-0.5 C 122.5,-0.5 125.5,-0.5 128.5,-0.5C 128.5,15.8333 128.5,32.1667 128.5,48.5C 125.5,48.5 122.5,48.5 119.5,48.5C 119.5,32.1667 119.5,15.8333 119.5,-0.5 Z"/></g>
<g><path style="opacity:1" fill="#2a598e" d="M 128.5,-0.5 C 132.833,-0.5 137.167,-0.5 141.5,-0.5C 141.5,15.8333 141.5,32.1667 141.5,48.5C 137.167,48.5 132.833,48.5 128.5,48.5C 128.5,32.1667 128.5,15.8333 128.5,-0.5 Z"/></g>
<g><path style="opacity:1" fill="#2d5c8d" d="M 141.5,-0.5 C 146.5,-0.5 151.5,-0.5 156.5,-0.5C 156.5,15.8333 156.5,32.1667 156.5,48.5C 151.5,48.5 146.5,48.5 141.5,48.5C 141.5,32.1667 141.5,15.8333 141.5,-0.5 Z"/></g>
<g><path style="opacity:1" fill="#2f5e8d" d="M 156.5,-0.5 C 159.833,-0.5 163.167,-0.5 166.5,-0.5C 166.5,15.8333 166.5,32.1667 166.5,48.5C 163.167,48.5 159.833,48.5 156.5,48.5C 156.5,32.1667 156.5,15.8333 156.5,-0.5 Z"/></g>
<g><path style="opacity:1" fill="#31608c" d="M 166.5,-0.5 C 168.5,-0.5 170.5,-0.5 172.5,-0.5C 172.5,15.8333 172.5,32.1667 172.5,48.5C 170.5,48.5 168.5,48.5 166.5,48.5C 166.5,32.1667 166.5,15.8333 166.5,-0.5 Z"/></g>
<g><path style="opacity:1" fill="#33628b" d="M 172.5,-0.5 C 177.167,-0.5 181.833,-0.5 186.5,-0.5C 186.5,15.8333 186.5,32.1667 186.5,48.5C 181.833,48.5 177.167,48.5 172.5,48.5C 172.5,32.1667 172.5,15.8333 172.5,-0.5 Z"/></g>
<g><path style="opacity:1" fill="#35658a" d="M 186.5,-0.5 C 191.833,-0.5 197.167,-0.5 202.5,-0.5C 202.5,15.8333 202.5,32.1667 202.5,48.5C 197.167,48.5 191.833,48.5 186.5,48.5C 186.5,32.1667 186.5,15.8333 186.5,-0.5 Z"/></g>
<g><path style="opacity:1" fill="#376788" d="M 202.5,-0.5 C 207.167,-0.5 211.833,-0.5 216.5,-0.5C 216.5,15.8333 216.5,32.1667 216.5,48.5C 211.833,48.5 207.167,48.5 202.5,48.5C 202.5,32.1667 202.5,15.8333 202.5,-0.5 Z"/></g>
<g><path style="opacity:1" fill="#386988" d="M 216.5,-0.5 C 218.5,-0.5 220.5,-0.5 222.5,-0.5C 222.5,15.8333 222.5,32.1667 222.5,48.5C 220.5,48.5 218.5,48.5 216.5,48.5C 216.5,32.1667 216.5,15.8333 216.5,-0.5 Z"/></g>
<g><path style="opacity:1" fill="#386a87" d="M 222.5,-0.5 C 223.833,-0.5 225.167,-0.5 226.5,-0.5C 226.5,15.8333 226.5,32.1667 226.5,48.5C 225.167,48.5 223.833,48.5 222.5,48.5C 222.5,32.1667 222.5,15.8333 222.5,-0.5 Z"/></g>
<g><path style="opacity:1" fill="#396d86" d="M 226.5,-0.5 C 236.167,-0.5 245.833,-0.5 255.5,-0.5C 255.5,15.8333 255.5,32.1667 255.5,48.5C 245.833,48.5 236.167,48.5 226.5,48.5C 226.5,32.1667 226.5,15.8333 226.5,-0.5 Z"/></g>
<g><path style="opacity:1" fill="#3b7184" d="M 255.5,-0.5 C 259.167,-0.5 262.833,-0.5 266.5,-0.5C 266.5,15.8333 266.5,32.1667 266.5,48.5C 262.833,48.5 259.167,48.5 255.5,48.5C 255.5,32.1667 255.5,15.8333 255.5,-0.5 Z"/></g>
<g><path style="opacity:1" fill="#3c7482" d="M 266.5,-0.5 C 272.167,-0.5 277.833,-0.5 283.5,-0.5C 283.5,15.8333 283.5,32.1667 283.5,48.5C 277.833,48.5 272.167,48.5 266.5,48.5C 266.5,32.1667 266.5,15.8333 266.5,-0.5 Z"/></g>
<g><path style="opacity:1" fill="#3e7681" d="M 283.5,-0.5 C 284.833,-0.5 286.167,-0.5 287.5,-0.5C 287.5,15.8333 287.5,32.1667 287.5,48.5C 286.167,48.5 284.833,48.5 283.5,48.5C 283.5,32.1667 283.5,15.8333 283.5,-0.5 Z"/></g>
<g><path style="opacity:0.988" fill="#40797f" d="M 287.5,-0.5 C 296.5,-0.5 305.5,-0.5 314.5,-0.5C 314.5,16.1667 314.5,32.8333 314.5,49.5C 305.476,49.6416 296.476,49.3083 287.5,48.5C 287.5,32.1667 287.5,15.8333 287.5,-0.5 Z"/></g>
<g><path style="opacity:0.985" fill="#437d7d" d="M 314.5,-0.5 C 316.5,-0.5 318.5,-0.5 320.5,-0.5C 320.5,16.1667 320.5,32.8333 320.5,49.5C 318.5,49.5 316.5,49.5 314.5,49.5C 314.5,32.8333 314.5,16.1667 314.5,-0.5 Z"/></g>
<g><path style="opacity:0.985" fill="#447d7d" d="M 320.5,-0.5 C 321.833,-0.5 323.167,-0.5 324.5,-0.5C 324.5,16.1667 324.5,32.8333 324.5,49.5C 323.167,49.5 321.833,49.5 320.5,49.5C 320.5,32.8333 320.5,16.1667 320.5,-0.5 Z"/></g>
<g><path style="opacity:0.985" fill="#457e7d" d="M 324.5,-0.5 C 326.833,-0.5 329.167,-0.5 331.5,-0.5C 331.5,16.1667 331.5,32.8333 331.5,49.5C 329.167,49.5 326.833,49.5 324.5,49.5C 324.5,32.8333 324.5,16.1667 324.5,-0.5 Z"/></g>
<g><path style="opacity:0.985" fill="#467f7c" d="M 331.5,-0.5 C 332.167,-0.5 332.833,-0.5 333.5,-0.5C 333.5,16.1667 333.5,32.8333 333.5,49.5C 332.833,49.5 332.167,49.5 331.5,49.5C 331.5,32.8333 331.5,16.1667 331.5,-0.5 Z"/></g>
<g><path style="opacity:0.985" fill="#47817b" d="M 333.5,-0.5 C 339.5,-0.5 345.5,-0.5 351.5,-0.5C 351.5,16.1667 351.5,32.8333 351.5,49.5C 345.5,49.5 339.5,49.5 333.5,49.5C 333.5,32.8333 333.5,16.1667 333.5,-0.5 Z"/></g>
<g><path style="opacity:0.985" fill="#488578" d="M 351.5,-0.5 C 356.833,-0.5 362.167,-0.5 367.5,-0.5C 367.5,16.1667 367.5,32.8333 367.5,49.5C 362.167,49.5 356.833,49.5 351.5,49.5C 351.5,32.8333 351.5,16.1667 351.5,-0.5 Z"/></g>
<g><path style="opacity:0.988" fill="#4b8677" d="M 367.5,-0.5 C 368.833,-0.5 370.167,-0.5 371.5,-0.5C 371.5,16.1667 371.5,32.8333 371.5,49.5C 370.167,49.5 368.833,49.5 367.5,49.5C 367.5,32.8333 367.5,16.1667 367.5,-0.5 Z"/></g>
<g><path style="opacity:0.988" fill="#4a8876" d="M 371.5,-0.5 C 372.167,-0.5 372.833,-0.5 373.5,-0.5C 373.5,16.5 373.5,33.5 373.5,50.5C 372.508,50.6716 371.842,50.3382 371.5,49.5C 371.5,32.8333 371.5,16.1667 371.5,-0.5 Z"/></g>
<g><path style="opacity:0.988" fill="#4c8876" d="M 373.5,-0.5 C 374.5,-0.5 375.5,-0.5 376.5,-0.5C 376.5,17.8333 376.5,36.1667 376.5,54.5C 375.512,53.205 374.512,51.8717 373.5,50.5C 373.5,33.5 373.5,16.5 373.5,-0.5 Z"/></g>
<g><path style="opacity:0.993" fill="#4c8875" d="M 376.5,-0.5 C 378.5,-0.5 380.5,-0.5 382.5,-0.5C 382.5,64.8333 382.5,130.167 382.5,195.5C 380.5,195.5 378.5,195.5 376.5,195.5C 376.5,176.5 376.5,157.5 376.5,138.5C 376.5,135.5 376.5,132.5 376.5,129.5C 376.5,108.5 376.5,87.5 376.5,66.5C 376.5,62.5 376.5,58.5 376.5,54.5C 376.5,36.1667 376.5,17.8333 376.5,-0.5 Z"/></g>
<g><path style="opacity:0.999" fill="#4e8c73" d="M 382.5,-0.5 C 391.167,-0.5 399.833,-0.5 408.5,-0.5C 408.5,31.8333 408.5,64.1667 408.5,96.5C 408.5,96.8333 408.5,97.1667 408.5,97.5C 408.5,130.167 408.5,162.833 408.5,195.5C 399.833,195.5 391.167,195.5 382.5,195.5C 382.5,130.167 382.5,64.8333 382.5,-0.5 Z"/></g>
<g><path style="opacity:0.995" fill="#509071" d="M 408.5,-0.5 C 410.833,-0.5 413.167,-0.5 415.5,-0.5C 415.5,30.8333 415.5,62.1667 415.5,93.5C 413.574,95.2927 411.241,96.2927 408.5,96.5C 408.5,64.1667 408.5,31.8333 408.5,-0.5 Z"/></g>
<g><path style="opacity:0.997" fill="#519170" d="M 415.5,-0.5 C 416.167,-0.5 416.833,-0.5 417.5,-0.5C 417.5,30.5 417.5,61.5 417.5,92.5C 416.833,92.8333 416.167,93.1667 415.5,93.5C 415.5,62.1667 415.5,30.8333 415.5,-0.5 Z"/></g>
<g><path style="opacity:0.979" fill="#52936f" d="M 417.5,-0.5 C 423.167,-0.5 428.833,-0.5 434.5,-0.5C 434.5,15.8333 434.5,32.1667 434.5,48.5C 431.833,48.5 429.167,48.5 426.5,48.5C 426.666,58.5056 426.5,68.5056 426,78.5C 424.924,84.3328 422.091,88.9994 417.5,92.5C 417.5,61.5 417.5,30.5 417.5,-0.5 Z"/></g>
<g><path style="opacity:1" fill="#55976c" d="M 434.5,-0.5 C 439.5,-0.5 444.5,-0.5 449.5,-0.5C 449.5,15.8333 449.5,32.1667 449.5,48.5C 444.5,48.5 439.5,48.5 434.5,48.5C 434.5,32.1667 434.5,15.8333 434.5,-0.5 Z"/></g>
<g><path style="opacity:1" fill="#569969" d="M 449.5,-0.5 C 453.167,-0.5 456.833,-0.5 460.5,-0.5C 460.5,15.8333 460.5,32.1667 460.5,48.5C 456.833,48.5 453.167,48.5 449.5,48.5C 449.5,32.1667 449.5,15.8333 449.5,-0.5 Z"/></g>
<g><path style="opacity:1" fill="#589c67" d="M 460.5,-0.5 C 462.167,-0.5 463.833,-0.5 465.5,-0.5C 465.5,15.8333 465.5,32.1667 465.5,48.5C 463.833,48.5 462.167,48.5 460.5,48.5C 460.5,32.1667 460.5,15.8333 460.5,-0.5 Z"/></g>
<g><path style="opacity:1" fill="#5a9e65" d="M 465.5,-0.5 C 471.5,-0.5 477.5,-0.5 483.5,-0.5C 483.5,15.8333 483.5,32.1667 483.5,48.5C 477.5,48.5 471.5,48.5 465.5,48.5C 465.5,32.1667 465.5,15.8333 465.5,-0.5 Z"/></g>
<g><path style="opacity:1" fill="#5ca062" d="M 483.5,-0.5 C 486.167,-0.5 488.833,-0.5 491.5,-0.5C 491.5,15.8333 491.5,32.1667 491.5,48.5C 488.833,48.5 486.167,48.5 483.5,48.5C 483.5,32.1667 483.5,15.8333 483.5,-0.5 Z"/></g>
<g><path style="opacity:1" fill="#5ea161" d="M 491.5,-0.5 C 492.833,-0.5 494.167,-0.5 495.5,-0.5C 495.5,15.8333 495.5,32.1667 495.5,48.5C 494.167,48.5 492.833,48.5 491.5,48.5C 491.5,32.1667 491.5,15.8333 491.5,-0.5 Z"/></g>
<g><path style="opacity:1" fill="#5ea35f" d="M 495.5,-0.5 C 499.833,-0.5 504.167,-0.5 508.5,-0.5C 508.5,15.8333 508.5,32.1667 508.5,48.5C 504.167,48.5 499.833,48.5 495.5,48.5C 495.5,32.1667 495.5,15.8333 495.5,-0.5 Z"/></g>
<g><path style="opacity:1" fill="#60a65b" d="M 508.5,-0.5 C 513.5,-0.5 518.5,-0.5 523.5,-0.5C 523.5,15.8333 523.5,32.1667 523.5,48.5C 518.5,48.5 513.5,48.5 508.5,48.5C 508.5,32.1667 508.5,15.8333 508.5,-0.5 Z"/></g>
<g><path style="opacity:0.885" fill="#61aa58" d="M 523.5,-0.5 C 526.833,-0.5 530.167,-0.5 533.5,-0.5C 533.5,64.8333 533.5,130.167 533.5,195.5C 533.167,195.5 532.833,195.5 532.5,195.5C 532.5,146.5 532.5,97.5 532.5,48.5C 529.5,48.5 526.5,48.5 523.5,48.5C 523.5,32.1667 523.5,15.8333 523.5,-0.5 Z"/></g>
<g><path style="opacity:1" fill="#61ab56" d="M 533.5,-0.5 C 534.167,-0.5 534.833,-0.5 535.5,-0.5C 535.5,64.8333 535.5,130.167 535.5,195.5C 534.833,195.5 534.167,195.5 533.5,195.5C 533.5,130.167 533.5,64.8333 533.5,-0.5 Z"/></g>
<g><path style="opacity:1" fill="#63ac56" d="M 535.5,-0.5 C 536.5,-0.5 537.5,-0.5 538.5,-0.5C 538.5,64.8333 538.5,130.167 538.5,195.5C 537.5,195.5 536.5,195.5 535.5,195.5C 535.5,130.167 535.5,64.8333 535.5,-0.5 Z"/></g>
<g><path style="opacity:1" fill="#63ac55" d="M 538.5,-0.5 C 539.167,-0.5 539.833,-0.5 540.5,-0.5C 540.5,64.8333 540.5,130.167 540.5,195.5C 539.833,195.5 539.167,195.5 538.5,195.5C 538.5,130.167 538.5,64.8333 538.5,-0.5 Z"/></g>
<g><path style="opacity:1" fill="#62ad55" d="M 540.5,-0.5 C 541.167,-0.5 541.833,-0.5 542.5,-0.5C 542.5,64.8333 542.5,130.167 542.5,195.5C 541.833,195.5 541.167,195.5 540.5,195.5C 540.5,130.167 540.5,64.8333 540.5,-0.5 Z"/></g>
<g><path style="opacity:1" fill="#64ae55" d="M 542.5,-0.5 C 544.5,-0.5 546.5,-0.5 548.5,-0.5C 548.5,64.8333 548.5,130.167 548.5,195.5C 546.5,195.5 544.5,195.5 542.5,195.5C 542.5,130.167 542.5,64.8333 542.5,-0.5 Z"/></g>
<g><path style="opacity:1" fill="#66b052" d="M 548.5,-0.5 C 553.5,-0.5 558.5,-0.5 563.5,-0.5C 563.5,64.8333 563.5,130.167 563.5,195.5C 558.5,195.5 553.5,195.5 548.5,195.5C 548.5,130.167 548.5,64.8333 548.5,-0.5 Z"/></g>
<g><path style="opacity:1" fill="#67b34f" d="M 563.5,-0.5 C 567.5,-0.5 571.5,-0.5 575.5,-0.5C 575.5,64.8333 575.5,130.167 575.5,195.5C 571.5,195.5 567.5,195.5 563.5,195.5C 563.5,130.167 563.5,64.8333 563.5,-0.5 Z"/></g>
<g><path style="opacity:0.978" fill="#69b64d" d="M 575.5,-0.5 C 579.5,-0.5 583.5,-0.5 587.5,-0.5C 587.5,15.8333 587.5,32.1667 587.5,48.5C 585.833,48.5 584.167,48.5 582.5,48.5C 582.5,97.5 582.5,146.5 582.5,195.5C 580.167,195.5 577.833,195.5 575.5,195.5C 575.5,130.167 575.5,64.8333 575.5,-0.5 Z"/></g>
<g><path style="opacity:1" fill="#6bb84b" d="M 587.5,-0.5 C 588.5,-0.5 589.5,-0.5 590.5,-0.5C 590.5,15.8333 590.5,32.1667 590.5,48.5C 589.5,48.5 588.5,48.5 587.5,48.5C 587.5,32.1667 587.5,15.8333 587.5,-0.5 Z"/></g>
<g><path style="opacity:1" fill="#6cb949" d="M 590.5,-0.5 C 594.833,-0.5 599.167,-0.5 603.5,-0.5C 603.5,15.8333 603.5,32.1667 603.5,48.5C 599.167,48.5 594.833,48.5 590.5,48.5C 590.5,32.1667 590.5,15.8333 590.5,-0.5 Z"/></g>
<g><path style="opacity:1" fill="#6dbc46" d="M 603.5,-0.5 C 607.167,-0.5 610.833,-0.5 614.5,-0.5C 614.5,15.8333 614.5,32.1667 614.5,48.5C 610.833,48.5 607.167,48.5 603.5,48.5C 603.5,32.1667 603.5,15.8333 603.5,-0.5 Z"/></g>
<g><path style="opacity:0.982" fill="#6ebe43" d="M 614.5,-0.5 C 628.5,-0.5 642.5,-0.5 656.5,-0.5C 656.5,15.8333 656.5,32.1667 656.5,48.5C 642.5,48.5 628.5,48.5 614.5,48.5C 614.5,32.1667 614.5,15.8333 614.5,-0.5 Z"/></g>
<g><path style="opacity:0.964" fill="#4c8876" d="M 376.5,66.5 C 376.5,87.5 376.5,108.5 376.5,129.5C 375.263,128.035 374.263,126.368 373.5,124.5C 373.5,106.5 373.5,88.5 373.5,70.5C 374.512,69.1283 375.512,67.795 376.5,66.5 Z"/></g>
<g><path style="opacity:0.977" fill="#4a8876" d="M 373.5,70.5 C 373.5,88.5 373.5,106.5 373.5,124.5C 372.508,124.672 371.842,124.338 371.5,123.5C 371.5,106.167 371.5,88.8333 371.5,71.5C 372.167,71.1667 372.833,70.8333 373.5,70.5 Z"/></g>
<g><path style="opacity:0.983" fill="#4b8677" d="M 371.5,71.5 C 371.5,88.8333 371.5,106.167 371.5,123.5C 370.167,123.167 368.833,122.833 367.5,122.5C 367.5,105.833 367.5,89.1667 367.5,72.5C 368.959,72.5674 370.292,72.2341 371.5,71.5 Z"/></g>
<g><path style="opacity:0.955" fill="#243c96" d="M -0.5,72.5 C 1.5,72.5 3.5,72.5 5.5,72.5C 5.5,113.5 5.5,154.5 5.5,195.5C 3.5,195.5 1.5,195.5 -0.5,195.5C -0.5,154.5 -0.5,113.5 -0.5,72.5 Z"/></g>
<g><path style="opacity:0.996" fill="#244095" d="M 5.5,72.5 C 7.16667,72.5 8.83333,72.5 10.5,72.5C 10.5,113.5 10.5,154.5 10.5,195.5C 8.83333,195.5 7.16667,195.5 5.5,195.5C 5.5,154.5 5.5,113.5 5.5,72.5 Z"/></g>
<g><path style="opacity:0.996" fill="#264394" d="M 10.5,72.5 C 11.1667,72.5 11.8333,72.5 12.5,72.5C 12.5,113.5 12.5,154.5 12.5,195.5C 11.8333,195.5 11.1667,195.5 10.5,195.5C 10.5,154.5 10.5,113.5 10.5,72.5 Z"/></g>
<g><path style="opacity:0.996" fill="#284793" d="M 12.5,72.5 C 15.1667,72.5 17.8333,72.5 20.5,72.5C 20.5,113.5 20.5,154.5 20.5,195.5C 17.8333,195.5 15.1667,195.5 12.5,195.5C 12.5,154.5 12.5,113.5 12.5,72.5 Z"/></g>
<g><path style="opacity:0.996" fill="#274e91" d="M 20.5,72.5 C 23.5,72.5 26.5,72.5 29.5,72.5C 29.5,113.5 29.5,154.5 29.5,195.5C 26.5,195.5 23.5,195.5 20.5,195.5C 20.5,154.5 20.5,113.5 20.5,72.5 Z"/></g>
<g><path style="opacity:0.996" fill="#275390" d="M 29.5,72.5 C 31.5,72.5 33.5,72.5 35.5,72.5C 35.5,113.5 35.5,154.5 35.5,195.5C 33.5,195.5 31.5,195.5 29.5,195.5C 29.5,154.5 29.5,113.5 29.5,72.5 Z"/></g>
<g><path style="opacity:0.996" fill="#27568f" d="M 35.5,72.5 C 36.5,72.5 37.5,72.5 38.5,72.5C 38.5,113.5 38.5,154.5 38.5,195.5C 37.5,195.5 36.5,195.5 35.5,195.5C 35.5,154.5 35.5,113.5 35.5,72.5 Z"/></g>
<g><path style="opacity:0.996" fill="#2a598f" d="M 38.5,72.5 C 39.8333,72.5 41.1667,72.5 42.5,72.5C 42.5,113.5 42.5,154.5 42.5,195.5C 41.1667,195.5 39.8333,195.5 38.5,195.5C 38.5,154.5 38.5,113.5 38.5,72.5 Z"/></g>
<g><path style="opacity:0.996" fill="#2c5b8d" d="M 42.5,72.5 C 43.8333,72.5 45.1667,72.5 46.5,72.5C 46.5,113.5 46.5,154.5 46.5,195.5C 45.1667,195.5 43.8333,195.5 42.5,195.5C 42.5,154.5 42.5,113.5 42.5,72.5 Z"/></g>
<g><path style="opacity:0.947" fill="#305e8d" d="M 46.5,72.5 C 47.5,72.5 48.5,72.5 49.5,72.5C 49.5,89.1667 49.5,105.833 49.5,122.5C 49.5,130.167 49.5,137.833 49.5,145.5C 49.5,162.167 49.5,178.833 49.5,195.5C 48.5,195.5 47.5,195.5 46.5,195.5C 46.5,154.5 46.5,113.5 46.5,72.5 Z"/></g>
<g><path style="opacity:0.985" fill="#31608c" d="M 49.5,72.5 C 50.1667,72.5 50.8333,72.5 51.5,72.5C 51.5,89.1667 51.5,105.833 51.5,122.5C 50.8333,122.5 50.1667,122.5 49.5,122.5C 49.5,105.833 49.5,89.1667 49.5,72.5 Z"/></g>
<g><path style="opacity:0.985" fill="#33618b" d="M 51.5,72.5 C 52.8333,72.5 54.1667,72.5 55.5,72.5C 55.5,89.1667 55.5,105.833 55.5,122.5C 54.1667,122.5 52.8333,122.5 51.5,122.5C 51.5,105.833 51.5,89.1667 51.5,72.5 Z"/></g>
<g><path style="opacity:0.985" fill="#35648a" d="M 55.5,72.5 C 57.1667,72.5 58.8333,72.5 60.5,72.5C 60.5,89.1667 60.5,105.833 60.5,122.5C 58.8333,122.5 57.1667,122.5 55.5,122.5C 55.5,105.833 55.5,89.1667 55.5,72.5 Z"/></g>
<g><path style="opacity:0.985" fill="#376789" d="M 60.5,72.5 C 61.8333,72.5 63.1667,72.5 64.5,72.5C 64.5,89.1667 64.5,105.833 64.5,122.5C 63.1667,122.5 61.8333,122.5 60.5,122.5C 60.5,105.833 60.5,89.1667 60.5,72.5 Z"/></g>
<g><path style="opacity:0.985" fill="#386988" d="M 64.5,72.5 C 65.1667,72.5 65.8333,72.5 66.5,72.5C 66.5,89.1667 66.5,105.833 66.5,122.5C 65.8333,122.5 65.1667,122.5 64.5,122.5C 64.5,105.833 64.5,89.1667 64.5,72.5 Z"/></g>
<g><path style="opacity:0.985" fill="#396d86" d="M 66.5,72.5 C 69.8333,72.5 73.1667,72.5 76.5,72.5C 76.5,89.1667 76.5,105.833 76.5,122.5C 73.1667,122.5 69.8333,122.5 66.5,122.5C 66.5,105.833 66.5,89.1667 66.5,72.5 Z"/></g>
<g><path style="opacity:0.985" fill="#3b7184" d="M 76.5,72.5 C 77.5,72.5 78.5,72.5 79.5,72.5C 79.5,89.1667 79.5,105.833 79.5,122.5C 78.5,122.5 77.5,122.5 76.5,122.5C 76.5,105.833 76.5,89.1667 76.5,72.5 Z"/></g>
<g><path style="opacity:0.985" fill="#3c7482" d="M 79.5,72.5 C 81.1667,72.5 82.8333,72.5 84.5,72.5C 84.5,89.1667 84.5,105.833 84.5,122.5C 82.8333,122.5 81.1667,122.5 79.5,122.5C 79.5,105.833 79.5,89.1667 79.5,72.5 Z"/></g>
<g><path style="opacity:0.985" fill="#3e7781" d="M 84.5,72.5 C 85.1667,72.5 85.8333,72.5 86.5,72.5C 86.5,89.1667 86.5,105.833 86.5,122.5C 85.8333,122.5 85.1667,122.5 84.5,122.5C 84.5,105.833 84.5,89.1667 84.5,72.5 Z"/></g>
<g><path style="opacity:0.985" fill="#41797f" d="M 86.5,72.5 C 89.1667,72.5 91.8333,72.5 94.5,72.5C 94.5,89.1667 94.5,105.833 94.5,122.5C 91.8333,122.5 89.1667,122.5 86.5,122.5C 86.5,105.833 86.5,89.1667 86.5,72.5 Z"/></g>
<g><path style="opacity:0.985" fill="#437d7e" d="M 94.5,72.5 C 95.1667,72.5 95.8333,72.5 96.5,72.5C 96.5,89.1667 96.5,105.833 96.5,122.5C 95.8333,122.5 95.1667,122.5 94.5,122.5C 94.5,105.833 94.5,89.1667 94.5,72.5 Z"/></g>
<g><path style="opacity:0.985" fill="#467e7d" d="M 96.5,72.5 C 97.5,72.5 98.5,72.5 99.5,72.5C 99.5,89.1667 99.5,105.833 99.5,122.5C 98.5,122.5 97.5,122.5 96.5,122.5C 96.5,105.833 96.5,89.1667 96.5,72.5 Z"/></g>
<g><path style="opacity:0.985" fill="#47817b" d="M 99.5,72.5 C 101.167,72.5 102.833,72.5 104.5,72.5C 104.5,89.1667 104.5,105.833 104.5,122.5C 102.833,122.5 101.167,122.5 99.5,122.5C 99.5,105.833 99.5,89.1667 99.5,72.5 Z"/></g>
<g><path style="opacity:0.985" fill="#488479" d="M 104.5,72.5 C 106.167,72.5 107.833,72.5 109.5,72.5C 109.5,89.1667 109.5,105.833 109.5,122.5C 107.833,122.5 106.167,122.5 104.5,122.5C 104.5,105.833 104.5,89.1667 104.5,72.5 Z"/></g>
<g><path style="opacity:0.985" fill="#4b8777" d="M 109.5,72.5 C 110.5,72.5 111.5,72.5 112.5,72.5C 112.5,89.1667 112.5,105.833 112.5,122.5C 111.5,122.5 110.5,122.5 109.5,122.5C 109.5,105.833 109.5,89.1667 109.5,72.5 Z"/></g>
<g><path style="opacity:0.985" fill="#4c8975" d="M 112.5,72.5 C 113.167,72.5 113.833,72.5 114.5,72.5C 114.5,89.1667 114.5,105.833 114.5,122.5C 113.833,122.5 113.167,122.5 112.5,122.5C 112.5,105.833 112.5,89.1667 112.5,72.5 Z"/></g>
<g><path style="opacity:0.985" fill="#4e8c73" d="M 114.5,72.5 C 117.167,72.5 119.833,72.5 122.5,72.5C 122.5,89.1667 122.5,105.833 122.5,122.5C 119.833,122.5 117.167,122.5 114.5,122.5C 114.5,105.833 114.5,89.1667 114.5,72.5 Z"/></g>
<g><path style="opacity:0.985" fill="#519071" d="M 122.5,72.5 C 123.167,72.5 123.833,72.5 124.5,72.5C 124.5,89.1667 124.5,105.833 124.5,122.5C 123.833,122.5 123.167,122.5 122.5,122.5C 122.5,105.833 122.5,89.1667 122.5,72.5 Z"/></g>
<g><path style="opacity:0.985" fill="#52936f" d="M 124.5,72.5 C 126.167,72.5 127.833,72.5 129.5,72.5C 129.5,89.1667 129.5,105.833 129.5,122.5C 127.833,122.5 126.167,122.5 124.5,122.5C 124.5,105.833 124.5,89.1667 124.5,72.5 Z"/></g>
<g><path style="opacity:0.985" fill="#55976c" d="M 129.5,72.5 C 131.167,72.5 132.833,72.5 134.5,72.5C 134.5,89.1667 134.5,105.833 134.5,122.5C 132.833,122.5 131.167,122.5 129.5,122.5C 129.5,105.833 129.5,89.1667 129.5,72.5 Z"/></g>
<g><path style="opacity:0.985" fill="#569969" d="M 134.5,72.5 C 135.5,72.5 136.5,72.5 137.5,72.5C 137.5,89.1667 137.5,105.833 137.5,122.5C 136.5,122.5 135.5,122.5 134.5,122.5C 134.5,105.833 134.5,89.1667 134.5,72.5 Z"/></g>
<g><path style="opacity:0.985" fill="#589c67" d="M 137.5,72.5 C 138.167,72.5 138.833,72.5 139.5,72.5C 139.5,89.1667 139.5,105.833 139.5,122.5C 138.833,122.5 138.167,122.5 137.5,122.5C 137.5,105.833 137.5,89.1667 137.5,72.5 Z"/></g>
<g><path style="opacity:0.985" fill="#5a9e65" d="M 139.5,72.5 C 141.167,72.5 142.833,72.5 144.5,72.5C 144.5,89.1667 144.5,105.833 144.5,122.5C 142.833,122.5 141.167,122.5 139.5,122.5C 139.5,105.833 139.5,89.1667 139.5,72.5 Z"/></g>
<g><path style="opacity:0.985" fill="#5ca063" d="M 144.5,72.5 C 145.167,72.5 145.833,72.5 146.5,72.5C 146.5,89.1667 146.5,105.833 146.5,122.5C 145.833,122.5 145.167,122.5 144.5,122.5C 144.5,105.833 144.5,89.1667 144.5,72.5 Z"/></g>
<g><path style="opacity:0.985" fill="#5da261" d="M 146.5,72.5 C 147.167,72.5 147.833,72.5 148.5,72.5C 148.5,89.1667 148.5,105.833 148.5,122.5C 147.833,122.5 147.167,122.5 146.5,122.5C 146.5,105.833 146.5,89.1667 146.5,72.5 Z"/></g>
<g><path style="opacity:0.985" fill="#5ea35f" d="M 148.5,72.5 C 149.5,72.5 150.5,72.5 151.5,72.5C 151.5,89.1667 151.5,105.833 151.5,122.5C 150.5,122.5 149.5,122.5 148.5,122.5C 148.5,105.833 148.5,89.1667 148.5,72.5 Z"/></g>
<g><path style="opacity:0.985" fill="#60a65b" d="M 151.5,72.5 C 153.167,72.5 154.833,72.5 156.5,72.5C 156.5,89.1667 156.5,105.833 156.5,122.5C 154.833,122.5 153.167,122.5 151.5,122.5C 151.5,105.833 151.5,89.1667 151.5,72.5 Z"/></g>
<g><path style="opacity:0.985" fill="#62a958" d="M 156.5,72.5 C 157.5,72.5 158.5,72.5 159.5,72.5C 159.5,89.1667 159.5,105.833 159.5,122.5C 158.5,122.5 157.5,122.5 156.5,122.5C 156.5,105.833 156.5,89.1667 156.5,72.5 Z"/></g>
<g><path style="opacity:0.985" fill="#63ac56" d="M 159.5,72.5 C 160.833,72.5 162.167,72.5 163.5,72.5C 163.5,89.1667 163.5,105.833 163.5,122.5C 162.167,122.5 160.833,122.5 159.5,122.5C 159.5,105.833 159.5,89.1667 159.5,72.5 Z"/></g>
<g><path style="opacity:0.985" fill="#66b052" d="M 163.5,72.5 C 165.167,72.5 166.833,72.5 168.5,72.5C 168.5,89.1667 168.5,105.833 168.5,122.5C 166.833,122.5 165.167,122.5 163.5,122.5C 163.5,105.833 163.5,89.1667 163.5,72.5 Z"/></g>
<g><path style="opacity:0.985" fill="#67b350" d="M 168.5,72.5 C 169.5,72.5 170.5,72.5 171.5,72.5C 171.5,89.1667 171.5,105.833 171.5,122.5C 170.5,122.5 169.5,122.5 168.5,122.5C 168.5,105.833 168.5,89.1667 168.5,72.5 Z"/></g>
<g><path style="opacity:0.985" fill="#69b64d" d="M 171.5,72.5 C 173.167,72.5 174.833,72.5 176.5,72.5C 176.5,89.1667 176.5,105.833 176.5,122.5C 174.833,122.5 173.167,122.5 171.5,122.5C 171.5,105.833 171.5,89.1667 171.5,72.5 Z"/></g>
<g><path style="opacity:0.985" fill="#6cb949" d="M 176.5,72.5 C 177.833,72.5 179.167,72.5 180.5,72.5C 180.5,89.1667 180.5,105.833 180.5,122.5C 179.167,122.5 177.833,122.5 176.5,122.5C 176.5,105.833 176.5,89.1667 176.5,72.5 Z"/></g>
<g><path style="opacity:0.985" fill="#6dbc46" d="M 180.5,72.5 C 181.5,72.5 182.5,72.5 183.5,72.5C 183.5,89.1667 183.5,105.833 183.5,122.5C 182.5,122.5 181.5,122.5 180.5,122.5C 180.5,105.833 180.5,89.1667 180.5,72.5 Z"/></g>
<g><path style="opacity:0.985" fill="#6ebe43" d="M 183.5,72.5 C 187.5,72.5 191.5,72.5 195.5,72.5C 195.5,89.1667 195.5,105.833 195.5,122.5C 191.5,122.5 187.5,122.5 183.5,122.5C 183.5,105.833 183.5,89.1667 183.5,72.5 Z"/></g>
<g><path style="opacity:0.981" fill="#396e86" d="M 255.5,72.5 C 255.5,113.5 255.5,154.5 255.5,195.5C 246.833,195.5 238.167,195.5 229.5,195.5C 229.5,154.5 229.5,113.5 229.5,72.5C 238.167,72.5 246.833,72.5 255.5,72.5 Z"/></g>
<g><path style="opacity:1" fill="#3b7184" d="M 255.5,72.5 C 259.167,72.5 262.833,72.5 266.5,72.5C 266.5,113.5 266.5,154.5 266.5,195.5C 262.833,195.5 259.167,195.5 255.5,195.5C 255.5,154.5 255.5,113.5 255.5,72.5 Z"/></g>
<g><path style="opacity:0.997" fill="#3c7482" d="M 266.5,72.5 C 272.167,72.5 277.833,72.5 283.5,72.5C 283.5,89.1667 283.5,105.833 283.5,122.5C 282.167,122.5 280.833,122.5 279.5,122.5C 279.5,130.167 279.5,137.833 279.5,145.5C 280.833,145.5 282.167,145.5 283.5,145.5C 283.5,162.167 283.5,178.833 283.5,195.5C 277.833,195.5 272.167,195.5 266.5,195.5C 266.5,154.5 266.5,113.5 266.5,72.5 Z"/></g>
<g><path style="opacity:0.985" fill="#3e7681" d="M 283.5,72.5 C 284.833,72.5 286.167,72.5 287.5,72.5C 287.5,89.1667 287.5,105.833 287.5,122.5C 286.167,122.5 284.833,122.5 283.5,122.5C 283.5,105.833 283.5,89.1667 283.5,72.5 Z"/></g>
<g><path style="opacity:0.985" fill="#40797f" d="M 287.5,72.5 C 296.5,72.5 305.5,72.5 314.5,72.5C 314.5,89.1667 314.5,105.833 314.5,122.5C 305.5,122.5 296.5,122.5 287.5,122.5C 287.5,105.833 287.5,89.1667 287.5,72.5 Z"/></g>
<g><path style="opacity:0.985" fill="#437d7d" d="M 314.5,72.5 C 316.5,72.5 318.5,72.5 320.5,72.5C 320.5,89.1667 320.5,105.833 320.5,122.5C 318.5,122.5 316.5,122.5 314.5,122.5C 314.5,105.833 314.5,89.1667 314.5,72.5 Z"/></g>
<g><path style="opacity:0.985" fill="#447d7d" d="M 320.5,72.5 C 321.833,72.5 323.167,72.5 324.5,72.5C 324.5,89.1667 324.5,105.833 324.5,122.5C 323.167,122.5 321.833,122.5 320.5,122.5C 320.5,105.833 320.5,89.1667 320.5,72.5 Z"/></g>
<g><path style="opacity:0.985" fill="#457e7d" d="M 324.5,72.5 C 326.833,72.5 329.167,72.5 331.5,72.5C 331.5,89.1667 331.5,105.833 331.5,122.5C 329.167,122.5 326.833,122.5 324.5,122.5C 324.5,105.833 324.5,89.1667 324.5,72.5 Z"/></g>
<g><path style="opacity:0.985" fill="#467f7c" d="M 331.5,72.5 C 332.167,72.5 332.833,72.5 333.5,72.5C 333.5,89.1667 333.5,105.833 333.5,122.5C 332.833,122.5 332.167,122.5 331.5,122.5C 331.5,105.833 331.5,89.1667 331.5,72.5 Z"/></g>
<g><path style="opacity:0.985" fill="#47817b" d="M 333.5,72.5 C 339.5,72.5 345.5,72.5 351.5,72.5C 351.5,89.1667 351.5,105.833 351.5,122.5C 345.5,122.5 339.5,122.5 333.5,122.5C 333.5,105.833 333.5,89.1667 333.5,72.5 Z"/></g>
<g><path style="opacity:0.985" fill="#488578" d="M 351.5,72.5 C 356.833,72.5 362.167,72.5 367.5,72.5C 367.5,89.1667 367.5,105.833 367.5,122.5C 362.167,122.5 356.833,122.5 351.5,122.5C 351.5,105.833 351.5,89.1667 351.5,72.5 Z"/></g>
<g><path style="opacity:0.989" fill="#509071" d="M 408.5,97.5 C 410.954,98.2271 413.287,99.2271 415.5,100.5C 415.5,130.833 415.5,161.167 415.5,191.5C 413.81,193.342 411.81,194.675 409.5,195.5C 409.167,195.5 408.833,195.5 408.5,195.5C 408.5,162.833 408.5,130.167 408.5,97.5 Z"/></g>
<g><path style="opacity:0.983" fill="#519170" d="M 415.5,100.5 C 416.5,100.833 417.167,101.5 417.5,102.5C 417.5,131.833 417.5,161.167 417.5,190.5C 417.158,191.338 416.492,191.672 415.5,191.5C 415.5,161.167 415.5,130.833 415.5,100.5 Z"/></g>
<g><path style="opacity:0.935" fill="#52926f" d="M 417.5,102.5 C 422.164,106.009 424.997,110.676 426,116.5C 426.667,136.5 426.667,156.5 426,176.5C 424.929,182.322 422.095,186.988 417.5,190.5C 417.5,161.167 417.5,131.833 417.5,102.5 Z"/></g>
<g><path style="opacity:0.983" fill="#4c8876" d="M 376.5,138.5 C 376.5,157.5 376.5,176.5 376.5,195.5C 375.5,195.5 374.5,195.5 373.5,195.5C 373.5,178.167 373.5,160.833 373.5,143.5C 374.692,141.887 375.692,140.22 376.5,138.5 Z"/></g>
<g><path style="opacity:0.992" fill="#4a8876" d="M 373.5,143.5 C 373.5,160.833 373.5,178.167 373.5,195.5C 372.833,195.5 372.167,195.5 371.5,195.5C 371.5,178.5 371.5,161.5 371.5,144.5C 372.167,144.167 372.833,143.833 373.5,143.5 Z"/></g>
<g><path style="opacity:0.99" fill="#4b8677" d="M 371.5,144.5 C 371.5,161.5 371.5,178.5 371.5,195.5C 370.167,195.5 368.833,195.5 367.5,195.5C 367.5,178.833 367.5,162.167 367.5,145.5C 368.959,145.567 370.292,145.234 371.5,144.5 Z"/></g>
<g><path style="opacity:0.98" fill="#31608c" d="M 49.5,145.5 C 50.1667,145.5 50.8333,145.5 51.5,145.5C 51.5,162.167 51.5,178.833 51.5,195.5C 50.8333,195.5 50.1667,195.5 49.5,195.5C 49.5,178.833 49.5,162.167 49.5,145.5 Z"/></g>
<g><path style="opacity:0.98" fill="#33618b" d="M 51.5,145.5 C 52.8333,145.5 54.1667,145.5 55.5,145.5C 55.5,162.167 55.5,178.833 55.5,195.5C 54.1667,195.5 52.8333,195.5 51.5,195.5C 51.5,178.833 51.5,162.167 51.5,145.5 Z"/></g>
<g><path style="opacity:0.98" fill="#35648a" d="M 55.5,145.5 C 57.1667,145.5 58.8333,145.5 60.5,145.5C 60.5,162.167 60.5,178.833 60.5,195.5C 58.8333,195.5 57.1667,195.5 55.5,195.5C 55.5,178.833 55.5,162.167 55.5,145.5 Z"/></g>
<g><path style="opacity:0.98" fill="#376789" d="M 60.5,145.5 C 61.8333,145.5 63.1667,145.5 64.5,145.5C 64.5,162.167 64.5,178.833 64.5,195.5C 63.1667,195.5 61.8333,195.5 60.5,195.5C 60.5,178.833 60.5,162.167 60.5,145.5 Z"/></g>
<g><path style="opacity:0.98" fill="#386988" d="M 64.5,145.5 C 65.1667,145.5 65.8333,145.5 66.5,145.5C 66.5,162.167 66.5,178.833 66.5,195.5C 65.8333,195.5 65.1667,195.5 64.5,195.5C 64.5,178.833 64.5,162.167 64.5,145.5 Z"/></g>
<g><path style="opacity:0.98" fill="#396d86" d="M 66.5,145.5 C 69.8333,145.5 73.1667,145.5 76.5,145.5C 76.5,162.167 76.5,178.833 76.5,195.5C 73.1667,195.5 69.8333,195.5 66.5,195.5C 66.5,178.833 66.5,162.167 66.5,145.5 Z"/></g>
<g><path style="opacity:0.98" fill="#3b7184" d="M 76.5,145.5 C 77.5,145.5 78.5,145.5 79.5,145.5C 79.5,162.167 79.5,178.833 79.5,195.5C 78.5,195.5 77.5,195.5 76.5,195.5C 76.5,178.833 76.5,162.167 76.5,145.5 Z"/></g>
<g><path style="opacity:0.98" fill="#3c7482" d="M 79.5,145.5 C 81.1667,145.5 82.8333,145.5 84.5,145.5C 84.5,162.167 84.5,178.833 84.5,195.5C 82.8333,195.5 81.1667,195.5 79.5,195.5C 79.5,178.833 79.5,162.167 79.5,145.5 Z"/></g>
<g><path style="opacity:0.98" fill="#3e7781" d="M 84.5,145.5 C 85.1667,145.5 85.8333,145.5 86.5,145.5C 86.5,162.167 86.5,178.833 86.5,195.5C 85.8333,195.5 85.1667,195.5 84.5,195.5C 84.5,178.833 84.5,162.167 84.5,145.5 Z"/></g>
<g><path style="opacity:0.98" fill="#41797f" d="M 86.5,145.5 C 89.1667,145.5 91.8333,145.5 94.5,145.5C 94.5,162.167 94.5,178.833 94.5,195.5C 91.8333,195.5 89.1667,195.5 86.5,195.5C 86.5,178.833 86.5,162.167 86.5,145.5 Z"/></g>
<g><path style="opacity:0.98" fill="#437d7e" d="M 94.5,145.5 C 95.1667,145.5 95.8333,145.5 96.5,145.5C 96.5,162.167 96.5,178.833 96.5,195.5C 95.8333,195.5 95.1667,195.5 94.5,195.5C 94.5,178.833 94.5,162.167 94.5,145.5 Z"/></g>
<g><path style="opacity:0.98" fill="#467e7d" d="M 96.5,145.5 C 97.5,145.5 98.5,145.5 99.5,145.5C 99.5,162.167 99.5,178.833 99.5,195.5C 98.5,195.5 97.5,195.5 96.5,195.5C 96.5,178.833 96.5,162.167 96.5,145.5 Z"/></g>
<g><path style="opacity:0.98" fill="#47817b" d="M 99.5,145.5 C 101.167,145.5 102.833,145.5 104.5,145.5C 104.5,162.167 104.5,178.833 104.5,195.5C 102.833,195.5 101.167,195.5 99.5,195.5C 99.5,178.833 99.5,162.167 99.5,145.5 Z"/></g>
<g><path style="opacity:0.98" fill="#488479" d="M 104.5,145.5 C 106.167,145.5 107.833,145.5 109.5,145.5C 109.5,162.167 109.5,178.833 109.5,195.5C 107.833,195.5 106.167,195.5 104.5,195.5C 104.5,178.833 104.5,162.167 104.5,145.5 Z"/></g>
<g><path style="opacity:0.98" fill="#4b8777" d="M 109.5,145.5 C 110.5,145.5 111.5,145.5 112.5,145.5C 112.5,162.167 112.5,178.833 112.5,195.5C 111.5,195.5 110.5,195.5 109.5,195.5C 109.5,178.833 109.5,162.167 109.5,145.5 Z"/></g>
<g><path style="opacity:0.98" fill="#4c8975" d="M 112.5,145.5 C 113.167,145.5 113.833,145.5 114.5,145.5C 114.5,162.167 114.5,178.833 114.5,195.5C 113.833,195.5 113.167,195.5 112.5,195.5C 112.5,178.833 112.5,162.167 112.5,145.5 Z"/></g>
<g><path style="opacity:0.98" fill="#4e8c73" d="M 114.5,145.5 C 117.167,145.5 119.833,145.5 122.5,145.5C 122.5,162.167 122.5,178.833 122.5,195.5C 119.833,195.5 117.167,195.5 114.5,195.5C 114.5,178.833 114.5,162.167 114.5,145.5 Z"/></g>
<g><path style="opacity:0.98" fill="#519071" d="M 122.5,145.5 C 123.167,145.5 123.833,145.5 124.5,145.5C 124.5,162.167 124.5,178.833 124.5,195.5C 123.833,195.5 123.167,195.5 122.5,195.5C 122.5,178.833 122.5,162.167 122.5,145.5 Z"/></g>
<g><path style="opacity:0.98" fill="#52936f" d="M 124.5,145.5 C 126.167,145.5 127.833,145.5 129.5,145.5C 129.5,162.167 129.5,178.833 129.5,195.5C 127.833,195.5 126.167,195.5 124.5,195.5C 124.5,178.833 124.5,162.167 124.5,145.5 Z"/></g>
<g><path style="opacity:0.98" fill="#55976c" d="M 129.5,145.5 C 131.167,145.5 132.833,145.5 134.5,145.5C 134.5,162.167 134.5,178.833 134.5,195.5C 132.833,195.5 131.167,195.5 129.5,195.5C 129.5,178.833 129.5,162.167 129.5,145.5 Z"/></g>
<g><path style="opacity:0.98" fill="#569969" d="M 134.5,145.5 C 135.5,145.5 136.5,145.5 137.5,145.5C 137.5,162.167 137.5,178.833 137.5,195.5C 136.5,195.5 135.5,195.5 134.5,195.5C 134.5,178.833 134.5,162.167 134.5,145.5 Z"/></g>
<g><path style="opacity:0.98" fill="#589c67" d="M 137.5,145.5 C 138.167,145.5 138.833,145.5 139.5,145.5C 139.5,162.167 139.5,178.833 139.5,195.5C 138.833,195.5 138.167,195.5 137.5,195.5C 137.5,178.833 137.5,162.167 137.5,145.5 Z"/></g>
<g><path style="opacity:0.98" fill="#5a9e65" d="M 139.5,145.5 C 141.167,145.5 142.833,145.5 144.5,145.5C 144.5,162.167 144.5,178.833 144.5,195.5C 142.833,195.5 141.167,195.5 139.5,195.5C 139.5,178.833 139.5,162.167 139.5,145.5 Z"/></g>
<g><path style="opacity:0.98" fill="#5ca063" d="M 144.5,145.5 C 145.167,145.5 145.833,145.5 146.5,145.5C 146.5,162.167 146.5,178.833 146.5,195.5C 145.833,195.5 145.167,195.5 144.5,195.5C 144.5,178.833 144.5,162.167 144.5,145.5 Z"/></g>
<g><path style="opacity:0.98" fill="#5da261" d="M 146.5,145.5 C 147.167,145.5 147.833,145.5 148.5,145.5C 148.5,162.167 148.5,178.833 148.5,195.5C 147.833,195.5 147.167,195.5 146.5,195.5C 146.5,178.833 146.5,162.167 146.5,145.5 Z"/></g>
<g><path style="opacity:0.98" fill="#5ea35f" d="M 148.5,145.5 C 149.5,145.5 150.5,145.5 151.5,145.5C 151.5,162.167 151.5,178.833 151.5,195.5C 150.5,195.5 149.5,195.5 148.5,195.5C 148.5,178.833 148.5,162.167 148.5,145.5 Z"/></g>
<g><path style="opacity:0.98" fill="#60a65b" d="M 151.5,145.5 C 153.167,145.5 154.833,145.5 156.5,145.5C 156.5,162.167 156.5,178.833 156.5,195.5C 154.833,195.5 153.167,195.5 151.5,195.5C 151.5,178.833 151.5,162.167 151.5,145.5 Z"/></g>
<g><path style="opacity:0.98" fill="#62a958" d="M 156.5,145.5 C 157.5,145.5 158.5,145.5 159.5,145.5C 159.5,162.167 159.5,178.833 159.5,195.5C 158.5,195.5 157.5,195.5 156.5,195.5C 156.5,178.833 156.5,162.167 156.5,145.5 Z"/></g>
<g><path style="opacity:0.98" fill="#63ac56" d="M 159.5,145.5 C 160.833,145.5 162.167,145.5 163.5,145.5C 163.5,162.167 163.5,178.833 163.5,195.5C 162.167,195.5 160.833,195.5 159.5,195.5C 159.5,178.833 159.5,162.167 159.5,145.5 Z"/></g>
<g><path style="opacity:0.98" fill="#66b052" d="M 163.5,145.5 C 165.167,145.5 166.833,145.5 168.5,145.5C 168.5,162.167 168.5,178.833 168.5,195.5C 166.833,195.5 165.167,195.5 163.5,195.5C 163.5,178.833 163.5,162.167 163.5,145.5 Z"/></g>
<g><path style="opacity:0.98" fill="#67b350" d="M 168.5,145.5 C 169.5,145.5 170.5,145.5 171.5,145.5C 171.5,162.167 171.5,178.833 171.5,195.5C 170.5,195.5 169.5,195.5 168.5,195.5C 168.5,178.833 168.5,162.167 168.5,145.5 Z"/></g>
<g><path style="opacity:0.98" fill="#69b64d" d="M 171.5,145.5 C 173.167,145.5 174.833,145.5 176.5,145.5C 176.5,162.167 176.5,178.833 176.5,195.5C 174.833,195.5 173.167,195.5 171.5,195.5C 171.5,178.833 171.5,162.167 171.5,145.5 Z"/></g>
<g><path style="opacity:0.98" fill="#6cb949" d="M 176.5,145.5 C 177.833,145.5 179.167,145.5 180.5,145.5C 180.5,162.167 180.5,178.833 180.5,195.5C 179.167,195.5 177.833,195.5 176.5,195.5C 176.5,178.833 176.5,162.167 176.5,145.5 Z"/></g>
<g><path style="opacity:0.98" fill="#6dbc46" d="M 180.5,145.5 C 181.5,145.5 182.5,145.5 183.5,145.5C 183.5,162.167 183.5,178.833 183.5,195.5C 182.5,195.5 181.5,195.5 180.5,195.5C 180.5,178.833 180.5,162.167 180.5,145.5 Z"/></g>
<g><path style="opacity:0.98" fill="#6ebe43" d="M 183.5,145.5 C 187.5,145.5 191.5,145.5 195.5,145.5C 195.5,162.167 195.5,178.833 195.5,195.5C 191.5,195.5 187.5,195.5 183.5,195.5C 183.5,178.833 183.5,162.167 183.5,145.5 Z"/></g>
<g><path style="opacity:0.985" fill="#3e7681" d="M 283.5,145.5 C 284.833,145.5 286.167,145.5 287.5,145.5C 287.5,162.167 287.5,178.833 287.5,195.5C 286.167,195.5 284.833,195.5 283.5,195.5C 283.5,178.833 283.5,162.167 283.5,145.5 Z"/></g>
<g><path style="opacity:0.985" fill="#40797f" d="M 287.5,145.5 C 296.5,145.5 305.5,145.5 314.5,145.5C 314.5,162.167 314.5,178.833 314.5,195.5C 305.5,195.5 296.5,195.5 287.5,195.5C 287.5,178.833 287.5,162.167 287.5,145.5 Z"/></g>
<g><path style="opacity:0.985" fill="#437d7d" d="M 314.5,145.5 C 316.5,145.5 318.5,145.5 320.5,145.5C 320.5,162.167 320.5,178.833 320.5,195.5C 318.5,195.5 316.5,195.5 314.5,195.5C 314.5,178.833 314.5,162.167 314.5,145.5 Z"/></g>
<g><path style="opacity:0.985" fill="#447d7d" d="M 320.5,145.5 C 321.833,145.5 323.167,145.5 324.5,145.5C 324.5,162.167 324.5,178.833 324.5,195.5C 323.167,195.5 321.833,195.5 320.5,195.5C 320.5,178.833 320.5,162.167 320.5,145.5 Z"/></g>
<g><path style="opacity:0.985" fill="#457e7d" d="M 324.5,145.5 C 326.833,145.5 329.167,145.5 331.5,145.5C 331.5,162.167 331.5,178.833 331.5,195.5C 329.167,195.5 326.833,195.5 324.5,195.5C 324.5,178.833 324.5,162.167 324.5,145.5 Z"/></g>
<g><path style="opacity:0.985" fill="#467f7c" d="M 331.5,145.5 C 332.167,145.5 332.833,145.5 333.5,145.5C 333.5,162.167 333.5,178.833 333.5,195.5C 332.833,195.5 332.167,195.5 331.5,195.5C 331.5,178.833 331.5,162.167 331.5,145.5 Z"/></g>
<g><path style="opacity:0.985" fill="#47817b" d="M 333.5,145.5 C 339.5,145.5 345.5,145.5 351.5,145.5C 351.5,162.167 351.5,178.833 351.5,195.5C 345.5,195.5 339.5,195.5 333.5,195.5C 333.5,178.833 333.5,162.167 333.5,145.5 Z"/></g>
<g><path style="opacity:0.985" fill="#488578" d="M 351.5,145.5 C 356.833,145.5 362.167,145.5 367.5,145.5C 367.5,162.167 367.5,178.833 367.5,195.5C 362.167,195.5 356.833,195.5 351.5,195.5C 351.5,178.833 351.5,162.167 351.5,145.5 Z"/></g>
</svg>
