<?xml version="1.0" encoding="UTF-8"?>
<!DOCTYPE svg PUBLIC "-//W3C//DTD SVG 1.1//EN" "http://www.w3.org/Graphics/SVG/1.1/DTD/svg11.dtd">
<svg xmlns="http://www.w3.org/2000/svg" version="1.1" width="657px" height="197px" style="shape-rendering:geometricPrecision; text-rendering:geometricPrecision; image-rendering:optimizeQuality; fill-rule:evenodd; clip-rule:evenodd" xmlns:xlink="http://www.w3.org/1999/xlink">
<g><path style="opacity:0.97" fill="#ec1c23" d="M -0.5,-0.5 C 4.83333,-0.5 10.1667,-0.5 15.5,-0.5C 15.5,16.1667 15.5,32.8333 15.5,49.5C 10.1667,49.5 4.83333,49.5 -0.5,49.5C -0.5,32.8333 -0.5,16.1667 -0.5,-0.5 Z"/></g>
<g><path style="opacity:0.985" fill="#eb2223" d="M 15.5,-0.5 C 18.8333,-0.5 22.1667,-0.5 25.5,-0.5C 25.5,16.1667 25.5,32.8333 25.5,49.5C 22.1667,49.5 18.8333,49.5 15.5,49.5C 15.5,32.8333 15.5,16.1667 15.5,-0.5 Z"/></g>
<g><path style="opacity:0.985" fill="#e92824" d="M 25.5,-0.5 C 28.8333,-0.5 32.1667,-0.5 35.5,-0.5C 35.5,16.1667 35.5,32.8333 35.5,49.5C 32.1667,49.5 28.8333,49.5 25.5,49.5C 25.5,32.8333 25.5,16.1667 25.5,-0.5 Z"/></g>
<g><path style="opacity:0.985" fill="#e82e24" d="M 35.5,-0.5 C 38.8333,-0.5 42.1667,-0.5 45.5,-0.5C 45.5,16.1667 45.5,32.8333 45.5,49.5C 42.1667,49.5 38.8333,49.5 35.5,49.5C 35.5,32.8333 35.5,16.1667 35.5,-0.5 Z"/></g>
<g><path style="opacity:0.985" fill="#e63524" d="M 45.5,-0.5 C 49.8333,-0.5 54.1667,-0.5 58.5,-0.5C 58.5,16.1667 58.5,32.8333 58.5,49.5C 54.1667,49.5 49.8333,49.5 45.5,49.5C 45.5,32.8333 45.5,16.1667 45.5,-0.5 Z"/></g>
<g><path style="opacity:0.985" fill="#e53a24" d="M 58.5,-0.5 C 60.5,-0.5 62.5,-0.5 64.5,-0.5C 64.5,16.1667 64.5,32.8333 64.5,49.5C 62.5,49.5 60.5,49.5 58.5,49.5C 58.5,32.8333 58.5,16.1667 58.5,-0.5 Z"/></g>
<g><path style="opacity:0.985" fill="#e33d25" d="M 64.5,-0.5 C 66.5,-0.5 68.5,-0.5 70.5,-0.5C 70.5,16.1667 70.5,32.8333 70.5,49.5C 68.5,49.5 66.5,49.5 64.5,49.5C 64.5,32.8333 64.5,16.1667 64.5,-0.5 Z"/></g>
<g><path style="opacity:0.985" fill="#e24225" d="M 70.5,-0.5 C 74.8333,-0.5 79.1667,-0.5 83.5,-0.5C 83.5,16.1667 83.5,32.8333 83.5,49.5C 79.1667,49.5 74.8333,49.5 70.5,49.5C 70.5,32.8333 70.5,16.1667 70.5,-0.5 Z"/></g>
<g><path style="opacity:0.985" fill="#e14626" d="M 83.5,-0.5 C 85.5,-0.5 87.5,-0.5 89.5,-0.5C 89.5,16.1667 89.5,32.8333 89.5,49.5C 87.5,49.5 85.5,49.5 83.5,49.5C 83.5,32.8333 83.5,16.1667 83.5,-0.5 Z"/></g>
<g><path style="opacity:0.985" fill="#df4826" d="M 89.5,-0.5 C 92.5,-0.5 95.5,-0.5 98.5,-0.5C 98.5,16.1667 98.5,32.8333 98.5,49.5C 95.5,49.5 92.5,49.5 89.5,49.5C 89.5,32.8333 89.5,16.1667 89.5,-0.5 Z"/></g>
<g><path style="opacity:0.985" fill="#dd4e27" d="M 98.5,-0.5 C 105.167,-0.5 111.833,-0.5 118.5,-0.5C 118.5,16.1667 118.5,32.8333 118.5,49.5C 111.833,49.5 105.167,49.5 98.5,49.5C 98.5,32.8333 98.5,16.1667 98.5,-0.5 Z"/></g>
<g><path style="opacity:0.985" fill="#db5327" d="M 118.5,-0.5 C 121.167,-0.5 123.833,-0.5 126.5,-0.5C 126.5,16.1667 126.5,32.8333 126.5,49.5C 123.833,49.5 121.167,49.5 118.5,49.5C 118.5,32.8333 118.5,16.1667 118.5,-0.5 Z"/></g>
<g><path style="opacity:0.985" fill="#d95528" d="M 126.5,-0.5 C 129.5,-0.5 132.5,-0.5 135.5,-0.5C 135.5,16.1667 135.5,32.8333 135.5,49.5C 132.5,49.5 129.5,49.5 126.5,49.5C 126.5,32.8333 126.5,16.1667 126.5,-0.5 Z"/></g>
<g><path style="opacity:0.985" fill="#d75a28" d="M 135.5,-0.5 C 141.5,-0.5 147.5,-0.5 153.5,-0.5C 153.5,16.1667 153.5,32.8333 153.5,49.5C 147.5,49.5 141.5,49.5 135.5,49.5C 135.5,32.8333 135.5,16.1667 135.5,-0.5 Z"/></g>
<g><path style="opacity:0.985" fill="#d55f29" d="M 153.5,-0.5 C 158.167,-0.5 162.833,-0.5 167.5,-0.5C 167.5,16.1667 167.5,32.8333 167.5,49.5C 162.833,49.5 158.167,49.5 153.5,49.5C 153.5,32.8333 153.5,16.1667 153.5,-0.5 Z"/></g>
<g><path style="opacity:0.985" fill="#d3622a" d="M 167.5,-0.5 C 169.5,-0.5 171.5,-0.5 173.5,-0.5C 173.5,16.1667 173.5,32.8333 173.5,49.5C 171.5,49.5 169.5,49.5 167.5,49.5C 167.5,32.8333 167.5,16.1667 167.5,-0.5 Z"/></g>
<g><path style="opacity:0.985" fill="#d2662a" d="M 173.5,-0.5 C 181.167,-0.5 188.833,-0.5 196.5,-0.5C 196.5,16.1667 196.5,32.8333 196.5,49.5C 188.833,49.5 181.167,49.5 173.5,49.5C 173.5,32.8333 173.5,16.1667 173.5,-0.5 Z"/></g>
<g><path style="opacity:0.985" fill="#d0692c" d="M 196.5,-0.5 C 197.833,-0.5 199.167,-0.5 200.5,-0.5C 200.5,16.1667 200.5,32.8333 200.5,49.5C 199.167,49.5 197.833,49.5 196.5,49.5C 196.5,32.8333 196.5,16.1667 196.5,-0.5 Z"/></g>
<g><path style="opacity:0.985" fill="#cf6b2c" d="M 200.5,-0.5 C 203.167,-0.5 205.833,-0.5 208.5,-0.5C 208.5,16.1667 208.5,32.8333 208.5,49.5C 205.833,49.5 203.167,49.5 200.5,49.5C 200.5,32.8333 200.5,16.1667 200.5,-0.5 Z"/></g>
<g><path style="opacity:0.985" fill="#cd6e2c" d="M 208.5,-0.5 C 214.5,-0.5 220.5,-0.5 226.5,-0.5C 226.5,16.1667 226.5,32.8333 226.5,49.5C 220.5,49.5 214.5,49.5 208.5,49.5C 208.5,32.8333 208.5,16.1667 208.5,-0.5 Z"/></g>
<g><path style="opacity:0.985" fill="#c9732d" d="M 226.5,-0.5 C 234.5,-0.5 242.5,-0.5 250.5,-0.5C 250.5,16.1667 250.5,32.8333 250.5,49.5C 242.5,49.5 234.5,49.5 226.5,49.5C 226.5,32.8333 226.5,16.1667 226.5,-0.5 Z"/></g>
<g><path style="opacity:0.985" fill="#c7762e" d="M 250.5,-0.5 C 251.833,-0.5 253.167,-0.5 254.5,-0.5C 254.5,16.1667 254.5,32.8333 254.5,49.5C 253.167,49.5 251.833,49.5 250.5,49.5C 250.5,32.8333 250.5,16.1667 250.5,-0.5 Z"/></g>
<g><path style="opacity:0.985" fill="#c5792e" d="M 254.5,-0.5 C 262.5,-0.5 270.5,-0.5 278.5,-0.5C 278.5,16.1667 278.5,32.8333 278.5,49.5C 270.5,49.5 262.5,49.5 254.5,49.5C 254.5,32.8333 254.5,16.1667 254.5,-0.5 Z"/></g>
<g><path style="opacity:0.985" fill="#c27d2f" d="M 278.5,-0.5 C 281.5,-0.5 284.5,-0.5 287.5,-0.5C 287.5,16.1667 287.5,32.8333 287.5,49.5C 284.5,49.5 281.5,49.5 278.5,49.5C 278.5,32.8333 278.5,16.1667 278.5,-0.5 Z"/></g>
<g><path style="opacity:0.989" fill="#bf8030" d="M 287.5,-0.5 C 295.5,-0.5 303.5,-0.5 311.5,-0.5C 311.5,16.1667 311.5,32.8333 311.5,49.5C 303.5,49.5 295.5,49.5 287.5,49.5C 287.5,32.8333 287.5,16.1667 287.5,-0.5 Z"/></g>
<g><path style="opacity:0.99" fill="#bc8430" d="M 311.5,-0.5 C 314.833,-0.5 318.167,-0.5 321.5,-0.5C 321.5,16.1667 321.5,32.8333 321.5,49.5C 318.167,49.5 314.833,49.5 311.5,49.5C 311.5,32.8333 311.5,16.1667 311.5,-0.5 Z"/></g>
<g><path style="opacity:0.99" fill="#b98732" d="M 321.5,-0.5 C 328.167,-0.5 334.833,-0.5 341.5,-0.5C 341.5,16.1667 341.5,32.8333 341.5,49.5C 334.833,49.5 328.167,49.5 321.5,49.5C 321.5,32.8333 321.5,16.1667 321.5,-0.5 Z"/></g>
<g><path style="opacity:0.99" fill="#b78a32" d="M 341.5,-0.5 C 345.5,-0.5 349.5,-0.5 353.5,-0.5C 353.5,16.1667 353.5,32.8333 353.5,49.5C 349.5,49.5 345.5,49.5 341.5,49.5C 341.5,32.8333 341.5,16.1667 341.5,-0.5 Z"/></g>
<g><path style="opacity:0.989" fill="#b48d33" d="M 353.5,-0.5 C 359.833,-0.5 366.167,-0.5 372.5,-0.5C 372.5,16.5 372.5,33.5 372.5,50.5C 366.225,49.582 359.892,49.2487 353.5,49.5C 353.5,32.8333 353.5,16.1667 353.5,-0.5 Z"/></g>
<g><path style="opacity:0.991" fill="#b09135" d="M 372.5,-0.5 C 380.167,-0.5 387.833,-0.5 395.5,-0.5C 395.5,65.1667 395.5,130.833 395.5,196.5C 387.833,196.5 380.167,196.5 372.5,196.5C 372.5,179.167 372.5,161.833 372.5,144.5C 377.833,137.833 377.833,131.167 372.5,124.5C 372.5,106.833 372.5,89.1667 372.5,71.5C 375.893,69.1107 377.227,65.7774 376.5,61.5C 377.109,57.0649 375.776,53.3983 372.5,50.5C 372.5,33.5 372.5,16.5 372.5,-0.5 Z"/></g>
<g><path style="opacity:0.996" fill="#ad9436" d="M 395.5,-0.5 C 399.5,-0.5 403.5,-0.5 407.5,-0.5C 407.5,64.8333 407.5,130.167 407.5,195.5C 406.833,195.5 406.5,195.833 406.5,196.5C 402.833,196.5 399.167,196.5 395.5,196.5C 395.5,130.833 395.5,65.1667 395.5,-0.5 Z"/></g>
<g><path style="opacity:0.973" fill="#aa9737" d="M 407.5,-0.5 C 414.5,-0.5 421.5,-0.5 428.5,-0.5C 428.5,16.1667 428.5,32.8333 428.5,49.5C 426.899,60.1738 425.733,71.1738 425,82.5C 421.77,90.0628 416.27,95.2295 408.5,98C 418.084,100.585 423.918,106.752 426,116.5C 426.667,136.833 426.667,157.167 426,177.5C 423.582,187.419 417.415,193.419 407.5,195.5C 407.5,130.167 407.5,64.8333 407.5,-0.5 Z"/></g>
<g><path style="opacity:0.985" fill="#a69a38" d="M 428.5,-0.5 C 434.167,-0.5 439.833,-0.5 445.5,-0.5C 445.5,16.1667 445.5,32.8333 445.5,49.5C 439.833,49.5 434.167,49.5 428.5,49.5C 428.5,32.8333 428.5,16.1667 428.5,-0.5 Z"/></g>
<g><path style="opacity:0.985" fill="#a49d39" d="M 445.5,-0.5 C 449.5,-0.5 453.5,-0.5 457.5,-0.5C 457.5,16.1667 457.5,32.8333 457.5,49.5C 453.5,49.5 449.5,49.5 445.5,49.5C 445.5,32.8333 445.5,16.1667 445.5,-0.5 Z"/></g>
<g><path style="opacity:0.985" fill="#a0a039" d="M 457.5,-0.5 C 464.5,-0.5 471.5,-0.5 478.5,-0.5C 478.5,16.1667 478.5,32.8333 478.5,49.5C 471.5,49.5 464.5,49.5 457.5,49.5C 457.5,32.8333 457.5,16.1667 457.5,-0.5 Z"/></g>
<g><path style="opacity:0.985" fill="#9ca339" d="M 478.5,-0.5 C 479.833,-0.5 481.167,-0.5 482.5,-0.5C 482.5,16.1667 482.5,32.8333 482.5,49.5C 481.167,49.5 479.833,49.5 478.5,49.5C 478.5,32.8333 478.5,16.1667 478.5,-0.5 Z"/></g>
<g><path style="opacity:0.985" fill="#99a53b" d="M 482.5,-0.5 C 493.167,-0.5 503.833,-0.5 514.5,-0.5C 514.5,16.1667 514.5,32.8333 514.5,49.5C 503.833,49.5 493.167,49.5 482.5,49.5C 482.5,32.8333 482.5,16.1667 482.5,-0.5 Z"/></g>
<g><path style="opacity:0.985" fill="#95a93b" d="M 514.5,-0.5 C 515.167,-0.5 515.833,-0.5 516.5,-0.5C 516.5,16.1667 516.5,32.8333 516.5,49.5C 515.833,49.5 515.167,49.5 514.5,49.5C 514.5,32.8333 514.5,16.1667 514.5,-0.5 Z"/></g>
<g><path style="opacity:0.963" fill="#91ab3d" d="M 516.5,-0.5 C 524.833,-0.5 533.167,-0.5 541.5,-0.5C 541.5,65.1667 541.5,130.833 541.5,196.5C 538.5,196.5 535.5,196.5 532.5,196.5C 532.5,147.5 532.5,98.5 532.5,49.5C 527.167,49.5 521.833,49.5 516.5,49.5C 516.5,32.8333 516.5,16.1667 516.5,-0.5 Z"/></g>
<g><path style="opacity:0.995" fill="#8dad3e" d="M 541.5,-0.5 C 546.167,-0.5 550.833,-0.5 555.5,-0.5C 555.5,65.1667 555.5,130.833 555.5,196.5C 550.833,196.5 546.167,196.5 541.5,196.5C 541.5,130.833 541.5,65.1667 541.5,-0.5 Z"/></g>
<g><path style="opacity:0.995" fill="#8aaf3f" d="M 555.5,-0.5 C 559.167,-0.5 562.833,-0.5 566.5,-0.5C 566.5,65.1667 566.5,130.833 566.5,196.5C 562.833,196.5 559.167,196.5 555.5,196.5C 555.5,130.833 555.5,65.1667 555.5,-0.5 Z"/></g>
<g><path style="opacity:0.984" fill="#86b13f" d="M 566.5,-0.5 C 573.833,-0.5 581.167,-0.5 588.5,-0.5C 588.5,16.1667 588.5,32.8333 588.5,49.5C 586.5,49.5 584.5,49.5 582.5,49.5C 582.5,98.5 582.5,147.5 582.5,196.5C 577.167,196.5 571.833,196.5 566.5,196.5C 566.5,130.833 566.5,65.1667 566.5,-0.5 Z"/></g>
<g><path style="opacity:0.985" fill="#82b441" d="M 588.5,-0.5 C 591.167,-0.5 593.833,-0.5 596.5,-0.5C 596.5,16.1667 596.5,32.8333 596.5,49.5C 593.833,49.5 591.167,49.5 588.5,49.5C 588.5,32.8333 588.5,16.1667 588.5,-0.5 Z"/></g>
<g><path style="opacity:0.985" fill="#7eb741" d="M 596.5,-0.5 C 602.167,-0.5 607.833,-0.5 613.5,-0.5C 613.5,16.1667 613.5,32.8333 613.5,49.5C 607.833,49.5 602.167,49.5 596.5,49.5C 596.5,32.8333 596.5,16.1667 596.5,-0.5 Z"/></g>
<g><path style="opacity:0.985" fill="#79b942" d="M 613.5,-0.5 C 619.167,-0.5 624.833,-0.5 630.5,-0.5C 630.5,16.1667 630.5,32.8333 630.5,49.5C 624.833,49.5 619.167,49.5 613.5,49.5C 613.5,32.8333 613.5,16.1667 613.5,-0.5 Z"/></g>
<g><path style="opacity:0.985" fill="#75bb42" d="M 630.5,-0.5 C 632.167,-0.5 633.833,-0.5 635.5,-0.5C 635.5,16.1667 635.5,32.8333 635.5,49.5C 633.833,49.5 632.167,49.5 630.5,49.5C 630.5,32.8333 630.5,16.1667 630.5,-0.5 Z"/></g>
<g><path style="opacity:0.985" fill="#73bc43" d="M 635.5,-0.5 C 639.833,-0.5 644.167,-0.5 648.5,-0.5C 648.5,16.1667 648.5,32.8333 648.5,49.5C 644.167,49.5 639.833,49.5 635.5,49.5C 635.5,32.8333 635.5,16.1667 635.5,-0.5 Z"/></g>
<g><path style="opacity:0.893" fill="#6fbd44" d="M 648.5,-0.5 C 651.167,-0.5 653.833,-0.5 656.5,-0.5C 656.5,16.1667 656.5,32.8333 656.5,49.5C 653.833,49.5 651.167,49.5 648.5,49.5C 648.5,32.8333 648.5,16.1667 648.5,-0.5 Z"/></g>
<g><path style="opacity:0.984" fill="#b38d33" d="M 372.5,71.5 C 372.5,89.1667 372.5,106.833 372.5,124.5C 366.353,122.688 360.02,122.021 353.5,122.5C 353.5,105.833 353.5,89.1667 353.5,72.5C 359.923,72.7912 366.256,72.4578 372.5,71.5 Z"/></g>
<g><path style="opacity:0.939" fill="#ec1c23" d="M -0.5,72.5 C 1.16667,72.5 2.83333,72.5 4.5,72.5C 4.5,113.833 4.5,155.167 4.5,196.5C 2.83333,196.5 1.16667,196.5 -0.5,196.5C -0.5,155.167 -0.5,113.833 -0.5,72.5 Z"/></g>
<g><path style="opacity:0.988" fill="#eb2223" d="M 4.5,72.5 C 5.5,72.5 6.5,72.5 7.5,72.5C 7.5,113.833 7.5,155.167 7.5,196.5C 6.5,196.5 5.5,196.5 4.5,196.5C 4.5,155.167 4.5,113.833 4.5,72.5 Z"/></g>
<g><path style="opacity:0.988" fill="#ea2824" d="M 7.5,72.5 C 8.5,72.5 9.5,72.5 10.5,72.5C 10.5,113.833 10.5,155.167 10.5,196.5C 9.5,196.5 8.5,196.5 7.5,196.5C 7.5,155.167 7.5,113.833 7.5,72.5 Z"/></g>
<g><path style="opacity:0.988" fill="#e82d24" d="M 10.5,72.5 C 11.5,72.5 12.5,72.5 13.5,72.5C 13.5,113.833 13.5,155.167 13.5,196.5C 12.5,196.5 11.5,196.5 10.5,196.5C 10.5,155.167 10.5,113.833 10.5,72.5 Z"/></g>
<g><path style="opacity:0.988" fill="#e63524" d="M 13.5,72.5 C 14.8333,72.5 16.1667,72.5 17.5,72.5C 17.5,113.833 17.5,155.167 17.5,196.5C 16.1667,196.5 14.8333,196.5 13.5,196.5C 13.5,155.167 13.5,113.833 13.5,72.5 Z"/></g>
<g><path style="opacity:0.988" fill="#e53a24" d="M 17.5,72.5 C 18.1667,72.5 18.8333,72.5 19.5,72.5C 19.5,113.833 19.5,155.167 19.5,196.5C 18.8333,196.5 18.1667,196.5 17.5,196.5C 17.5,155.167 17.5,113.833 17.5,72.5 Z"/></g>
<g><path style="opacity:0.988" fill="#e33d25" d="M 19.5,72.5 C 20.1667,72.5 20.8333,72.5 21.5,72.5C 21.5,113.833 21.5,155.167 21.5,196.5C 20.8333,196.5 20.1667,196.5 19.5,196.5C 19.5,155.167 19.5,113.833 19.5,72.5 Z"/></g>
<g><path style="opacity:0.988" fill="#e24225" d="M 21.5,72.5 C 22.8333,72.5 24.1667,72.5 25.5,72.5C 25.5,113.833 25.5,155.167 25.5,196.5C 24.1667,196.5 22.8333,196.5 21.5,196.5C 21.5,155.167 21.5,113.833 21.5,72.5 Z"/></g>
<g><path style="opacity:0.988" fill="#df4726" d="M 25.5,72.5 C 26.8333,72.5 28.1667,72.5 29.5,72.5C 29.5,113.833 29.5,155.167 29.5,196.5C 28.1667,196.5 26.8333,196.5 25.5,196.5C 25.5,155.167 25.5,113.833 25.5,72.5 Z"/></g>
<g><path style="opacity:0.988" fill="#dd4e27" d="M 29.5,72.5 C 31.5,72.5 33.5,72.5 35.5,72.5C 35.5,113.833 35.5,155.167 35.5,196.5C 33.5,196.5 31.5,196.5 29.5,196.5C 29.5,155.167 29.5,113.833 29.5,72.5 Z"/></g>
<g><path style="opacity:0.988" fill="#db5328" d="M 35.5,72.5 C 36.5,72.5 37.5,72.5 38.5,72.5C 38.5,113.833 38.5,155.167 38.5,196.5C 37.5,196.5 36.5,196.5 35.5,196.5C 35.5,155.167 35.5,113.833 35.5,72.5 Z"/></g>
<g><path style="opacity:0.988" fill="#da5628" d="M 38.5,72.5 C 39.1667,72.5 39.8333,72.5 40.5,72.5C 40.5,113.833 40.5,155.167 40.5,196.5C 39.8333,196.5 39.1667,196.5 38.5,196.5C 38.5,155.167 38.5,113.833 38.5,72.5 Z"/></g>
<g><path style="opacity:0.988" fill="#d85a28" d="M 40.5,72.5 C 42.1667,72.5 43.8333,72.5 45.5,72.5C 45.5,113.833 45.5,155.167 45.5,196.5C 43.8333,196.5 42.1667,196.5 40.5,196.5C 40.5,155.167 40.5,113.833 40.5,72.5 Z"/></g>
<g><path style="opacity:0.967" fill="#d56029" d="M 45.5,72.5 C 47.5,72.5 49.5,72.5 51.5,72.5C 51.5,89.1667 51.5,105.833 51.5,122.5C 50.176,126.107 49.5093,130.107 49.5,134.5C 49.5093,138.893 50.176,142.893 51.5,146.5C 51.5,163.167 51.5,179.833 51.5,196.5C 49.5,196.5 47.5,196.5 45.5,196.5C 45.5,155.167 45.5,113.833 45.5,72.5 Z"/></g>
<g><path style="opacity:0.985" fill="#d2662a" d="M 51.5,72.5 C 53.8333,72.5 56.1667,72.5 58.5,72.5C 58.5,89.1667 58.5,105.833 58.5,122.5C 56.1667,122.5 53.8333,122.5 51.5,122.5C 51.5,105.833 51.5,89.1667 51.5,72.5 Z"/></g>
<g><path style="opacity:0.985" fill="#d0692c" d="M 58.5,72.5 C 59.1667,72.5 59.8333,72.5 60.5,72.5C 60.5,89.1667 60.5,105.833 60.5,122.5C 59.8333,122.5 59.1667,122.5 58.5,122.5C 58.5,105.833 58.5,89.1667 58.5,72.5 Z"/></g>
<g><path style="opacity:0.985" fill="#cf6b2c" d="M 60.5,72.5 C 61.1667,72.5 61.8333,72.5 62.5,72.5C 62.5,89.1667 62.5,105.833 62.5,122.5C 61.8333,122.5 61.1667,122.5 60.5,122.5C 60.5,105.833 60.5,89.1667 60.5,72.5 Z"/></g>
<g><path style="opacity:0.985" fill="#cd6e2c" d="M 62.5,72.5 C 64.1667,72.5 65.8333,72.5 67.5,72.5C 67.5,89.1667 67.5,105.833 67.5,122.5C 65.8333,122.5 64.1667,122.5 62.5,122.5C 62.5,105.833 62.5,89.1667 62.5,72.5 Z"/></g>
<g><path style="opacity:0.985" fill="#c9732d" d="M 67.5,72.5 C 69.8333,72.5 72.1667,72.5 74.5,72.5C 74.5,89.1667 74.5,105.833 74.5,122.5C 72.1667,122.5 69.8333,122.5 67.5,122.5C 67.5,105.833 67.5,89.1667 67.5,72.5 Z"/></g>
<g><path style="opacity:0.985" fill="#c7762e" d="M 74.5,72.5 C 75.1667,72.5 75.8333,72.5 76.5,72.5C 76.5,89.1667 76.5,105.833 76.5,122.5C 75.8333,122.5 75.1667,122.5 74.5,122.5C 74.5,105.833 74.5,89.1667 74.5,72.5 Z"/></g>
<g><path style="opacity:0.985" fill="#c5792e" d="M 76.5,72.5 C 78.8333,72.5 81.1667,72.5 83.5,72.5C 83.5,89.1667 83.5,105.833 83.5,122.5C 81.1667,122.5 78.8333,122.5 76.5,122.5C 76.5,105.833 76.5,89.1667 76.5,72.5 Z"/></g>
<g><path style="opacity:0.985" fill="#c27d2f" d="M 83.5,72.5 C 84.1667,72.5 84.8333,72.5 85.5,72.5C 85.5,89.1667 85.5,105.833 85.5,122.5C 84.8333,122.5 84.1667,122.5 83.5,122.5C 83.5,105.833 83.5,89.1667 83.5,72.5 Z"/></g>
<g><path style="opacity:0.985" fill="#bf8030" d="M 85.5,72.5 C 88.1667,72.5 90.8333,72.5 93.5,72.5C 93.5,89.1667 93.5,105.833 93.5,122.5C 90.8333,122.5 88.1667,122.5 85.5,122.5C 85.5,105.833 85.5,89.1667 85.5,72.5 Z"/></g>
<g><path style="opacity:0.985" fill="#bc8430" d="M 93.5,72.5 C 94.5,72.5 95.5,72.5 96.5,72.5C 96.5,89.1667 96.5,105.833 96.5,122.5C 95.5,122.5 94.5,122.5 93.5,122.5C 93.5,105.833 93.5,89.1667 93.5,72.5 Z"/></g>
<g><path style="opacity:0.985" fill="#b98732" d="M 96.5,72.5 C 98.5,72.5 100.5,72.5 102.5,72.5C 102.5,89.1667 102.5,105.833 102.5,122.5C 100.5,122.5 98.5,122.5 96.5,122.5C 96.5,105.833 96.5,89.1667 96.5,72.5 Z"/></g>
<g><path style="opacity:0.985" fill="#b78a32" d="M 102.5,72.5 C 103.5,72.5 104.5,72.5 105.5,72.5C 105.5,89.1667 105.5,105.833 105.5,122.5C 104.5,122.5 103.5,122.5 102.5,122.5C 102.5,105.833 102.5,89.1667 102.5,72.5 Z"/></g>
<g><path style="opacity:0.985" fill="#b38d34" d="M 105.5,72.5 C 107.833,72.5 110.167,72.5 112.5,72.5C 112.5,89.1667 112.5,105.833 112.5,122.5C 110.167,122.5 107.833,122.5 105.5,122.5C 105.5,105.833 105.5,89.1667 105.5,72.5 Z"/></g>
<g><path style="opacity:0.985" fill="#b09135" d="M 112.5,72.5 C 114.5,72.5 116.5,72.5 118.5,72.5C 118.5,89.1667 118.5,105.833 118.5,122.5C 116.5,122.5 114.5,122.5 112.5,122.5C 112.5,105.833 112.5,89.1667 112.5,72.5 Z"/></g>
<g><path style="opacity:0.985" fill="#ad9436" d="M 118.5,72.5 C 119.5,72.5 120.5,72.5 121.5,72.5C 121.5,89.1667 121.5,105.833 121.5,122.5C 120.5,122.5 119.5,122.5 118.5,122.5C 118.5,105.833 118.5,89.1667 118.5,72.5 Z"/></g>
<g><path style="opacity:0.985" fill="#aa9737" d="M 121.5,72.5 C 123.833,72.5 126.167,72.5 128.5,72.5C 128.5,89.1667 128.5,105.833 128.5,122.5C 126.167,122.5 123.833,122.5 121.5,122.5C 121.5,105.833 121.5,89.1667 121.5,72.5 Z"/></g>
<g><path style="opacity:0.985" fill="#a69b37" d="M 128.5,72.5 C 130.167,72.5 131.833,72.5 133.5,72.5C 133.5,89.1667 133.5,105.833 133.5,122.5C 131.833,122.5 130.167,122.5 128.5,122.5C 128.5,105.833 128.5,89.1667 128.5,72.5 Z"/></g>
<g><path style="opacity:0.985" fill="#a49d38" d="M 133.5,72.5 C 134.5,72.5 135.5,72.5 136.5,72.5C 136.5,89.1667 136.5,105.833 136.5,122.5C 135.5,122.5 134.5,122.5 133.5,122.5C 133.5,105.833 133.5,89.1667 133.5,72.5 Z"/></g>
<g><path style="opacity:0.985" fill="#9fa039" d="M 136.5,72.5 C 139.167,72.5 141.833,72.5 144.5,72.5C 144.5,89.1667 144.5,105.833 144.5,122.5C 141.833,122.5 139.167,122.5 136.5,122.5C 136.5,105.833 136.5,89.1667 136.5,72.5 Z"/></g>
<g><path style="opacity:0.985" fill="#99a53b" d="M 144.5,72.5 C 147.5,72.5 150.5,72.5 153.5,72.5C 153.5,89.1667 153.5,105.833 153.5,122.5C 150.5,122.5 147.5,122.5 144.5,122.5C 144.5,105.833 144.5,89.1667 144.5,72.5 Z"/></g>
<g><path style="opacity:0.985" fill="#92aa3c" d="M 153.5,72.5 C 156.167,72.5 158.833,72.5 161.5,72.5C 161.5,89.1667 161.5,105.833 161.5,122.5C 158.833,122.5 156.167,122.5 153.5,122.5C 153.5,105.833 153.5,89.1667 153.5,72.5 Z"/></g>
<g><path style="opacity:0.985" fill="#8dad3e" d="M 161.5,72.5 C 163.167,72.5 164.833,72.5 166.5,72.5C 166.5,89.1667 166.5,105.833 166.5,122.5C 164.833,122.5 163.167,122.5 161.5,122.5C 161.5,105.833 161.5,89.1667 161.5,72.5 Z"/></g>
<g><path style="opacity:0.985" fill="#8aaf3f" d="M 166.5,72.5 C 167.5,72.5 168.5,72.5 169.5,72.5C 169.5,89.1667 169.5,105.833 169.5,122.5C 168.5,122.5 167.5,122.5 166.5,122.5C 166.5,105.833 166.5,89.1667 166.5,72.5 Z"/></g>
<g><path style="opacity:0.985" fill="#86b23f" d="M 169.5,72.5 C 171.5,72.5 173.5,72.5 175.5,72.5C 175.5,89.1667 175.5,105.833 175.5,122.5C 173.5,122.5 171.5,122.5 169.5,122.5C 169.5,105.833 169.5,89.1667 169.5,72.5 Z"/></g>
<g><path style="opacity:0.985" fill="#82b441" d="M 175.5,72.5 C 176.5,72.5 177.5,72.5 178.5,72.5C 178.5,89.1667 178.5,105.833 178.5,122.5C 177.5,122.5 176.5,122.5 175.5,122.5C 175.5,105.833 175.5,89.1667 175.5,72.5 Z"/></g>
<g><path style="opacity:0.985" fill="#7eb741" d="M 178.5,72.5 C 180.167,72.5 181.833,72.5 183.5,72.5C 183.5,89.1667 183.5,105.833 183.5,122.5C 181.833,122.5 180.167,122.5 178.5,122.5C 178.5,105.833 178.5,89.1667 178.5,72.5 Z"/></g>
<g><path style="opacity:0.985" fill="#79b942" d="M 183.5,72.5 C 185.167,72.5 186.833,72.5 188.5,72.5C 188.5,89.1667 188.5,105.833 188.5,122.5C 186.833,122.5 185.167,122.5 183.5,122.5C 183.5,105.833 183.5,89.1667 183.5,72.5 Z"/></g>
<g><path style="opacity:0.985" fill="#75bb42" d="M 188.5,72.5 C 189.167,72.5 189.833,72.5 190.5,72.5C 190.5,89.1667 190.5,105.833 190.5,122.5C 189.833,122.5 189.167,122.5 188.5,122.5C 188.5,105.833 188.5,89.1667 188.5,72.5 Z"/></g>
<g><path style="opacity:0.985" fill="#73bc43" d="M 190.5,72.5 C 191.5,72.5 192.5,72.5 193.5,72.5C 193.5,89.1667 193.5,105.833 193.5,122.5C 192.5,122.5 191.5,122.5 190.5,122.5C 190.5,105.833 190.5,89.1667 190.5,72.5 Z"/></g>
<g><path style="opacity:0.739" fill="#6fbd44" d="M 193.5,72.5 C 194.5,72.5 195.5,72.5 196.5,72.5C 196.5,89.1667 196.5,105.833 196.5,122.5C 195.5,122.5 194.5,122.5 193.5,122.5C 193.5,105.833 193.5,89.1667 193.5,72.5 Z"/></g>
<g><path style="opacity:0.968" fill="#c9732d" d="M 250.5,72.5 C 250.5,113.833 250.5,155.167 250.5,196.5C 243.5,196.5 236.5,196.5 229.5,196.5C 229.5,155.167 229.5,113.833 229.5,72.5C 236.5,72.5 243.5,72.5 250.5,72.5 Z"/></g>
<g><path style="opacity:0.992" fill="#c7762e" d="M 250.5,72.5 C 251.833,72.5 253.167,72.5 254.5,72.5C 254.5,113.833 254.5,155.167 254.5,196.5C 253.167,196.5 251.833,196.5 250.5,196.5C 250.5,155.167 250.5,113.833 250.5,72.5 Z"/></g>
<g><path style="opacity:0.992" fill="#c5792e" d="M 254.5,72.5 C 262.5,72.5 270.5,72.5 278.5,72.5C 278.5,113.833 278.5,155.167 278.5,196.5C 270.5,196.5 262.5,196.5 254.5,196.5C 254.5,155.167 254.5,113.833 254.5,72.5 Z"/></g>
<g><path style="opacity:0.986" fill="#c27d2f" d="M 278.5,72.5 C 281.5,72.5 284.5,72.5 287.5,72.5C 287.5,89.1667 287.5,105.833 287.5,122.5C 284.833,122.5 282.167,122.5 279.5,122.5C 279.5,130.5 279.5,138.5 279.5,146.5C 282.167,146.5 284.833,146.5 287.5,146.5C 287.5,163.167 287.5,179.833 287.5,196.5C 284.5,196.5 281.5,196.5 278.5,196.5C 278.5,155.167 278.5,113.833 278.5,72.5 Z"/></g>
<g><path style="opacity:0.985" fill="#bf8030" d="M 287.5,72.5 C 295.5,72.5 303.5,72.5 311.5,72.5C 311.5,89.1667 311.5,105.833 311.5,122.5C 303.5,122.5 295.5,122.5 287.5,122.5C 287.5,105.833 287.5,89.1667 287.5,72.5 Z"/></g>
<g><path style="opacity:0.985" fill="#bc8430" d="M 311.5,72.5 C 314.833,72.5 318.167,72.5 321.5,72.5C 321.5,89.1667 321.5,105.833 321.5,122.5C 318.167,122.5 314.833,122.5 311.5,122.5C 311.5,105.833 311.5,89.1667 311.5,72.5 Z"/></g>
<g><path style="opacity:0.985" fill="#b98732" d="M 321.5,72.5 C 328.167,72.5 334.833,72.5 341.5,72.5C 341.5,89.1667 341.5,105.833 341.5,122.5C 334.833,122.5 328.167,122.5 321.5,122.5C 321.5,105.833 321.5,89.1667 321.5,72.5 Z"/></g>
<g><path style="opacity:0.985" fill="#b78a32" d="M 341.5,72.5 C 345.5,72.5 349.5,72.5 353.5,72.5C 353.5,89.1667 353.5,105.833 353.5,122.5C 349.5,122.5 345.5,122.5 341.5,122.5C 341.5,105.833 341.5,89.1667 341.5,72.5 Z"/></g>
<g><path style="opacity:0.984" fill="#b38d33" d="M 372.5,144.5 C 372.5,161.833 372.5,179.167 372.5,196.5C 366.167,196.5 359.833,196.5 353.5,196.5C 353.5,179.833 353.5,163.167 353.5,146.5C 360.02,146.979 366.353,146.312 372.5,144.5 Z"/></g>
<g><path style="opacity:0.985" fill="#d2662a" d="M 51.5,146.5 C 53.8333,146.5 56.1667,146.5 58.5,146.5C 58.5,163.167 58.5,179.833 58.5,196.5C 56.1667,196.5 53.8333,196.5 51.5,196.5C 51.5,179.833 51.5,163.167 51.5,146.5 Z"/></g>
<g><path style="opacity:0.985" fill="#d0692c" d="M 58.5,146.5 C 59.1667,146.5 59.8333,146.5 60.5,146.5C 60.5,163.167 60.5,179.833 60.5,196.5C 59.8333,196.5 59.1667,196.5 58.5,196.5C 58.5,179.833 58.5,163.167 58.5,146.5 Z"/></g>
<g><path style="opacity:0.985" fill="#cf6b2c" d="M 60.5,146.5 C 61.1667,146.5 61.8333,146.5 62.5,146.5C 62.5,163.167 62.5,179.833 62.5,196.5C 61.8333,196.5 61.1667,196.5 60.5,196.5C 60.5,179.833 60.5,163.167 60.5,146.5 Z"/></g>
<g><path style="opacity:0.985" fill="#cd6e2c" d="M 62.5,146.5 C 64.1667,146.5 65.8333,146.5 67.5,146.5C 67.5,163.167 67.5,179.833 67.5,196.5C 65.8333,196.5 64.1667,196.5 62.5,196.5C 62.5,179.833 62.5,163.167 62.5,146.5 Z"/></g>
<g><path style="opacity:0.985" fill="#c9732d" d="M 67.5,146.5 C 69.8333,146.5 72.1667,146.5 74.5,146.5C 74.5,163.167 74.5,179.833 74.5,196.5C 72.1667,196.5 69.8333,196.5 67.5,196.5C 67.5,179.833 67.5,163.167 67.5,146.5 Z"/></g>
<g><path style="opacity:0.985" fill="#c7762e" d="M 74.5,146.5 C 75.1667,146.5 75.8333,146.5 76.5,146.5C 76.5,163.167 76.5,179.833 76.5,196.5C 75.8333,196.5 75.1667,196.5 74.5,196.5C 74.5,179.833 74.5,163.167 74.5,146.5 Z"/></g>
<g><path style="opacity:0.985" fill="#c5792e" d="M 76.5,146.5 C 78.8333,146.5 81.1667,146.5 83.5,146.5C 83.5,163.167 83.5,179.833 83.5,196.5C 81.1667,196.5 78.8333,196.5 76.5,196.5C 76.5,179.833 76.5,163.167 76.5,146.5 Z"/></g>
<g><path style="opacity:0.985" fill="#c27d2f" d="M 83.5,146.5 C 84.1667,146.5 84.8333,146.5 85.5,146.5C 85.5,163.167 85.5,179.833 85.5,196.5C 84.8333,196.5 84.1667,196.5 83.5,196.5C 83.5,179.833 83.5,163.167 83.5,146.5 Z"/></g>
<g><path style="opacity:0.985" fill="#bf8030" d="M 85.5,146.5 C 88.1667,146.5 90.8333,146.5 93.5,146.5C 93.5,163.167 93.5,179.833 93.5,196.5C 90.8333,196.5 88.1667,196.5 85.5,196.5C 85.5,179.833 85.5,163.167 85.5,146.5 Z"/></g>
<g><path style="opacity:0.985" fill="#bc8430" d="M 93.5,146.5 C 94.5,146.5 95.5,146.5 96.5,146.5C 96.5,163.167 96.5,179.833 96.5,196.5C 95.5,196.5 94.5,196.5 93.5,196.5C 93.5,179.833 93.5,163.167 93.5,146.5 Z"/></g>
<g><path style="opacity:0.985" fill="#b98732" d="M 96.5,146.5 C 98.5,146.5 100.5,146.5 102.5,146.5C 102.5,163.167 102.5,179.833 102.5,196.5C 100.5,196.5 98.5,196.5 96.5,196.5C 96.5,179.833 96.5,163.167 96.5,146.5 Z"/></g>
<g><path style="opacity:0.985" fill="#b78a32" d="M 102.5,146.5 C 103.5,146.5 104.5,146.5 105.5,146.5C 105.5,163.167 105.5,179.833 105.5,196.5C 104.5,196.5 103.5,196.5 102.5,196.5C 102.5,179.833 102.5,163.167 102.5,146.5 Z"/></g>
<g><path style="opacity:0.985" fill="#b38d34" d="M 105.5,146.5 C 107.833,146.5 110.167,146.5 112.5,146.5C 112.5,163.167 112.5,179.833 112.5,196.5C 110.167,196.5 107.833,196.5 105.5,196.5C 105.5,179.833 105.5,163.167 105.5,146.5 Z"/></g>
<g><path style="opacity:0.985" fill="#b09135" d="M 112.5,146.5 C 114.5,146.5 116.5,146.5 118.5,146.5C 118.5,163.167 118.5,179.833 118.5,196.5C 116.5,196.5 114.5,196.5 112.5,196.5C 112.5,179.833 112.5,163.167 112.5,146.5 Z"/></g>
<g><path style="opacity:0.985" fill="#ad9436" d="M 118.5,146.5 C 119.5,146.5 120.5,146.5 121.5,146.5C 121.5,163.167 121.5,179.833 121.5,196.5C 120.5,196.5 119.5,196.5 118.5,196.5C 118.5,179.833 118.5,163.167 118.5,146.5 Z"/></g>
<g><path style="opacity:0.985" fill="#aa9737" d="M 121.5,146.5 C 123.833,146.5 126.167,146.5 128.5,146.5C 128.5,163.167 128.5,179.833 128.5,196.5C 126.167,196.5 123.833,196.5 121.5,196.5C 121.5,179.833 121.5,163.167 121.5,146.5 Z"/></g>
<g><path style="opacity:0.985" fill="#a69b37" d="M 128.5,146.5 C 130.167,146.5 131.833,146.5 133.5,146.5C 133.5,163.167 133.5,179.833 133.5,196.5C 131.833,196.5 130.167,196.5 128.5,196.5C 128.5,179.833 128.5,163.167 128.5,146.5 Z"/></g>
<g><path style="opacity:0.985" fill="#a49d38" d="M 133.5,146.5 C 134.5,146.5 135.5,146.5 136.5,146.5C 136.5,163.167 136.5,179.833 136.5,196.5C 135.5,196.5 134.5,196.5 133.5,196.5C 133.5,179.833 133.5,163.167 133.5,146.5 Z"/></g>
<g><path style="opacity:0.985" fill="#9fa039" d="M 136.5,146.5 C 139.167,146.5 141.833,146.5 144.5,146.5C 144.5,163.167 144.5,179.833 144.5,196.5C 141.833,196.5 139.167,196.5 136.5,196.5C 136.5,179.833 136.5,163.167 136.5,146.5 Z"/></g>
<g><path style="opacity:0.985" fill="#99a53b" d="M 144.5,146.5 C 147.5,146.5 150.5,146.5 153.5,146.5C 153.5,163.167 153.5,179.833 153.5,196.5C 150.5,196.5 147.5,196.5 144.5,196.5C 144.5,179.833 144.5,163.167 144.5,146.5 Z"/></g>
<g><path style="opacity:0.985" fill="#92aa3c" d="M 153.5,146.5 C 156.167,146.5 158.833,146.5 161.5,146.5C 161.5,163.167 161.5,179.833 161.5,196.5C 158.833,196.5 156.167,196.5 153.5,196.5C 153.5,179.833 153.5,163.167 153.5,146.5 Z"/></g>
<g><path style="opacity:0.985" fill="#8dad3e" d="M 161.5,146.5 C 163.167,146.5 164.833,146.5 166.5,146.5C 166.5,163.167 166.5,179.833 166.5,196.5C 164.833,196.5 163.167,196.5 161.5,196.5C 161.5,179.833 161.5,163.167 161.5,146.5 Z"/></g>
<g><path style="opacity:0.985" fill="#8aaf3f" d="M 166.5,146.5 C 167.5,146.5 168.5,146.5 169.5,146.5C 169.5,163.167 169.5,179.833 169.5,196.5C 168.5,196.5 167.5,196.5 166.5,196.5C 166.5,179.833 166.5,163.167 166.5,146.5 Z"/></g>
<g><path style="opacity:0.985" fill="#86b23f" d="M 169.5,146.5 C 171.5,146.5 173.5,146.5 175.5,146.5C 175.5,163.167 175.5,179.833 175.5,196.5C 173.5,196.5 171.5,196.5 169.5,196.5C 169.5,179.833 169.5,163.167 169.5,146.5 Z"/></g>
<g><path style="opacity:0.985" fill="#82b441" d="M 175.5,146.5 C 176.5,146.5 177.5,146.5 178.5,146.5C 178.5,163.167 178.5,179.833 178.5,196.5C 177.5,196.5 176.5,196.5 175.5,196.5C 175.5,179.833 175.5,163.167 175.5,146.5 Z"/></g>
<g><path style="opacity:0.985" fill="#7eb741" d="M 178.5,146.5 C 180.167,146.5 181.833,146.5 183.5,146.5C 183.5,163.167 183.5,179.833 183.5,196.5C 181.833,196.5 180.167,196.5 178.5,196.5C 178.5,179.833 178.5,163.167 178.5,146.5 Z"/></g>
<g><path style="opacity:0.985" fill="#79b942" d="M 183.5,146.5 C 185.167,146.5 186.833,146.5 188.5,146.5C 188.5,163.167 188.5,179.833 188.5,196.5C 186.833,196.5 185.167,196.5 183.5,196.5C 183.5,179.833 183.5,163.167 183.5,146.5 Z"/></g>
<g><path style="opacity:0.985" fill="#75bb42" d="M 188.5,146.5 C 189.167,146.5 189.833,146.5 190.5,146.5C 190.5,163.167 190.5,179.833 190.5,196.5C 189.833,196.5 189.167,196.5 188.5,196.5C 188.5,179.833 188.5,163.167 188.5,146.5 Z"/></g>
<g><path style="opacity:0.985" fill="#73bc43" d="M 190.5,146.5 C 191.5,146.5 192.5,146.5 193.5,146.5C 193.5,163.167 193.5,179.833 193.5,196.5C 192.5,196.5 191.5,196.5 190.5,196.5C 190.5,179.833 190.5,163.167 190.5,146.5 Z"/></g>
<g><path style="opacity:0.739" fill="#6fbd44" d="M 193.5,146.5 C 194.5,146.5 195.5,146.5 196.5,146.5C 196.5,163.167 196.5,179.833 196.5,196.5C 195.5,196.5 194.5,196.5 193.5,196.5C 193.5,179.833 193.5,163.167 193.5,146.5 Z"/></g>
<g><path style="opacity:0.985" fill="#bf8030" d="M 287.5,146.5 C 295.5,146.5 303.5,146.5 311.5,146.5C 311.5,163.167 311.5,179.833 311.5,196.5C 303.5,196.5 295.5,196.5 287.5,196.5C 287.5,179.833 287.5,163.167 287.5,146.5 Z"/></g>
<g><path style="opacity:0.985" fill="#bc8430" d="M 311.5,146.5 C 314.833,146.5 318.167,146.5 321.5,146.5C 321.5,163.167 321.5,179.833 321.5,196.5C 318.167,196.5 314.833,196.5 311.5,196.5C 311.5,179.833 311.5,163.167 311.5,146.5 Z"/></g>
<g><path style="opacity:0.985" fill="#b98732" d="M 321.5,146.5 C 328.167,146.5 334.833,146.5 341.5,146.5C 341.5,163.167 341.5,179.833 341.5,196.5C 334.833,196.5 328.167,196.5 321.5,196.5C 321.5,179.833 321.5,163.167 321.5,146.5 Z"/></g>
<g><path style="opacity:0.985" fill="#b78a32" d="M 341.5,146.5 C 345.5,146.5 349.5,146.5 353.5,146.5C 353.5,163.167 353.5,179.833 353.5,196.5C 349.5,196.5 345.5,196.5 341.5,196.5C 341.5,179.833 341.5,163.167 341.5,146.5 Z"/></g>
</svg>
