<?xml version="1.0" encoding="UTF-8"?>
<!DOCTYPE svg PUBLIC "-//W3C//DTD SVG 1.1//EN" "http://www.w3.org/Graphics/SVG/1.1/DTD/svg11.dtd">
<svg xmlns="http://www.w3.org/2000/svg" version="1.1" width="393px" height="394px" style="shape-rendering:geometricPrecision; text-rendering:geometricPrecision; image-rendering:optimizeQuality; fill-rule:evenodd; clip-rule:evenodd" xmlns:xlink="http://www.w3.org/1999/xlink">
<g><path style="opacity:0.979" fill="#a53659" d="M 175.5,-0.5 C 176.167,-0.5 176.833,-0.5 177.5,-0.5C 177.5,12.1667 177.5,24.8333 177.5,37.5C 175.283,38.3686 172.95,38.702 170.5,38.5C 170.5,25.8333 170.5,13.1667 170.5,0.5C 172.415,0.784479 174.081,0.451145 175.5,-0.5 Z"/></g>
<g><path style="opacity:0.979" fill="#a1375c" d="M 177.5,-0.5 C 178.833,-0.5 180.167,-0.5 181.5,-0.5C 181.5,12.1667 181.5,24.8333 181.5,37.5C 180.167,37.5 178.833,37.5 177.5,37.5C 177.5,24.8333 177.5,12.1667 177.5,-0.5 Z"/></g>
<g><path style="opacity:0.978" fill="#9e375e" d="M 181.5,-0.5 C 182.5,-0.5 183.5,-0.5 184.5,-0.5C 184.5,12.1667 184.5,24.8333 184.5,37.5C 183.5,37.5 182.5,37.5 181.5,37.5C 181.5,24.8333 181.5,12.1667 181.5,-0.5 Z"/></g>
<g><path style="opacity:0.988" fill="#993760" d="M 184.5,-0.5 C 187.167,-0.5 189.833,-0.5 192.5,-0.5C 192.5,11.8333 192.5,24.1667 192.5,36.5C 189.833,36.8333 187.167,37.1667 184.5,37.5C 184.5,24.8333 184.5,12.1667 184.5,-0.5 Z"/></g>
<g><path style="opacity:1" fill="#943763" d="M 192.5,-0.5 C 193.167,-0.5 193.833,-0.5 194.5,-0.5C 194.5,11.8333 194.5,24.1667 194.5,36.5C 193.833,36.5 193.167,36.5 192.5,36.5C 192.5,24.1667 192.5,11.8333 192.5,-0.5 Z"/></g>
<g><path style="opacity:1" fill="#913764" d="M 194.5,-0.5 C 196.167,-0.5 197.833,-0.5 199.5,-0.5C 199.5,11.8333 199.5,24.1667 199.5,36.5C 197.833,36.5 196.167,36.5 194.5,36.5C 194.5,24.1667 194.5,11.8333 194.5,-0.5 Z"/></g>
<g><path style="opacity:0.988" fill="#8c3868" d="M 199.5,-0.5 C 202.167,-0.5 204.833,-0.5 207.5,-0.5C 207.5,12.1667 207.5,24.8333 207.5,37.5C 204.833,37.1667 202.167,36.8333 199.5,36.5C 199.5,24.1667 199.5,11.8333 199.5,-0.5 Z"/></g>
<g><path style="opacity:0.98" fill="#86396b" d="M 207.5,-0.5 C 209.833,-0.5 212.167,-0.5 214.5,-0.5C 214.5,12.1667 214.5,24.8333 214.5,37.5C 212.167,37.5 209.833,37.5 207.5,37.5C 207.5,24.8333 207.5,12.1667 207.5,-0.5 Z"/></g>
<g><path style="opacity:0.98" fill="#80396e" d="M 214.5,-0.5 C 214.833,-0.5 215.167,-0.5 215.5,-0.5C 217.265,0.461384 219.265,0.794717 221.5,0.5C 221.5,13.1667 221.5,25.8333 221.5,38.5C 218.941,38.8016 216.607,38.4682 214.5,37.5C 214.5,24.8333 214.5,12.1667 214.5,-0.5 Z"/></g>
<g><path style="opacity:0.978" fill="#aa3656" d="M 170.5,0.5 C 170.5,13.1667 170.5,25.8333 170.5,38.5C 168.167,39.1667 165.833,39.8333 163.5,40.5C 163.5,27.5 163.5,14.5 163.5,1.5C 165.861,1.32588 168.194,0.992551 170.5,0.5 Z"/></g>
<g><path style="opacity:0.962" fill="#7c3970" d="M 221.5,0.5 C 222.167,0.5 222.833,0.5 223.5,0.5C 223.5,13.5 223.5,26.5 223.5,39.5C 222.508,39.6716 221.842,39.3382 221.5,38.5C 221.5,25.8333 221.5,13.1667 221.5,0.5 Z"/></g>
<g><path style="opacity:0.975" fill="#793973" d="M 223.5,0.5 C 225.379,1.34141 227.379,1.67474 229.5,1.5C 229.5,14.5 229.5,27.5 229.5,40.5C 227.5,40.1667 225.5,39.8333 223.5,39.5C 223.5,26.5 223.5,13.5 223.5,0.5 Z"/></g>
<g><path style="opacity:0.975" fill="#b03652" d="M 163.5,1.5 C 163.5,14.5 163.5,27.5 163.5,40.5C 161.784,40.6287 160.117,40.962 158.5,41.5C 158.5,28.5 158.5,15.5 158.5,2.5C 160.216,2.37133 161.883,2.038 163.5,1.5 Z"/></g>
<g><path style="opacity:0.978" fill="#753975" d="M 229.5,1.5 C 230.708,2.23411 232.041,2.56745 233.5,2.5C 233.5,15.5 233.5,28.5 233.5,41.5C 232.167,41.1667 230.833,40.8333 229.5,40.5C 229.5,27.5 229.5,14.5 229.5,1.5 Z"/></g>
<g><path style="opacity:0.793" fill="#b43450" d="M 158.5,2.5 C 158.5,15.5 158.5,28.5 158.5,41.5C 157.178,41.33 156.011,41.6634 155,42.5C 154.333,29.5 154.333,16.5 155,3.5C 156.011,2.66337 157.178,2.33003 158.5,2.5 Z"/></g>
<g><path style="opacity:0.976" fill="#723a77" d="M 233.5,2.5 C 234.609,2.55688 235.609,2.89022 236.5,3.5C 236.5,16.5 236.5,29.5 236.5,42.5C 235.609,41.8902 234.609,41.5569 233.5,41.5C 233.5,28.5 233.5,15.5 233.5,2.5 Z"/></g>
<g><path style="opacity:0.973" fill="#6d3a79" d="M 236.5,3.5 C 238.861,3.67412 241.194,4.00745 243.5,4.5C 243.5,17.8333 243.5,31.1667 243.5,44.5C 241.228,43.6814 238.894,43.0147 236.5,42.5C 236.5,29.5 236.5,16.5 236.5,3.5 Z"/></g>
<g><path style="opacity:0.974" fill="#673a7b" d="M 243.5,4.5 C 244.995,4.98869 246.329,5.65536 247.5,6.5C 247.5,19.5 247.5,32.5 247.5,45.5C 246.167,45.1667 244.833,44.8333 243.5,44.5C 243.5,31.1667 243.5,17.8333 243.5,4.5 Z"/></g>
<g><path style="opacity:0.985" fill="#643a7d" d="M 247.5,6.5 C 248.167,6.5 248.833,6.5 249.5,6.5C 249.5,19.8333 249.5,33.1667 249.5,46.5C 248.833,46.1667 248.167,45.8333 247.5,45.5C 247.5,32.5 247.5,19.5 247.5,6.5 Z"/></g>
<g><path style="opacity:0.979" fill="#603a7f" d="M 249.5,6.5 C 251.833,7.16667 254.167,7.83333 256.5,8.5C 256.5,21.8333 256.5,35.1667 256.5,48.5C 254.079,48.1218 251.746,47.4552 249.5,46.5C 249.5,33.1667 249.5,19.8333 249.5,6.5 Z"/></g>
<g><path style="opacity:0.976" fill="#5b3a82" d="M 256.5,8.5 C 257.995,8.98869 259.329,9.65536 260.5,10.5C 260.5,23.8333 260.5,37.1667 260.5,50.5C 258.847,50.3404 257.514,49.6737 256.5,48.5C 256.5,35.1667 256.5,21.8333 256.5,8.5 Z"/></g>
<g><path style="opacity:0.978" fill="#583b84" d="M 260.5,10.5 C 261.167,10.5 261.833,10.5 262.5,10.5C 262.5,24.1667 262.5,37.8333 262.5,51.5C 261.508,51.6716 260.842,51.3382 260.5,50.5C 260.5,37.1667 260.5,23.8333 260.5,10.5 Z"/></g>
<g><path style="opacity:0.967" fill="#543a85" d="M 262.5,10.5 C 264.167,11.1667 265.833,11.8333 267.5,12.5C 267.5,26.5 267.5,40.5 267.5,54.5C 265.632,53.7368 263.965,52.7368 262.5,51.5C 262.5,37.8333 262.5,24.1667 262.5,10.5 Z"/></g>
<g><path style="opacity:0.995" fill="#d12f3b" d="M 125.5,11.5 C 125.5,99.8333 125.5,188.167 125.5,276.5C 122.833,274.5 120.5,272.167 118.5,269.5C 118.5,184.5 118.5,99.5 118.5,14.5C 120.915,13.6948 123.249,12.6948 125.5,11.5 Z"/></g>
<g><path style="opacity:0.97" fill="#4e3a87" d="M 267.5,12.5 C 269.75,13.1302 271.75,14.1302 273.5,15.5C 273.5,29.5 273.5,43.5 273.5,57.5C 271.5,56.5 269.5,55.5 267.5,54.5C 267.5,40.5 267.5,26.5 267.5,12.5 Z"/></g>
<g><path style="opacity:0.994" fill="#d72e36" d="M 118.5,14.5 C 118.5,99.5 118.5,184.5 118.5,269.5C 115.45,267.451 113.117,264.784 111.5,261.5C 111.5,180.167 111.5,98.8333 111.5,17.5C 113.915,16.6948 116.249,15.6948 118.5,14.5 Z"/></g>
<g><path style="opacity:0.977" fill="#493988" d="M 273.5,15.5 C 274.492,15.3284 275.158,15.6618 275.5,16.5C 275.5,30.5 275.5,44.5 275.5,58.5C 274.833,58.1667 274.167,57.8333 273.5,57.5C 273.5,43.5 273.5,29.5 273.5,15.5 Z"/></g>
<g><path style="opacity:0.974" fill="#463a8a" d="M 275.5,16.5 C 276.791,16.2627 277.791,16.596 278.5,17.5C 278.5,31.8333 278.5,46.1667 278.5,60.5C 277.5,59.8333 276.5,59.1667 275.5,58.5C 275.5,44.5 275.5,30.5 275.5,16.5 Z"/></g>
<g><path style="opacity:0.993" fill="#dc2e32" d="M 111.5,17.5 C 111.5,98.8333 111.5,180.167 111.5,261.5C 109.674,259.853 108.34,257.853 107.5,255.5C 107.5,176.833 107.5,98.1667 107.5,19.5C 108.833,18.8333 110.167,18.1667 111.5,17.5 Z"/></g>
<g><path style="opacity:0.969" fill="#41398c" d="M 278.5,17.5 C 280.284,17.8925 281.95,18.5592 283.5,19.5C 283.5,34.1667 283.5,48.8333 283.5,63.5C 281.668,62.7515 280.001,61.7515 278.5,60.5C 278.5,46.1667 278.5,31.8333 278.5,17.5 Z"/></g>
<g><path style="opacity:0.994" fill="#df2e30" d="M 107.5,19.5 C 107.5,98.1667 107.5,176.833 107.5,255.5C 106.094,255.027 105.427,254.027 105.5,252.5C 105.5,175.167 105.5,97.8333 105.5,20.5C 106.167,20.1667 106.833,19.8333 107.5,19.5 Z"/></g>
<g><path style="opacity:0.975" fill="#3d3a8e" d="M 283.5,19.5 C 284.167,19.8333 284.833,20.1667 285.5,20.5C 285.5,35.1667 285.5,49.8333 285.5,64.5C 284.833,64.1667 284.167,63.8333 283.5,63.5C 283.5,48.8333 283.5,34.1667 283.5,19.5 Z"/></g>
<g><path style="opacity:0.993" fill="#e32c2e" d="M 105.5,20.5 C 105.5,97.8333 105.5,175.167 105.5,252.5C 102.073,247.984 99.4068,242.984 97.5,237.5C 97.5,166.833 97.5,96.1667 97.5,25.5C 99.7937,23.347 102.46,21.6803 105.5,20.5 Z"/></g>
<g><path style="opacity:0.963" fill="#3a3b90" d="M 285.5,20.5 C 286.167,20.8333 286.833,21.1667 287.5,21.5C 287.5,36.5 287.5,51.5 287.5,66.5C 286.5,66.1667 285.833,65.5 285.5,64.5C 285.5,49.8333 285.5,35.1667 285.5,20.5 Z"/></g>
<g><path style="opacity:0.977" fill="#353a91" d="M 287.5,21.5 C 289.001,22.7515 290.668,23.7515 292.5,24.5C 292.5,39.5 292.5,54.5 292.5,69.5C 290.668,68.7515 289.001,67.7515 287.5,66.5C 287.5,51.5 287.5,36.5 287.5,21.5 Z"/></g>
<g><path style="opacity:0.966" fill="#2e3a93" d="M 292.5,24.5 C 293.71,24.9321 294.71,25.5987 295.5,26.5C 295.5,41.8333 295.5,57.1667 295.5,72.5C 294.167,71.8333 293.167,70.8333 292.5,69.5C 292.5,54.5 292.5,39.5 292.5,24.5 Z"/></g>
<g><path style="opacity:0.981" fill="#e8292a" d="M 97.5,25.5 C 97.5,96.1667 97.5,166.833 97.5,237.5C 93.7816,229.311 91.2816,220.644 90,211.5C 89.6667,167.167 89.3333,122.833 89,78.5C 85.0342,81.464 81.3675,84.7974 78,88.5C 73.2597,93.7311 68.7597,99.0644 64.5,104.5C 64.5,85.8333 64.5,67.1667 64.5,48.5C 74.1139,38.8928 85.1139,31.2261 97.5,25.5 Z"/></g>
<g><path style="opacity:0.984" fill="#2a3b95" d="M 295.5,26.5 C 296.167,26.8333 296.833,27.1667 297.5,27.5C 297.5,42.8333 297.5,58.1667 297.5,73.5C 296.833,73.1667 296.167,72.8333 295.5,72.5C 295.5,57.1667 295.5,41.8333 295.5,26.5 Z"/></g>
<g><path style="opacity:0.973" fill="#273b96" d="M 297.5,27.5 C 298.167,27.8333 298.833,28.1667 299.5,28.5C 299.5,44.1667 299.5,59.8333 299.5,75.5C 298.5,75.1667 297.833,74.5 297.5,73.5C 297.5,58.1667 297.5,42.8333 297.5,27.5 Z"/></g>
<g><path style="opacity:0.975" fill="#243a96" d="M 299.5,28.5 C 353.271,63.3456 384.271,112.679 392.5,176.5C 392.5,189.5 392.5,202.5 392.5,215.5C 385.72,270.569 361.053,315.736 318.5,351C 312.452,355.685 306.119,359.851 299.5,363.5C 299.5,300.167 299.5,236.833 299.5,173.5C 300.451,174.919 300.784,176.585 300.5,178.5C 318.178,178.616 335.845,178.283 353.5,177.5C 348.6,136.357 330.6,102.357 299.5,75.5C 299.5,59.8333 299.5,44.1667 299.5,28.5 Z M 302.5,215.5 C 319.5,215.5 336.5,215.5 353.5,215.5C 348.55,254.403 331.717,287.07 303,313.5C 302.5,280.835 302.333,248.168 302.5,215.5 Z"/></g>
<g><path style="opacity:0.975" fill="#ea2226" d="M 64.5,48.5 C 64.5,67.1667 64.5,85.8333 64.5,104.5C 32.0069,153.419 27.1736,205.086 50,259.5C 54.3496,268.872 59.1829,277.872 64.5,286.5C 64.5,306.167 64.5,325.833 64.5,345.5C 53.8178,336.315 44.3178,325.982 36,314.5C 32.9711,310.438 30.4711,306.105 28.5,301.5C 28.5,231.167 28.5,160.833 28.5,90.5C 33.6989,81.788 39.5322,73.4546 46,65.5C 51.757,59.2369 57.9237,53.5702 64.5,48.5 Z"/></g>
<g><path style="opacity:0.976" fill="#993760" d="M 192.5,89.5 C 192.5,102.167 192.5,114.833 192.5,127.5C 189.763,127.401 187.096,127.735 184.5,128.5C 184.5,115.833 184.5,103.167 184.5,90.5C 186.948,89.5269 189.615,89.1936 192.5,89.5 Z"/></g>
<g><path style="opacity:0.974" fill="#943763" d="M 192.5,89.5 C 193.167,89.5 193.833,89.5 194.5,89.5C 194.5,102.167 194.5,114.833 194.5,127.5C 193.833,127.5 193.167,127.5 192.5,127.5C 192.5,114.833 192.5,102.167 192.5,89.5 Z"/></g>
<g><path style="opacity:0.976" fill="#913764" d="M 194.5,89.5 C 196.167,89.5 197.833,89.5 199.5,89.5C 199.5,102.167 199.5,114.833 199.5,127.5C 197.833,127.5 196.167,127.5 194.5,127.5C 194.5,114.833 194.5,102.167 194.5,89.5 Z"/></g>
<g><path style="opacity:0.978" fill="#8c3868" d="M 199.5,89.5 C 202.237,89.4013 204.904,89.7347 207.5,90.5C 207.5,103.167 207.5,115.833 207.5,128.5C 204.833,128.167 202.167,127.833 199.5,127.5C 199.5,114.833 199.5,102.167 199.5,89.5 Z"/></g>
<g><path style="opacity:0.989" fill="#eb1f25" d="M 28.5,90.5 C 28.5,160.833 28.5,231.167 28.5,301.5C 26.412,299.664 25.0787,297.331 24.5,294.5C 24.5,228.833 24.5,163.167 24.5,97.5C 25.0787,94.6689 26.412,92.3356 28.5,90.5 Z"/></g>
<g><path style="opacity:0.972" fill="#a53659" d="M 177.5,90.5 C 177.5,103.5 177.5,116.5 177.5,129.5C 175.188,130.341 172.855,131.341 170.5,132.5C 170.5,119.167 170.5,105.833 170.5,92.5C 172.833,91.8333 175.167,91.1667 177.5,90.5 Z"/></g>
<g><path style="opacity:0.971" fill="#a1375c" d="M 177.5,90.5 C 178.833,90.5 180.167,90.5 181.5,90.5C 181.5,103.167 181.5,115.833 181.5,128.5C 180.432,129.434 179.099,129.768 177.5,129.5C 177.5,116.5 177.5,103.5 177.5,90.5 Z"/></g>
<g><path style="opacity:0.989" fill="#9e375e" d="M 181.5,90.5 C 182.5,90.5 183.5,90.5 184.5,90.5C 184.5,103.167 184.5,115.833 184.5,128.5C 183.5,128.5 182.5,128.5 181.5,128.5C 181.5,115.833 181.5,103.167 181.5,90.5 Z"/></g>
<g><path style="opacity:0.977" fill="#86396b" d="M 207.5,90.5 C 209.95,90.298 212.283,90.6314 214.5,91.5C 214.5,104.5 214.5,117.5 214.5,130.5C 212.228,129.681 209.894,129.015 207.5,128.5C 207.5,115.833 207.5,103.167 207.5,90.5 Z"/></g>
<g><path style="opacity:0.976" fill="#80396e" d="M 214.5,91.5 C 216.861,91.6741 219.194,92.0074 221.5,92.5C 221.5,105.833 221.5,119.167 221.5,132.5C 219.167,131.833 216.833,131.167 214.5,130.5C 214.5,117.5 214.5,104.5 214.5,91.5 Z"/></g>
<g><path style="opacity:0.974" fill="#ab3655" d="M 170.5,92.5 C 170.5,105.833 170.5,119.167 170.5,132.5C 168.046,133.227 165.713,134.227 163.5,135.5C 163.5,121.833 163.5,108.167 163.5,94.5C 165.701,93.4336 168.035,92.767 170.5,92.5 Z"/></g>
<g><path style="opacity:0.969" fill="#7c3970" d="M 221.5,92.5 C 222.167,92.8333 222.833,93.1667 223.5,93.5C 223.5,106.833 223.5,120.167 223.5,133.5C 222.508,133.672 221.842,133.338 221.5,132.5C 221.5,119.167 221.5,105.833 221.5,92.5 Z"/></g>
<g><path style="opacity:0.981" fill="#793973" d="M 223.5,93.5 C 225.579,93.9707 227.579,94.6373 229.5,95.5C 229.5,109.167 229.5,122.833 229.5,136.5C 227.5,135.5 225.5,134.5 223.5,133.5C 223.5,120.167 223.5,106.833 223.5,93.5 Z"/></g>
<g><path style="opacity:0.975" fill="#b03652" d="M 163.5,94.5 C 163.5,108.167 163.5,121.833 163.5,135.5C 161.668,136.248 160.001,137.248 158.5,138.5C 158.5,124.5 158.5,110.5 158.5,96.5C 159.93,95.4625 161.597,94.7959 163.5,94.5 Z"/></g>
<g><path style="opacity:0.975" fill="#753975" d="M 229.5,95.5 C 230.833,95.8333 232.167,96.1667 233.5,96.5C 233.5,110.5 233.5,124.5 233.5,138.5C 231.847,138.34 230.514,137.674 229.5,136.5C 229.5,122.833 229.5,109.167 229.5,95.5 Z"/></g>
<g><path style="opacity:0.971" fill="#b43450" d="M 158.5,96.5 C 158.5,110.5 158.5,124.5 158.5,138.5C 157.167,139.5 155.833,140.5 154.5,141.5C 154.5,126.833 154.5,112.167 154.5,97.5C 155.708,96.7659 157.041,96.4326 158.5,96.5 Z"/></g>
<g><path style="opacity:0.973" fill="#723a77" d="M 233.5,96.5 C 234.71,96.9321 235.71,97.5987 236.5,98.5C 236.5,112.5 236.5,126.5 236.5,140.5C 234.973,140.573 233.973,139.906 233.5,138.5C 233.5,124.5 233.5,110.5 233.5,96.5 Z"/></g>
<g><path style="opacity:0.975" fill="#ec1d24" d="M 24.5,97.5 C 24.5,163.167 24.5,228.833 24.5,294.5C 10.7574,269.858 2.4241,243.525 -0.5,215.5C -0.5,201.833 -0.5,188.167 -0.5,174.5C 2.18594,152.434 8.01928,131.1 17,110.5C 19.0217,105.777 21.5217,101.443 24.5,97.5 Z"/></g>
<g><path style="opacity:0.97" fill="#b8334d" d="M 154.5,97.5 C 154.5,112.167 154.5,126.833 154.5,141.5C 152.5,143.167 150.5,144.833 148.5,146.5C 148.5,131.167 148.5,115.833 148.5,100.5C 150.5,99.5 152.5,98.5 154.5,97.5 Z"/></g>
<g><path style="opacity:0.972" fill="#6d3a79" d="M 236.5,98.5 C 239.241,98.7073 241.574,99.7073 243.5,101.5C 243.5,116.5 243.5,131.5 243.5,146.5C 240.568,145.2 238.234,143.2 236.5,140.5C 236.5,126.5 236.5,112.5 236.5,98.5 Z"/></g>
<g><path style="opacity:0.964" fill="#bc334b" d="M 148.5,100.5 C 148.5,115.833 148.5,131.167 148.5,146.5C 147.833,147.833 146.833,148.833 145.5,149.5C 145.5,133.833 145.5,118.167 145.5,102.5C 146.29,101.599 147.29,100.932 148.5,100.5 Z"/></g>
<g><path style="opacity:0.973" fill="#673a7b" d="M 243.5,101.5 C 245.153,101.66 246.486,102.326 247.5,103.5C 247.5,119.167 247.5,134.833 247.5,150.5C 245.833,149.5 244.5,148.167 243.5,146.5C 243.5,131.5 243.5,116.5 243.5,101.5 Z"/></g>
<g><path style="opacity:0.968" fill="#bf3248" d="M 145.5,102.5 C 145.5,118.167 145.5,133.833 145.5,149.5C 144.5,151.167 143.167,152.5 141.5,153.5C 141.5,137.167 141.5,120.833 141.5,104.5C 142.514,103.326 143.847,102.66 145.5,102.5 Z"/></g>
<g><path style="opacity:0.968" fill="#643a7d" d="M 247.5,103.5 C 248.492,103.328 249.158,103.662 249.5,104.5C 249.5,120.833 249.5,137.167 249.5,153.5C 248.599,152.71 247.932,151.71 247.5,150.5C 247.5,134.833 247.5,119.167 247.5,103.5 Z"/></g>
<g><path style="opacity:0.971" fill="#c33246" d="M 141.5,104.5 C 141.5,120.833 141.5,137.167 141.5,153.5C 139.735,156.709 137.735,159.709 135.5,162.5C 135.5,144.5 135.5,126.5 135.5,108.5C 137.205,106.808 139.205,105.475 141.5,104.5 Z"/></g>
<g><path style="opacity:0.973" fill="#603a7f" d="M 249.5,104.5 C 252.135,105.811 254.469,107.478 256.5,109.5C 256.5,127.5 256.5,145.5 256.5,163.5C 254.199,160.19 251.866,156.857 249.5,153.5C 249.5,137.167 249.5,120.833 249.5,104.5 Z"/></g>
<g><path style="opacity:0.971" fill="#c73342" d="M 135.5,108.5 C 135.5,126.5 135.5,144.5 135.5,162.5C 134.147,165.205 132.814,167.872 131.5,170.5C 131.5,150.833 131.5,131.167 131.5,111.5C 132.436,110.026 133.77,109.026 135.5,108.5 Z"/></g>
<g><path style="opacity:0.969" fill="#5a3a82" d="M 256.5,109.5 C 258.062,109.733 259.395,110.4 260.5,111.5C 260.5,131.5 260.5,151.5 260.5,171.5C 258.659,169.151 257.326,166.485 256.5,163.5C 256.5,145.5 256.5,127.5 256.5,109.5 Z"/></g>
<g><path style="opacity:0.983" fill="#cc303f" d="M 125.5,11.5 C 126.332,45.6642 126.832,79.9976 127,114.5C 128.271,113.117 129.771,112.117 131.5,111.5C 131.5,131.167 131.5,150.833 131.5,170.5C 130.941,172.679 130.274,174.846 129.5,177C 129.836,178.03 130.503,178.53 131.5,178.5C 131.5,190.833 131.5,203.167 131.5,215.5C 130.761,215.369 130.094,215.536 129.5,216C 130.464,217.725 131.131,219.559 131.5,221.5C 131.5,241.5 131.5,261.5 131.5,281.5C 129.475,279.804 127.475,278.137 125.5,276.5C 125.5,188.167 125.5,99.8333 125.5,11.5 Z"/></g>
<g><path style="opacity:0.969" fill="#583b84" d="M 260.5,111.5 C 261.5,111.833 262.167,112.5 262.5,113.5C 262.5,147.5 262.5,181.5 262.5,215.5C 261.833,215.5 261.167,215.5 260.5,215.5C 260.5,203.167 260.5,190.833 260.5,178.5C 261.417,176.338 261.417,174.005 260.5,171.5C 260.5,151.5 260.5,131.5 260.5,111.5 Z"/></g>
<g><path style="opacity:0.954" fill="#533a85" d="M 262.5,113.5 C 264.191,114.864 265.858,116.197 267.5,117.5C 267.5,204.833 267.5,292.167 267.5,379.5C 266.791,380.404 265.791,380.737 264.5,380.5C 265.163,325.157 264.496,270.157 262.5,215.5C 262.5,181.5 262.5,147.5 262.5,113.5 Z"/></g>
<g><path style="opacity:0.995" fill="#4e3a87" d="M 267.5,117.5 C 269.833,119.167 271.833,121.167 273.5,123.5C 273.5,208.167 273.5,292.833 273.5,377.5C 271.703,378.73 269.703,379.396 267.5,379.5C 267.5,292.167 267.5,204.833 267.5,117.5 Z"/></g>
<g><path style="opacity:0.994" fill="#493988" d="M 273.5,123.5 C 274.5,123.833 275.167,124.5 275.5,125.5C 275.5,209.167 275.5,292.833 275.5,376.5C 274.833,376.833 274.167,377.167 273.5,377.5C 273.5,292.833 273.5,208.167 273.5,123.5 Z"/></g>
<g><path style="opacity:0.995" fill="#463a8a" d="M 275.5,125.5 C 276.488,126.795 277.488,128.128 278.5,129.5C 278.5,211.5 278.5,293.5 278.5,375.5C 277.609,376.11 276.609,376.443 275.5,376.5C 275.5,292.833 275.5,209.167 275.5,125.5 Z"/></g>
<g><path style="opacity:0.994" fill="#41398c" d="M 278.5,129.5 C 280.547,131.55 282.214,133.883 283.5,136.5C 283.5,215.167 283.5,293.833 283.5,372.5C 282.035,373.737 280.368,374.737 278.5,375.5C 278.5,293.5 278.5,211.5 278.5,129.5 Z"/></g>
<g><path style="opacity:0.994" fill="#3d3a8e" d="M 283.5,136.5 C 284.906,136.973 285.573,137.973 285.5,139.5C 285.5,216.833 285.5,294.167 285.5,371.5C 285.158,372.338 284.492,372.672 283.5,372.5C 283.5,293.833 283.5,215.167 283.5,136.5 Z"/></g>
<g><path style="opacity:0.993" fill="#3a3b90" d="M 285.5,139.5 C 286.906,139.973 287.573,140.973 287.5,142.5C 287.5,218.5 287.5,294.5 287.5,370.5C 287.158,371.338 286.492,371.672 285.5,371.5C 285.5,294.167 285.5,216.833 285.5,139.5 Z"/></g>
<g><path style="opacity:0.992" fill="#353a91" d="M 287.5,142.5 C 290.014,145.364 291.68,148.698 292.5,152.5C 292.5,224.167 292.5,295.833 292.5,367.5C 291.341,369.25 289.674,370.25 287.5,370.5C 287.5,294.5 287.5,218.5 287.5,142.5 Z"/></g>
<g><path style="opacity:0.993" fill="#2e3a93" d="M 292.5,152.5 C 294.293,154.426 295.293,156.759 295.5,159.5C 295.5,228.5 295.5,297.5 295.5,366.5C 294.609,367.11 293.609,367.443 292.5,367.5C 292.5,295.833 292.5,224.167 292.5,152.5 Z"/></g>
<g><path style="opacity:0.99" fill="#2a3b95" d="M 295.5,159.5 C 296.738,161.214 297.405,163.214 297.5,165.5C 297.5,232.167 297.5,298.833 297.5,365.5C 296.833,365.833 296.167,366.167 295.5,366.5C 295.5,297.5 295.5,228.5 295.5,159.5 Z"/></g>
<g><path style="opacity:0.987" fill="#273b96" d="M 297.5,165.5 C 298.768,167.905 299.435,170.572 299.5,173.5C 299.5,236.833 299.5,300.167 299.5,363.5C 299.167,364.5 298.5,365.167 297.5,365.5C 297.5,298.833 297.5,232.167 297.5,165.5 Z"/></g>
<g><path style="opacity:0.987" fill="#c73342" d="M 131.5,178.5 C 132.833,178.5 134.167,178.5 135.5,178.5C 135.5,190.833 135.5,203.167 135.5,215.5C 134.167,215.5 132.833,215.5 131.5,215.5C 131.5,203.167 131.5,190.833 131.5,178.5 Z"/></g>
<g><path style="opacity:0.987" fill="#c33246" d="M 135.5,178.5 C 137.5,178.5 139.5,178.5 141.5,178.5C 141.5,190.833 141.5,203.167 141.5,215.5C 139.5,215.5 137.5,215.5 135.5,215.5C 135.5,203.167 135.5,190.833 135.5,178.5 Z"/></g>
<g><path style="opacity:0.987" fill="#bf3249" d="M 141.5,178.5 C 142.833,178.5 144.167,178.5 145.5,178.5C 145.5,190.833 145.5,203.167 145.5,215.5C 144.167,215.5 142.833,215.5 141.5,215.5C 141.5,203.167 141.5,190.833 141.5,178.5 Z"/></g>
<g><path style="opacity:0.987" fill="#bc334b" d="M 145.5,178.5 C 146.5,178.5 147.5,178.5 148.5,178.5C 148.5,190.833 148.5,203.167 148.5,215.5C 147.5,215.5 146.5,215.5 145.5,215.5C 145.5,203.167 145.5,190.833 145.5,178.5 Z"/></g>
<g><path style="opacity:0.987" fill="#b8334e" d="M 148.5,178.5 C 150.5,178.5 152.5,178.5 154.5,178.5C 154.5,190.833 154.5,203.167 154.5,215.5C 152.5,215.5 150.5,215.5 148.5,215.5C 148.5,203.167 148.5,190.833 148.5,178.5 Z"/></g>
<g><path style="opacity:0.987" fill="#b43450" d="M 154.5,178.5 C 155.833,178.5 157.167,178.5 158.5,178.5C 158.5,190.833 158.5,203.167 158.5,215.5C 157.167,215.5 155.833,215.5 154.5,215.5C 154.5,203.167 154.5,190.833 154.5,178.5 Z"/></g>
<g><path style="opacity:0.987" fill="#b03652" d="M 158.5,178.5 C 160.167,178.5 161.833,178.5 163.5,178.5C 163.5,190.833 163.5,203.167 163.5,215.5C 161.833,215.5 160.167,215.5 158.5,215.5C 158.5,203.167 158.5,190.833 158.5,178.5 Z"/></g>
<g><path style="opacity:0.987" fill="#ab3656" d="M 163.5,178.5 C 165.833,178.5 168.167,178.5 170.5,178.5C 170.5,190.833 170.5,203.167 170.5,215.5C 168.167,215.5 165.833,215.5 163.5,215.5C 163.5,203.167 163.5,190.833 163.5,178.5 Z"/></g>
<g><path style="opacity:0.987" fill="#a53659" d="M 170.5,178.5 C 172.833,178.5 175.167,178.5 177.5,178.5C 177.5,190.833 177.5,203.167 177.5,215.5C 175.167,215.5 172.833,215.5 170.5,215.5C 170.5,203.167 170.5,190.833 170.5,178.5 Z"/></g>
<g><path style="opacity:0.987" fill="#a1375c" d="M 177.5,178.5 C 178.833,178.5 180.167,178.5 181.5,178.5C 181.5,190.833 181.5,203.167 181.5,215.5C 180.167,215.5 178.833,215.5 177.5,215.5C 177.5,203.167 177.5,190.833 177.5,178.5 Z"/></g>
<g><path style="opacity:0.987" fill="#9e375e" d="M 181.5,178.5 C 182.5,178.5 183.5,178.5 184.5,178.5C 184.5,190.833 184.5,203.167 184.5,215.5C 183.5,215.5 182.5,215.5 181.5,215.5C 181.5,203.167 181.5,190.833 181.5,178.5 Z"/></g>
<g><path style="opacity:0.987" fill="#993761" d="M 184.5,178.5 C 187.167,178.5 189.833,178.5 192.5,178.5C 192.5,190.833 192.5,203.167 192.5,215.5C 189.833,215.5 187.167,215.5 184.5,215.5C 184.5,203.167 184.5,190.833 184.5,178.5 Z"/></g>
<g><path style="opacity:0.987" fill="#943763" d="M 192.5,178.5 C 193.167,178.5 193.833,178.5 194.5,178.5C 194.5,190.833 194.5,203.167 194.5,215.5C 193.833,215.5 193.167,215.5 192.5,215.5C 192.5,203.167 192.5,190.833 192.5,178.5 Z"/></g>
<g><path style="opacity:0.987" fill="#913764" d="M 194.5,178.5 C 196.167,178.5 197.833,178.5 199.5,178.5C 199.5,190.833 199.5,203.167 199.5,215.5C 197.833,215.5 196.167,215.5 194.5,215.5C 194.5,203.167 194.5,190.833 194.5,178.5 Z"/></g>
<g><path style="opacity:0.987" fill="#8c3868" d="M 199.5,178.5 C 202.167,178.5 204.833,178.5 207.5,178.5C 207.5,190.833 207.5,203.167 207.5,215.5C 204.833,215.5 202.167,215.5 199.5,215.5C 199.5,203.167 199.5,190.833 199.5,178.5 Z"/></g>
<g><path style="opacity:0.987" fill="#86396b" d="M 207.5,178.5 C 209.833,178.5 212.167,178.5 214.5,178.5C 214.5,190.833 214.5,203.167 214.5,215.5C 212.167,215.5 209.833,215.5 207.5,215.5C 207.5,203.167 207.5,190.833 207.5,178.5 Z"/></g>
<g><path style="opacity:0.987" fill="#80396e" d="M 214.5,178.5 C 216.833,178.5 219.167,178.5 221.5,178.5C 221.5,190.833 221.5,203.167 221.5,215.5C 219.167,215.5 216.833,215.5 214.5,215.5C 214.5,203.167 214.5,190.833 214.5,178.5 Z"/></g>
<g><path style="opacity:0.987" fill="#7c3970" d="M 221.5,178.5 C 222.167,178.5 222.833,178.5 223.5,178.5C 223.5,190.833 223.5,203.167 223.5,215.5C 222.833,215.5 222.167,215.5 221.5,215.5C 221.5,203.167 221.5,190.833 221.5,178.5 Z"/></g>
<g><path style="opacity:0.987" fill="#793972" d="M 223.5,178.5 C 225.5,178.5 227.5,178.5 229.5,178.5C 229.5,190.833 229.5,203.167 229.5,215.5C 227.5,215.5 225.5,215.5 223.5,215.5C 223.5,203.167 223.5,190.833 223.5,178.5 Z"/></g>
<g><path style="opacity:0.987" fill="#753975" d="M 229.5,178.5 C 230.833,178.5 232.167,178.5 233.5,178.5C 233.5,190.833 233.5,203.167 233.5,215.5C 232.167,215.5 230.833,215.5 229.5,215.5C 229.5,203.167 229.5,190.833 229.5,178.5 Z"/></g>
<g><path style="opacity:0.987" fill="#723a77" d="M 233.5,178.5 C 234.5,178.5 235.5,178.5 236.5,178.5C 236.5,190.833 236.5,203.167 236.5,215.5C 235.5,215.5 234.5,215.5 233.5,215.5C 233.5,203.167 233.5,190.833 233.5,178.5 Z"/></g>
<g><path style="opacity:0.987" fill="#6d3a79" d="M 236.5,178.5 C 238.833,178.5 241.167,178.5 243.5,178.5C 243.5,190.833 243.5,203.167 243.5,215.5C 241.167,215.5 238.833,215.5 236.5,215.5C 236.5,203.167 236.5,190.833 236.5,178.5 Z"/></g>
<g><path style="opacity:0.987" fill="#673a7b" d="M 243.5,178.5 C 244.833,178.5 246.167,178.5 247.5,178.5C 247.5,190.833 247.5,203.167 247.5,215.5C 246.167,215.5 244.833,215.5 243.5,215.5C 243.5,203.167 243.5,190.833 243.5,178.5 Z"/></g>
<g><path style="opacity:0.987" fill="#653a7d" d="M 247.5,178.5 C 248.167,178.5 248.833,178.5 249.5,178.5C 249.5,190.833 249.5,203.167 249.5,215.5C 248.833,215.5 248.167,215.5 247.5,215.5C 247.5,203.167 247.5,190.833 247.5,178.5 Z"/></g>
<g><path style="opacity:0.987" fill="#603a7f" d="M 249.5,178.5 C 251.833,178.5 254.167,178.5 256.5,178.5C 256.5,190.833 256.5,203.167 256.5,215.5C 254.167,215.5 251.833,215.5 249.5,215.5C 249.5,203.167 249.5,190.833 249.5,178.5 Z"/></g>
<g><path style="opacity:0.987" fill="#5b3a82" d="M 256.5,178.5 C 257.833,178.5 259.167,178.5 260.5,178.5C 260.5,190.833 260.5,203.167 260.5,215.5C 259.167,215.5 257.833,215.5 256.5,215.5C 256.5,203.167 256.5,190.833 256.5,178.5 Z"/></g>
<g><path style="opacity:0.97" fill="#c73342" d="M 131.5,221.5 C 133.011,224.005 134.345,226.672 135.5,229.5C 135.5,247.833 135.5,266.167 135.5,284.5C 134.167,283.5 132.833,282.5 131.5,281.5C 131.5,261.5 131.5,241.5 131.5,221.5 Z"/></g>
<g><path style="opacity:0.971" fill="#c33246" d="M 135.5,229.5 C 137.467,232.477 139.467,235.477 141.5,238.5C 141.5,254.833 141.5,271.167 141.5,287.5C 139.216,287.025 137.216,286.025 135.5,284.5C 135.5,266.167 135.5,247.833 135.5,229.5 Z"/></g>
<g><path style="opacity:0.971" fill="#bf3248" d="M 141.5,238.5 C 142.803,240.142 144.136,241.809 145.5,243.5C 145.5,259.167 145.5,274.833 145.5,290.5C 143.77,289.974 142.436,288.974 141.5,287.5C 141.5,271.167 141.5,254.833 141.5,238.5 Z"/></g>
<g><path style="opacity:0.788" fill="#673a7b" d="M 243.5,291.5 C 243.5,276.167 243.5,260.833 243.5,245.5C 244.145,244.188 245.145,243.188 246.5,242.5C 247.666,258.156 247.833,273.823 247,289.5C 245.887,290.305 244.721,290.972 243.5,291.5 Z"/></g>
<g><path style="opacity:0.972" fill="#bc334b" d="M 145.5,243.5 C 146.833,244.167 147.833,245.167 148.5,246.5C 148.5,261.5 148.5,276.5 148.5,291.5C 147.391,291.443 146.391,291.11 145.5,290.5C 145.5,274.833 145.5,259.167 145.5,243.5 Z"/></g>
<g><path style="opacity:0.974" fill="#6d3a79" d="M 243.5,245.5 C 243.5,260.833 243.5,276.167 243.5,291.5C 241.287,292.773 238.954,293.773 236.5,294.5C 236.5,280.167 236.5,265.833 236.5,251.5C 238.808,249.529 241.142,247.529 243.5,245.5 Z"/></g>
<g><path style="opacity:0.97" fill="#b8334d" d="M 148.5,246.5 C 150.54,248.177 152.54,249.844 154.5,251.5C 154.5,265.833 154.5,280.167 154.5,294.5C 152.181,294.008 150.181,293.008 148.5,291.5C 148.5,276.5 148.5,261.5 148.5,246.5 Z"/></g>
<g><path style="opacity:0.971" fill="#b43450" d="M 154.5,251.5 C 156.23,252.026 157.564,253.026 158.5,254.5C 158.5,268.5 158.5,282.5 158.5,296.5C 157.167,295.833 155.833,295.167 154.5,294.5C 154.5,280.167 154.5,265.833 154.5,251.5 Z"/></g>
<g><path style="opacity:0.977" fill="#713a77" d="M 236.5,251.5 C 236.5,265.833 236.5,280.167 236.5,294.5C 235.791,295.404 234.791,295.737 233.5,295.5C 233.5,281.5 233.5,267.5 233.5,253.5C 234.5,252.833 235.5,252.167 236.5,251.5 Z"/></g>
<g><path style="opacity:0.972" fill="#753975" d="M 233.5,253.5 C 233.5,267.5 233.5,281.5 233.5,295.5C 232.486,296.674 231.153,297.34 229.5,297.5C 229.5,283.833 229.5,270.167 229.5,256.5C 230.795,255.512 232.128,254.512 233.5,253.5 Z"/></g>
<g><path style="opacity:0.976" fill="#b03652" d="M 158.5,254.5 C 160.434,255.11 162.101,256.11 163.5,257.5C 163.5,270.833 163.5,284.167 163.5,297.5C 161.784,297.371 160.117,297.038 158.5,296.5C 158.5,282.5 158.5,268.5 158.5,254.5 Z"/></g>
<g><path style="opacity:0.971" fill="#793973" d="M 229.5,256.5 C 229.5,270.167 229.5,283.833 229.5,297.5C 227.579,298.363 225.579,299.029 223.5,299.5C 223.5,286.167 223.5,272.833 223.5,259.5C 225.181,257.992 227.181,256.992 229.5,256.5 Z"/></g>
<g><path style="opacity:0.977" fill="#ab3655" d="M 163.5,257.5 C 165.954,258.227 168.287,259.227 170.5,260.5C 170.5,273.5 170.5,286.5 170.5,299.5C 167.848,299.59 165.515,298.924 163.5,297.5C 163.5,284.167 163.5,270.833 163.5,257.5 Z"/></g>
<g><path style="opacity:0.981" fill="#7c3970" d="M 223.5,259.5 C 223.5,272.833 223.5,286.167 223.5,299.5C 222.833,299.5 222.167,299.5 221.5,299.5C 221.5,286.5 221.5,273.5 221.5,260.5C 221.842,259.662 222.508,259.328 223.5,259.5 Z"/></g>
<g><path style="opacity:0.973" fill="#a53659" d="M 170.5,260.5 C 172.833,261.167 175.167,261.833 177.5,262.5C 177.5,275.5 177.5,288.5 177.5,301.5C 174.933,301.279 172.599,300.612 170.5,299.5C 170.5,286.5 170.5,273.5 170.5,260.5 Z"/></g>
<g><path style="opacity:0.976" fill="#80396e" d="M 221.5,260.5 C 221.5,273.5 221.5,286.5 221.5,299.5C 219.343,300.407 217.01,301.073 214.5,301.5C 214.5,288.5 214.5,275.5 214.5,262.5C 216.701,261.434 219.035,260.767 221.5,260.5 Z"/></g>
<g><path style="opacity:0.977" fill="#a1375c" d="M 177.5,262.5 C 178.833,262.833 180.167,263.167 181.5,263.5C 181.5,276.5 181.5,289.5 181.5,302.5C 180.292,301.766 178.959,301.433 177.5,301.5C 177.5,288.5 177.5,275.5 177.5,262.5 Z"/></g>
<g><path style="opacity:0.976" fill="#86396b" d="M 214.5,262.5 C 214.5,275.5 214.5,288.5 214.5,301.5C 212.194,301.993 209.861,302.326 207.5,302.5C 207.5,289.833 207.5,277.167 207.5,264.5C 209.657,263.593 211.99,262.927 214.5,262.5 Z"/></g>
<g><path style="opacity:0.972" fill="#9e375e" d="M 181.5,263.5 C 182.609,263.557 183.609,263.89 184.5,264.5C 184.5,277.167 184.5,289.833 184.5,302.5C 183.5,302.5 182.5,302.5 181.5,302.5C 181.5,289.5 181.5,276.5 181.5,263.5 Z"/></g>
<g><path style="opacity:0.979" fill="#993761" d="M 184.5,264.5 C 187.385,264.194 190.052,264.527 192.5,265.5C 192.5,278.167 192.5,290.833 192.5,303.5C 189.946,302.612 187.279,302.279 184.5,302.5C 184.5,289.833 184.5,277.167 184.5,264.5 Z"/></g>
<g><path style="opacity:0.975" fill="#913764" d="M 199.5,264.5 C 199.5,277.167 199.5,289.833 199.5,302.5C 198.081,303.451 196.415,303.784 194.5,303.5C 194.5,290.833 194.5,278.167 194.5,265.5C 196.292,265.634 197.958,265.301 199.5,264.5 Z"/></g>
<g><path style="opacity:0.984" fill="#8c3868" d="M 199.5,264.5 C 202.167,264.5 204.833,264.5 207.5,264.5C 207.5,277.167 207.5,289.833 207.5,302.5C 204.833,302.5 202.167,302.5 199.5,302.5C 199.5,289.833 199.5,277.167 199.5,264.5 Z"/></g>
<g><path style="opacity:0.98" fill="#943763" d="M 192.5,265.5 C 193.167,265.5 193.833,265.5 194.5,265.5C 194.5,278.167 194.5,290.833 194.5,303.5C 193.833,303.5 193.167,303.5 192.5,303.5C 192.5,290.833 192.5,278.167 192.5,265.5 Z"/></g>
<g><path style="opacity:0.975" fill="#e82829" d="M 64.5,286.5 C 69.4693,292.312 74.3027,298.312 79,304.5C 85.0619,310.73 91.2286,316.73 97.5,322.5C 97.5,338.167 97.5,353.833 97.5,369.5C 85.3561,363.015 74.3561,355.015 64.5,345.5C 64.5,325.833 64.5,306.167 64.5,286.5 Z"/></g>
<g><path style="opacity:0.978" fill="#e32c2d" d="M 97.5,322.5 C 100.455,324.122 103.122,326.122 105.5,328.5C 105.5,343.5 105.5,358.5 105.5,373.5C 102.833,372.167 100.167,370.833 97.5,369.5C 97.5,353.833 97.5,338.167 97.5,322.5 Z"/></g>
<g><path style="opacity:0.977" fill="#df2e30" d="M 105.5,328.5 C 106.492,328.328 107.158,328.662 107.5,329.5C 107.5,344.5 107.5,359.5 107.5,374.5C 106.833,374.167 106.167,373.833 105.5,373.5C 105.5,358.5 105.5,343.5 105.5,328.5 Z"/></g>
<g><path style="opacity:0.974" fill="#dc2e32" d="M 107.5,329.5 C 109.23,330.026 110.564,331.026 111.5,332.5C 111.5,347.167 111.5,361.833 111.5,376.5C 110.167,375.833 108.833,375.167 107.5,374.5C 107.5,359.5 107.5,344.5 107.5,329.5 Z"/></g>
<g><path style="opacity:0.973" fill="#d72e36" d="M 111.5,332.5 C 114.004,333.584 116.337,334.917 118.5,336.5C 118.5,350.833 118.5,365.167 118.5,379.5C 116.085,378.695 113.751,377.695 111.5,376.5C 111.5,361.833 111.5,347.167 111.5,332.5 Z"/></g>
<g><path style="opacity:0.977" fill="#d12f3b" d="M 118.5,336.5 C 121.032,337.596 123.365,338.929 125.5,340.5C 125.5,354.167 125.5,367.833 125.5,381.5C 123.035,381.233 120.701,380.566 118.5,379.5C 118.5,365.167 118.5,350.833 118.5,336.5 Z"/></g>
<g><path style="opacity:0.978" fill="#cc303f" d="M 125.5,340.5 C 127.819,340.992 129.819,341.992 131.5,343.5C 131.5,356.833 131.5,370.167 131.5,383.5C 129.214,383.405 127.214,382.738 125.5,381.5C 125.5,367.833 125.5,354.167 125.5,340.5 Z"/></g>
<g><path style="opacity:0.983" fill="#c73342" d="M 131.5,343.5 C 132.833,343.833 134.167,344.167 135.5,344.5C 135.5,358.167 135.5,371.833 135.5,385.5C 134.005,385.011 132.671,384.345 131.5,383.5C 131.5,370.167 131.5,356.833 131.5,343.5 Z"/></g>
<g><path style="opacity:0.974" fill="#c33246" d="M 135.5,344.5 C 137.574,345.514 139.574,346.514 141.5,347.5C 141.5,360.5 141.5,373.5 141.5,386.5C 139.435,386.483 137.435,386.15 135.5,385.5C 135.5,371.833 135.5,358.167 135.5,344.5 Z"/></g>
<g><path style="opacity:0.975" fill="#bf3248" d="M 141.5,347.5 C 142.959,347.433 144.292,347.766 145.5,348.5C 145.5,361.5 145.5,374.5 145.5,387.5C 143.901,387.768 142.568,387.434 141.5,386.5C 141.5,373.5 141.5,360.5 141.5,347.5 Z"/></g>
<g><path style="opacity:0.967" fill="#bc334b" d="M 145.5,348.5 C 146.609,348.557 147.609,348.89 148.5,349.5C 148.5,362.5 148.5,375.5 148.5,388.5C 147.209,388.737 146.209,388.404 145.5,387.5C 145.5,374.5 145.5,361.5 145.5,348.5 Z"/></g>
<g><path style="opacity:0.978" fill="#b8334d" d="M 148.5,349.5 C 150.579,349.971 152.579,350.637 154.5,351.5C 154.5,364.167 154.5,376.833 154.5,389.5C 152.435,389.483 150.435,389.15 148.5,388.5C 148.5,375.5 148.5,362.5 148.5,349.5 Z"/></g>
<g><path style="opacity:0.854" fill="#723a77" d="M 233.5,389.5 C 233.5,376.833 233.5,364.167 233.5,351.5C 233.56,350.957 233.893,350.624 234.5,350.5C 234.833,357 235.167,363.5 235.5,370C 235.497,376.869 234.83,383.369 233.5,389.5 Z"/></g>
<g><path style="opacity:0.976" fill="#b43450" d="M 154.5,351.5 C 155.959,351.433 157.292,351.766 158.5,352.5C 158.5,365.167 158.5,377.833 158.5,390.5C 157.041,390.567 155.708,390.234 154.5,389.5C 154.5,376.833 154.5,364.167 154.5,351.5 Z"/></g>
<g><path style="opacity:0.97" fill="#753975" d="M 233.5,351.5 C 233.5,364.167 233.5,376.833 233.5,389.5C 232.432,390.434 231.099,390.768 229.5,390.5C 229.5,377.833 229.5,365.167 229.5,352.5C 230.568,351.566 231.901,351.232 233.5,351.5 Z"/></g>
<g><path style="opacity:0.981" fill="#b03652" d="M 158.5,352.5 C 160.216,352.629 161.883,352.962 163.5,353.5C 163.5,366.167 163.5,378.833 163.5,391.5C 161.883,390.962 160.216,390.629 158.5,390.5C 158.5,377.833 158.5,365.167 158.5,352.5 Z"/></g>
<g><path style="opacity:0.979" fill="#793972" d="M 229.5,352.5 C 229.5,365.167 229.5,377.833 229.5,390.5C 227.565,391.15 225.565,391.483 223.5,391.5C 223.5,378.833 223.5,366.167 223.5,353.5C 225.435,352.85 227.435,352.517 229.5,352.5 Z"/></g>
<g><path style="opacity:0.979" fill="#ab3655" d="M 163.5,353.5 C 165.806,353.993 168.139,354.326 170.5,354.5C 170.5,367.167 170.5,379.833 170.5,392.5C 168.236,391.781 165.903,391.448 163.5,391.5C 163.5,378.833 163.5,366.167 163.5,353.5 Z"/></g>
<g><path style="opacity:0.974" fill="#80396e" d="M 221.5,353.5 C 221.5,366.167 221.5,378.833 221.5,391.5C 219.283,392.369 216.95,392.702 214.5,392.5C 214.5,379.833 214.5,367.167 214.5,354.5C 216.903,354.552 219.236,354.219 221.5,353.5 Z"/></g>
<g><path style="opacity:0.984" fill="#7c3970" d="M 221.5,353.5 C 222.167,353.5 222.833,353.5 223.5,353.5C 223.5,366.167 223.5,378.833 223.5,391.5C 222.833,391.5 222.167,391.5 221.5,391.5C 221.5,378.833 221.5,366.167 221.5,353.5 Z"/></g>
<g><path style="opacity:0.979" fill="#a53659" d="M 170.5,354.5 C 172.806,354.993 175.139,355.326 177.5,355.5C 177.5,367.833 177.5,380.167 177.5,392.5C 175.167,392.5 172.833,392.5 170.5,392.5C 170.5,379.833 170.5,367.167 170.5,354.5 Z"/></g>
<g><path style="opacity:0.983" fill="#86396b" d="M 214.5,354.5 C 214.5,367.167 214.5,379.833 214.5,392.5C 212.901,392.232 211.568,392.566 210.5,393.5C 209.5,393.5 208.5,393.5 207.5,393.5C 207.5,380.833 207.5,368.167 207.5,355.5C 209.95,355.702 212.283,355.369 214.5,354.5 Z"/></g>
<g><path style="opacity:0.973" fill="#a0375c" d="M 177.5,355.5 C 178.833,355.5 180.167,355.5 181.5,355.5C 181.5,368.167 181.5,380.833 181.5,393.5C 180.833,393.5 180.167,393.5 179.5,393.5C 179.158,392.662 178.492,392.328 177.5,392.5C 177.5,380.167 177.5,367.833 177.5,355.5 Z"/></g>
<g><path style="opacity:0.966" fill="#9e375e" d="M 181.5,355.5 C 182.609,355.557 183.609,355.89 184.5,356.5C 184.5,368.833 184.5,381.167 184.5,393.5C 183.5,393.5 182.5,393.5 181.5,393.5C 181.5,380.833 181.5,368.167 181.5,355.5 Z"/></g>
<g><path style="opacity:0.976" fill="#8c3868" d="M 207.5,355.5 C 207.5,368.167 207.5,380.833 207.5,393.5C 204.833,393.5 202.167,393.5 199.5,393.5C 199.5,381.167 199.5,368.833 199.5,356.5C 202.167,356.167 204.833,355.833 207.5,355.5 Z"/></g>
<g><path style="opacity:0.982" fill="#993761" d="M 184.5,356.5 C 187.167,356.5 189.833,356.5 192.5,356.5C 192.5,368.833 192.5,381.167 192.5,393.5C 189.833,393.5 187.167,393.5 184.5,393.5C 184.5,381.167 184.5,368.833 184.5,356.5 Z"/></g>
<g><path style="opacity:0.987" fill="#943763" d="M 192.5,356.5 C 193.167,356.5 193.833,356.5 194.5,356.5C 194.5,368.833 194.5,381.167 194.5,393.5C 193.833,393.5 193.167,393.5 192.5,393.5C 192.5,381.167 192.5,368.833 192.5,356.5 Z"/></g>
<g><path style="opacity:0.986" fill="#913764" d="M 194.5,356.5 C 196.167,356.5 197.833,356.5 199.5,356.5C 199.5,368.833 199.5,381.167 199.5,393.5C 197.833,393.5 196.167,393.5 194.5,393.5C 194.5,381.167 194.5,368.833 194.5,356.5 Z"/></g>
</svg>
