833 bytes → 465 bytes 55.82%

<svg xmlns="http://www.w3.org/2000/svg" width="657" height="197" style="shape-rendering:geometricPrecision;text-rendering:geometricPrecision;image-rendering:optimizeQuality;fill-rule:evenodd;clip-rule:evenodd"><path fill="#ec1c23" d="M-.5-.5h657v50h-74v147h-50v-147h-106a200.652 200.652 0 0 1-1.5 33c-3.167 7.167-8.333 12.333-15.5 15.5 8.57 2.904 14.07 8.737 16.5 17.5a960.77 960.77 0 0 1 0 62c-3.112 9.947-9.612 16.281-19.5 19h-177v-124c47.335.167 94.668 0 142-.5 4.34-2.353 6.007-6.02 5-11 .98-5.34-1.02-9.007-6-11-123.666-.5-247.333-.667-371-.5v-50Zm280 123a3958.7 3958.7 0 0 1 89 .5c5.605 1.774 8.271 5.607 8 11.5.271 5.893-2.395 9.726-8 11.5a3958.7 3958.7 0 0 1-89 .5v-24Z" style="opacity:.988"/><path fill="#ec1c23" d="M-.5 72.5h197v50h-147v24h147v50H-.5v-124Z" style="opacity:.983"/></svg>