<svg xmlns="http://www.w3.org/2000/svg" version="1.1" width="193px" height="194px" viewBox="0  0  600  600" style="shape-rendering:geometricPrecision; text-rendering:geometricPrecision; image-rendering:optimizeQuality; fill-rule:evenodd; clip-rule:evenodd" xmlns:xlink="http://www.w3.org/1999/xlink">
<g><path style="opacity:0.979" fill="#ec1c23" d="M  175.5,-0.5 C  188.833,-0.5  202.167,-0.5  215.5,-0.5C  282.371,8.56478  333.205,41.8981  368,99.5C  381.284,123.668  389.451,149.335  392.5,176.5C  392.5,189.5  392.5,202.5  392.5,215.5C  383.817,283.307  350.15,334.474  291.5,369C  282.931,373.954  273.931,377.788  264.5,380.5C  264.5,325.5  264.5,270.5  264.5,215.5C  219.499,215.333  174.499,215.5  129.5,216C  144.596,253.718  172.263,269.385  212.5,263C  225.895,259.474  237.228,252.641  246.5,242.5C  247.824,258.397  247.824,274.23  246.5,290C  203.44,310.753  163.107,306.419  125.5,277C  105.96,259.425  94.1265,237.591  90,211.5C  89.6667,167.167  89.3333,122.833  89,78.5C  41.8773,121.955  26.2106,174.955  42,237.5C  61.6364,299.806  103.136,338.639  166.5,354C  189.447,358.019  212.114,356.853  234.5,350.5C  235.833,363.5  235.833,376.5  234.5,389.5C  226.418,391.128  218.418,392.461  210.5,393.5C  200.167,393.5  189.833,393.5  179.5,393.5C  89.9479,383.797  32.1146,335.797  6,249.5C  3.35494,238.114  1.18827,226.781 -0.5,215.5C -0.5,201.833 -0.5,188.167 -0.5,174.5C  9.90002,95.7637  51.9,41.4304  125.5,11.5C  126.333,45.8285  126.833,80.1618  127,114.5C  165.486,85.2027  206.319,81.7027  249.5,104C  277.787,121.063  294.787,145.897  300.5,178.5C  318.178,178.616  335.845,178.283  353.5,177.5C  343.829,114.995  309.829,71.495  251.5,47C  219.751,35.1716  187.584,33.6716  155,42.5C  154.333,29.5  154.333,16.5  155,3.5C  161.901,1.99152  168.734,0.658188  175.5,-0.5 Z M  186.5,127.5 C  215.069,125.704  237.569,136.371  254,159.5C  257.637,165.433  260.137,171.766  261.5,178.5C  217.5,178.5  173.5,178.5  129.5,178.5C  138.773,150.557  157.773,133.557  186.5,127.5 Z M  302.5,215.5 C  319.5,215.5  336.5,215.5  353.5,215.5C  348.55,254.403  331.717,287.07  303,313.5C  302.5,280.835  302.333,248.168  302.5,215.5 Z"/></g>
</svg>
