<?xml version="1.0" encoding="UTF-8"?>
<!DOCTYPE svg PUBLIC "-//W3C//DTD SVG 1.1//EN" "http://www.w3.org/Graphics/SVG/1.1/DTD/svg11.dtd">
<svg xmlns="http://www.w3.org/2000/svg" version="1.1" width="393px" height="394px" style="shape-rendering:geometricPrecision; text-rendering:geometricPrecision; image-rendering:optimizeQuality; fill-rule:evenodd; clip-rule:evenodd" xmlns:xlink="http://www.w3.org/1999/xlink">
<g><path style="opacity:0.978" fill="#40797f" d="M 175.5,-0.5 C 179.833,-0.5 184.167,-0.5 188.5,-0.5C 188.5,11.8333 188.5,24.1667 188.5,36.5C 183.331,37.3809 177.998,38.0475 172.5,38.5C 172.5,25.8333 172.5,13.1667 172.5,0.5C 173.791,0.737305 174.791,0.403972 175.5,-0.5 Z"/></g>
<g><path style="opacity:1" fill="#437d7e" d="M 188.5,-0.5 C 189.833,-0.5 191.167,-0.5 192.5,-0.5C 192.5,11.8333 192.5,24.1667 192.5,36.5C 191.167,36.5 189.833,36.5 188.5,36.5C 188.5,24.1667 188.5,11.8333 188.5,-0.5 Z"/></g>
<g><path style="opacity:1" fill="#447e7c" d="M 192.5,-0.5 C 193.167,-0.5 193.833,-0.5 194.5,-0.5C 194.5,11.8333 194.5,24.1667 194.5,36.5C 193.833,36.5 193.167,36.5 192.5,36.5C 192.5,24.1667 192.5,11.8333 192.5,-0.5 Z"/></g>
<g><path style="opacity:1" fill="#457f7d" d="M 194.5,-0.5 C 195.833,-0.5 197.167,-0.5 198.5,-0.5C 198.5,11.8333 198.5,24.1667 198.5,36.5C 197.167,36.5 195.833,36.5 194.5,36.5C 194.5,24.1667 194.5,11.8333 194.5,-0.5 Z"/></g>
<g><path style="opacity:0.987" fill="#47817b" d="M 198.5,-0.5 C 202.5,-0.5 206.5,-0.5 210.5,-0.5C 210.5,12.1667 210.5,24.8333 210.5,37.5C 206.481,37.3542 202.481,37.0209 198.5,36.5C 198.5,24.1667 198.5,11.8333 198.5,-0.5 Z"/></g>
<g><path style="opacity:0.979" fill="#488478" d="M 210.5,-0.5 C 212.167,-0.5 213.833,-0.5 215.5,-0.5C 216.568,0.434475 217.901,0.767809 219.5,0.5C 219.5,13.1667 219.5,25.8333 219.5,38.5C 216.482,38.2962 213.482,37.9629 210.5,37.5C 210.5,24.8333 210.5,12.1667 210.5,-0.5 Z"/></g>
<g><path style="opacity:0.978" fill="#3d7482" d="M 172.5,0.5 C 172.5,13.1667 172.5,25.8333 172.5,38.5C 168.054,39.1218 163.721,40.1218 159.5,41.5C 159.5,28.5 159.5,15.5 159.5,2.5C 163.772,1.51033 168.106,0.843664 172.5,0.5 Z"/></g>
<g><path style="opacity:0.978" fill="#4b8677" d="M 219.5,0.5 C 220.5,0.5 221.5,0.5 222.5,0.5C 222.5,13.5 222.5,26.5 222.5,39.5C 221.609,38.8902 220.609,38.5569 219.5,38.5C 219.5,25.8333 219.5,13.1667 219.5,0.5 Z"/></g>
<g><path style="opacity:0.977" fill="#4b8876" d="M 222.5,0.5 C 223.609,0.556884 224.609,0.890217 225.5,1.5C 225.5,14.1667 225.5,26.8333 225.5,39.5C 224.5,39.5 223.5,39.5 222.5,39.5C 222.5,26.5 222.5,13.5 222.5,0.5 Z"/></g>
<g><path style="opacity:0.975" fill="#4c8975" d="M 225.5,1.5 C 226.5,1.5 227.5,1.5 228.5,1.5C 228.5,14.5 228.5,27.5 228.5,40.5C 227.391,40.4431 226.391,40.1098 225.5,39.5C 225.5,26.8333 225.5,14.1667 225.5,1.5 Z"/></g>
<g><path style="opacity:0.974" fill="#4e8c73" d="M 228.5,1.5 C 234.034,2.46836 239.368,3.8017 244.5,5.5C 244.5,18.5 244.5,31.5 244.5,44.5C 239.221,42.9628 233.888,41.6295 228.5,40.5C 228.5,27.5 228.5,14.5 228.5,1.5 Z"/></g>
<g><path style="opacity:0.828" fill="#3b7284" d="M 159.5,2.5 C 159.5,15.5 159.5,28.5 159.5,41.5C 157.856,41.2865 156.356,41.6198 155,42.5C 154.333,29.5 154.333,16.5 155,3.5C 156.356,2.61983 157.856,2.28649 159.5,2.5 Z"/></g>
<g><path style="opacity:0.982" fill="#509071" d="M 244.5,5.5 C 245.959,5.43255 247.292,5.76589 248.5,6.5C 248.5,19.5 248.5,32.5 248.5,45.5C 247.041,45.5674 245.708,45.2341 244.5,44.5C 244.5,31.5 244.5,18.5 244.5,5.5 Z"/></g>
<g><path style="opacity:0.977" fill="#519170" d="M 248.5,6.5 C 249.167,6.5 249.833,6.5 250.5,6.5C 250.5,19.8333 250.5,33.1667 250.5,46.5C 249.508,46.6716 248.842,46.3382 248.5,45.5C 248.5,32.5 248.5,19.5 248.5,6.5 Z"/></g>
<g><path style="opacity:0.978" fill="#53936e" d="M 250.5,6.5 C 253.984,7.65671 257.317,8.99004 260.5,10.5C 260.5,23.8333 260.5,37.1667 260.5,50.5C 257.082,49.3611 253.749,48.0277 250.5,46.5C 250.5,33.1667 250.5,19.8333 250.5,6.5 Z"/></g>
<g><path style="opacity:0.97" fill="#55976b" d="M 260.5,10.5 C 263.715,10.9049 266.715,11.9049 269.5,13.5C 269.5,27.5 269.5,41.5 269.5,55.5C 266.304,54.0713 263.304,52.4046 260.5,50.5C 260.5,37.1667 260.5,23.8333 260.5,10.5 Z"/></g>
<g><path style="opacity:0.993" fill="#376789" d="M 129.5,112.5 C 129.5,133.5 129.5,154.5 129.5,175.5C 129.5,176.5 129.5,177.5 129.5,178.5C 129.5,190.833 129.5,203.167 129.5,215.5C 129.5,215.833 129.5,216.167 129.5,216.5C 129.5,237.5 129.5,258.5 129.5,279.5C 125.88,277.547 122.88,274.881 120.5,271.5C 120.5,185.5 120.5,99.5 120.5,13.5C 122.258,13.1231 123.925,12.4565 125.5,11.5C 126.333,45.8285 126.833,80.1618 127,114.5C 127.708,113.619 128.542,112.953 129.5,112.5 Z"/></g>
<g><path style="opacity:0.994" fill="#35658a" d="M 120.5,13.5 C 120.5,99.5 120.5,185.5 120.5,271.5C 116.788,268.789 113.788,265.456 111.5,261.5C 111.5,180.167 111.5,98.8333 111.5,17.5C 114.618,16.4413 117.618,15.1079 120.5,13.5 Z"/></g>
<g><path style="opacity:0.971" fill="#569a69" d="M 269.5,13.5 C 271.819,13.9925 273.819,14.9925 275.5,16.5C 275.5,30.5 275.5,44.5 275.5,58.5C 273.5,57.5 271.5,56.5 269.5,55.5C 269.5,41.5 269.5,27.5 269.5,13.5 Z"/></g>
<g><path style="opacity:0.974" fill="#589c67" d="M 275.5,16.5 C 276.791,16.2627 277.791,16.596 278.5,17.5C 278.5,31.8333 278.5,46.1667 278.5,60.5C 277.5,59.8333 276.5,59.1667 275.5,58.5C 275.5,44.5 275.5,30.5 275.5,16.5 Z"/></g>
<g><path style="opacity:0.993" fill="#33628b" d="M 111.5,17.5 C 111.5,98.8333 111.5,180.167 111.5,261.5C 107.719,257.376 104.719,252.709 102.5,247.5C 102.5,172.5 102.5,97.5 102.5,22.5C 105.304,20.5954 108.304,18.9287 111.5,17.5 Z"/></g>
<g><path style="opacity:0.97" fill="#5a9e65" d="M 278.5,17.5 C 282.655,18.7417 286.322,20.7417 289.5,23.5C 289.5,38.1667 289.5,52.8333 289.5,67.5C 286.003,64.917 282.336,62.5836 278.5,60.5C 278.5,46.1667 278.5,31.8333 278.5,17.5 Z"/></g>
<g><path style="opacity:0.993" fill="#31608c" d="M 102.5,22.5 C 102.5,97.5 102.5,172.5 102.5,247.5C 100.992,245.819 99.9925,243.819 99.5,241.5C 99.5,168.833 99.5,96.1667 99.5,23.5C 100.391,22.8902 101.391,22.5569 102.5,22.5 Z"/></g>
<g><path style="opacity:0.991" fill="#305e8d" d="M 99.5,23.5 C 99.5,96.1667 99.5,168.833 99.5,241.5C 96.4146,236.647 94.4146,231.314 93.5,225.5C 93.5,159.5 93.5,93.5 93.5,27.5C 95.4632,26.1798 97.4632,24.8465 99.5,23.5 Z"/></g>
<g><path style="opacity:0.977" fill="#5ca062" d="M 289.5,23.5 C 291.284,23.8925 292.95,24.5592 294.5,25.5C 294.5,40.8333 294.5,56.1667 294.5,71.5C 292.809,70.1363 291.142,68.803 289.5,67.5C 289.5,52.8333 289.5,38.1667 289.5,23.5 Z"/></g>
<g><path style="opacity:0.969" fill="#5ea161" d="M 294.5,25.5 C 295.5,25.8333 296.167,26.5 296.5,27.5C 296.5,42.5 296.5,57.5 296.5,72.5C 295.508,72.6716 294.842,72.3382 294.5,71.5C 294.5,56.1667 294.5,40.8333 294.5,25.5 Z"/></g>
<g><path style="opacity:0.981" fill="#2d5c8d" d="M 93.5,27.5 C 93.5,93.5 93.5,159.5 93.5,225.5C 91.735,221.107 90.5683,216.44 90,211.5C 89.6667,167.167 89.3333,122.833 89,78.5C 87.7292,79.8825 86.2292,80.8825 84.5,81.5C 84.5,65.1667 84.5,48.8333 84.5,32.5C 87.3661,30.5675 90.3661,28.9009 93.5,27.5 Z"/></g>
<g><path style="opacity:0.979" fill="#5da260" d="M 296.5,27.5 C 297.492,27.3284 298.158,27.6618 298.5,28.5C 298.5,43.8333 298.5,59.1667 298.5,74.5C 297.5,74.1667 296.833,73.5 296.5,72.5C 296.5,57.5 296.5,42.5 296.5,27.5 Z"/></g>
<g><path style="opacity:0.974" fill="#5ea45e" d="M 298.5,28.5 C 300.853,29.3403 302.853,30.6736 304.5,32.5C 304.5,48.1667 304.5,63.8333 304.5,79.5C 302.091,78.2993 300.091,76.6326 298.5,74.5C 298.5,59.1667 298.5,43.8333 298.5,28.5 Z"/></g>
<g><path style="opacity:0.977" fill="#29598f" d="M 84.5,32.5 C 84.5,48.8333 84.5,65.1667 84.5,81.5C 81.8046,84.5256 79.1379,87.5256 76.5,90.5C 76.5,73.1667 76.5,55.8333 76.5,38.5C 78.8599,36.1468 81.5265,34.1468 84.5,32.5 Z"/></g>
<g><path style="opacity:0.975" fill="#60a65b" d="M 304.5,32.5 C 308.025,33.7589 311.025,35.7589 313.5,38.5C 313.5,55.1667 313.5,71.8333 313.5,88.5C 310.167,85.8333 307.167,82.8333 304.5,79.5C 304.5,63.8333 304.5,48.1667 304.5,32.5 Z"/></g>
<g><path style="opacity:0.971" fill="#61a958" d="M 313.5,38.5 C 316.109,39.4431 318.109,41.1097 319.5,43.5C 319.5,60.8333 319.5,78.1667 319.5,95.5C 316.781,93.7807 314.781,91.4474 313.5,88.5C 313.5,71.8333 313.5,55.1667 313.5,38.5 Z"/></g>
<g><path style="opacity:0.97" fill="#27568f" d="M 76.5,38.5 C 76.5,55.8333 76.5,73.1667 76.5,90.5C 75.5,92.1667 74.1667,93.5 72.5,94.5C 72.5,76.8333 72.5,59.1667 72.5,41.5C 73.4363,40.0256 74.7697,39.0256 76.5,38.5 Z"/></g>
<g><path style="opacity:0.973" fill="#265390" d="M 72.5,41.5 C 72.5,59.1667 72.5,76.8333 72.5,94.5C 68.5189,100.475 64.1856,106.142 59.5,111.5C 59.5,91.8333 59.5,72.1667 59.5,52.5C 63.5149,48.4874 67.8482,44.8207 72.5,41.5 Z"/></g>
<g><path style="opacity:0.958" fill="#63ab56" d="M 319.5,43.5 C 321.404,43.7376 322.738,44.7376 323.5,46.5C 323.5,64.5 323.5,82.5 323.5,100.5C 321.457,99.4206 320.124,97.754 319.5,95.5C 319.5,78.1667 319.5,60.8333 319.5,43.5 Z"/></g>
<g><path style="opacity:0.977" fill="#64ad55" d="M 323.5,46.5 C 325.191,47.8637 326.858,49.197 328.5,50.5C 328.5,69.5 328.5,88.5 328.5,107.5C 326.453,105.45 324.786,103.117 323.5,100.5C 323.5,82.5 323.5,64.5 323.5,46.5 Z"/></g>
<g><path style="opacity:0.971" fill="#66b052" d="M 328.5,50.5 C 331.833,53.1667 334.833,56.1667 337.5,59.5C 337.5,80.5 337.5,101.5 337.5,122.5C 334.252,117.674 331.252,112.674 328.5,107.5C 328.5,88.5 328.5,69.5 328.5,50.5 Z"/></g>
<g><path style="opacity:0.972" fill="#274d91" d="M 59.5,52.5 C 59.5,72.1667 59.5,91.8333 59.5,111.5C 51.7831,125.263 45.4498,139.596 40.5,154.5C 40.5,127.5 40.5,100.5 40.5,73.5C 45.7303,65.598 52.0637,58.598 59.5,52.5 Z"/></g>
<g><path style="opacity:0.969" fill="#67b34f" d="M 337.5,59.5 C 340.55,61.5491 342.883,64.2157 344.5,67.5C 344.5,91.1667 344.5,114.833 344.5,138.5C 341.796,133.409 339.463,128.076 337.5,122.5C 337.5,101.5 337.5,80.5 337.5,59.5 Z"/></g>
<g><path style="opacity:0.97" fill="#69b64d" d="M 344.5,67.5 C 347.55,69.5491 349.883,72.2157 351.5,75.5C 351.5,103.833 351.5,132.167 351.5,160.5C 349.2,153.262 346.867,145.929 344.5,138.5C 344.5,114.833 344.5,91.1667 344.5,67.5 Z"/></g>
<g><path style="opacity:0.982" fill="#284793" d="M 40.5,73.5 C 40.5,100.5 40.5,127.5 40.5,154.5C 37.6395,167.333 35.9728,180.333 35.5,193.5C 36.0458,206.986 37.7125,220.319 40.5,233.5C 40.5,262.167 40.5,290.833 40.5,319.5C 33.9223,312.023 28.5889,303.69 24.5,294.5C 24.5,228.833 24.5,163.167 24.5,97.5C 28.6641,88.6788 33.9974,80.6788 40.5,73.5 Z"/></g>
<g><path style="opacity:0.967" fill="#6bb84b" d="M 351.5,75.5 C 352.401,76.2905 353.068,77.2905 353.5,78.5C 353.5,109.167 353.5,139.833 353.5,170.5C 352.215,167.411 351.549,164.078 351.5,160.5C 351.5,132.167 351.5,103.833 351.5,75.5 Z"/></g>
<g><path style="opacity:0.988" fill="#6bb949" d="M 353.5,78.5 C 356.888,81.5971 359.555,85.2637 361.5,89.5C 361.5,160.5 361.5,231.5 361.5,302.5C 359.218,306.777 356.551,310.777 353.5,314.5C 353.5,283.5 353.5,252.5 353.5,221.5C 353.5,219.5 353.5,217.5 353.5,215.5C 353.5,202.833 353.5,190.167 353.5,177.5C 353.5,175.167 353.5,172.833 353.5,170.5C 353.5,139.833 353.5,109.167 353.5,78.5 Z"/></g>
<g><path style="opacity:0.975" fill="#40797f" d="M 188.5,89.5 C 188.5,102.167 188.5,114.833 188.5,127.5C 183.071,128.524 177.738,129.857 172.5,131.5C 172.5,118.167 172.5,104.833 172.5,91.5C 177.833,90.8333 183.167,90.1667 188.5,89.5 Z"/></g>
<g><path style="opacity:0.98" fill="#437d7e" d="M 188.5,89.5 C 189.833,89.5 191.167,89.5 192.5,89.5C 192.5,102.167 192.5,114.833 192.5,127.5C 191.167,127.5 189.833,127.5 188.5,127.5C 188.5,114.833 188.5,102.167 188.5,89.5 Z"/></g>
<g><path style="opacity:0.974" fill="#447e7c" d="M 192.5,89.5 C 193.167,89.5 193.833,89.5 194.5,89.5C 194.5,102.167 194.5,114.833 194.5,127.5C 193.833,127.5 193.167,127.5 192.5,127.5C 192.5,114.833 192.5,102.167 192.5,89.5 Z"/></g>
<g><path style="opacity:0.975" fill="#457f7d" d="M 194.5,89.5 C 195.833,89.5 197.167,89.5 198.5,89.5C 198.5,102.167 198.5,114.833 198.5,127.5C 197.167,127.5 195.833,127.5 194.5,127.5C 194.5,114.833 194.5,102.167 194.5,89.5 Z"/></g>
<g><path style="opacity:0.98" fill="#47817b" d="M 198.5,89.5 C 202.519,89.6458 206.519,89.9791 210.5,90.5C 210.5,103.5 210.5,116.5 210.5,129.5C 206.606,128.407 202.606,127.74 198.5,127.5C 198.5,114.833 198.5,102.167 198.5,89.5 Z"/></g>
<g><path style="opacity:0.991" fill="#6dbc46" d="M 361.5,89.5 C 364.335,93.1638 366.668,97.1638 368.5,101.5C 368.5,164.5 368.5,227.5 368.5,290.5C 366.668,294.836 364.335,298.836 361.5,302.5C 361.5,231.5 361.5,160.5 361.5,89.5 Z"/></g>
<g><path style="opacity:0.976" fill="#488578" d="M 210.5,90.5 C 213.583,90.916 216.583,91.5826 219.5,92.5C 219.5,105.5 219.5,118.5 219.5,131.5C 216.5,130.833 213.5,130.167 210.5,129.5C 210.5,116.5 210.5,103.5 210.5,90.5 Z"/></g>
<g><path style="opacity:0.975" fill="#3d7482" d="M 172.5,91.5 C 172.5,104.833 172.5,118.167 172.5,131.5C 168.047,133.226 163.714,135.226 159.5,137.5C 159.5,123.5 159.5,109.5 159.5,95.5C 163.849,94.161 168.182,92.8277 172.5,91.5 Z"/></g>
<g><path style="opacity:0.968" fill="#4b8677" d="M 219.5,92.5 C 220.791,92.2627 221.791,92.596 222.5,93.5C 222.5,106.833 222.5,120.167 222.5,133.5C 221.29,133.068 220.29,132.401 219.5,131.5C 219.5,118.5 219.5,105.5 219.5,92.5 Z"/></g>
<g><path style="opacity:0.976" fill="#4b8876" d="M 222.5,93.5 C 223.791,93.2627 224.791,93.596 225.5,94.5C 225.5,107.833 225.5,121.167 225.5,134.5C 224.609,133.89 223.609,133.557 222.5,133.5C 222.5,120.167 222.5,106.833 222.5,93.5 Z"/></g>
<g><path style="opacity:0.984" fill="#4c8975" d="M 225.5,94.5 C 226.791,94.2627 227.791,94.596 228.5,95.5C 228.5,108.833 228.5,122.167 228.5,135.5C 227.391,135.443 226.391,135.11 225.5,134.5C 225.5,121.167 225.5,107.833 225.5,94.5 Z"/></g>
<g><path style="opacity:0.969" fill="#3b7284" d="M 159.5,95.5 C 159.5,109.5 159.5,123.5 159.5,137.5C 157.777,139.218 155.777,140.551 153.5,141.5C 153.5,127.167 153.5,112.833 153.5,98.5C 155.25,97.1302 157.25,96.1302 159.5,95.5 Z"/></g>
<g><path style="opacity:0.974" fill="#4e8c73" d="M 228.5,95.5 C 234.059,96.9084 239.392,98.9084 244.5,101.5C 244.5,116.833 244.5,132.167 244.5,147.5C 239.426,143.084 234.092,139.084 228.5,135.5C 228.5,122.167 228.5,108.833 228.5,95.5 Z"/></g>
<g><path style="opacity:0.99" fill="#264394" d="M 24.5,97.5 C 24.5,163.167 24.5,228.833 24.5,294.5C 22.3256,291.485 20.6589,288.151 19.5,284.5C 19.5,225.167 19.5,165.833 19.5,106.5C 20.4097,103.008 22.0764,100.008 24.5,97.5 Z"/></g>
<g><path style="opacity:0.969" fill="#396d86" d="M 153.5,98.5 C 153.5,112.833 153.5,127.167 153.5,141.5C 146.722,147.936 140.722,154.936 135.5,162.5C 135.5,144.5 135.5,126.5 135.5,108.5C 140.847,104.156 146.847,100.823 153.5,98.5 Z"/></g>
<g><path style="opacity:0.974" fill="#509071" d="M 244.5,101.5 C 245.833,102.167 247.167,102.833 248.5,103.5C 248.5,119.5 248.5,135.5 248.5,151.5C 246.833,150.5 245.5,149.167 244.5,147.5C 244.5,132.167 244.5,116.833 244.5,101.5 Z"/></g>
<g><path style="opacity:0.975" fill="#6ebe43" d="M 368.5,101.5 C 381.596,124.889 389.596,149.889 392.5,176.5C 392.5,189.5 392.5,202.5 392.5,215.5C 389.728,242.149 381.728,267.149 368.5,290.5C 368.5,227.5 368.5,164.5 368.5,101.5 Z"/></g>
<g><path style="opacity:0.965" fill="#519170" d="M 248.5,103.5 C 249.5,103.833 250.167,104.5 250.5,105.5C 250.5,121.833 250.5,138.167 250.5,154.5C 249.094,154.027 248.427,153.027 248.5,151.5C 248.5,135.5 248.5,119.5 248.5,103.5 Z"/></g>
<g><path style="opacity:0.972" fill="#53936e" d="M 250.5,105.5 C 254.078,107.075 257.411,109.075 260.5,111.5C 260.5,131.5 260.5,151.5 260.5,171.5C 257.434,165.704 254.1,160.038 250.5,154.5C 250.5,138.167 250.5,121.833 250.5,105.5 Z"/></g>
<g><path style="opacity:0.988" fill="#254195" d="M 19.5,106.5 C 19.5,165.833 19.5,225.167 19.5,284.5C 18.3263,283.486 17.6596,282.153 17.5,280.5C 17.5,223.833 17.5,167.167 17.5,110.5C 17.6596,108.847 18.3263,107.514 19.5,106.5 Z"/></g>
<g><path style="opacity:0.982" fill="#386a87" d="M 135.5,108.5 C 135.5,126.5 135.5,144.5 135.5,162.5C 135.573,164.027 134.906,165.027 133.5,165.5C 133.5,146.833 133.5,128.167 133.5,109.5C 134.167,109.167 134.833,108.833 135.5,108.5 Z"/></g>
<g><path style="opacity:0.968" fill="#386988" d="M 133.5,109.5 C 133.5,128.167 133.5,146.833 133.5,165.5C 132.679,169.127 131.346,172.46 129.5,175.5C 129.5,154.5 129.5,133.5 129.5,112.5C 130.833,111.5 132.167,110.5 133.5,109.5 Z"/></g>
<g><path style="opacity:0.968" fill="#55986b" d="M 260.5,111.5 C 263.526,114.195 266.526,116.862 269.5,119.5C 269.5,206.167 269.5,292.833 269.5,379.5C 267.883,380.038 266.216,380.371 264.5,380.5C 264.5,325.5 264.5,270.5 264.5,215.5C 263.167,215.5 261.833,215.5 260.5,215.5C 260.5,203.167 260.5,190.833 260.5,178.5C 261.417,176.338 261.417,174.005 260.5,171.5C 260.5,151.5 260.5,131.5 260.5,111.5 Z"/></g>
<g><path style="opacity:0.984" fill="#244095" d="M 17.5,110.5 C 17.5,167.167 17.5,223.833 17.5,280.5C 15.5968,277.47 14.2635,274.137 13.5,270.5C 13.5,220.5 13.5,170.5 13.5,120.5C 14.3143,116.884 15.6477,113.551 17.5,110.5 Z"/></g>
<g><path style="opacity:0.994" fill="#569969" d="M 269.5,119.5 C 271.833,121.167 273.833,123.167 275.5,125.5C 275.5,209.167 275.5,292.833 275.5,376.5C 273.5,377.5 271.5,378.5 269.5,379.5C 269.5,292.833 269.5,206.167 269.5,119.5 Z"/></g>
<g><path style="opacity:0.98" fill="#243f96" d="M 13.5,120.5 C 13.5,170.5 13.5,220.5 13.5,270.5C 11.3987,267.203 10.0653,263.537 9.5,259.5C 9.5,216.833 9.5,174.167 9.5,131.5C 10.0653,127.463 11.3987,123.797 13.5,120.5 Z"/></g>
<g><path style="opacity:0.995" fill="#589c67" d="M 275.5,125.5 C 276.488,126.795 277.488,128.128 278.5,129.5C 278.5,211.5 278.5,293.5 278.5,375.5C 277.609,376.11 276.609,376.443 275.5,376.5C 275.5,292.833 275.5,209.167 275.5,125.5 Z"/></g>
<g><path style="opacity:0.994" fill="#5a9e65" d="M 278.5,129.5 C 283.341,134.354 287.007,140.02 289.5,146.5C 289.5,220.833 289.5,295.167 289.5,369.5C 286.028,371.738 282.362,373.738 278.5,375.5C 278.5,293.5 278.5,211.5 278.5,129.5 Z"/></g>
<g><path style="opacity:0.946" fill="#243c96" d="M 9.5,131.5 C 9.5,174.167 9.5,216.833 9.5,259.5C 4.76203,245.142 1.42869,230.475 -0.5,215.5C -0.5,201.833 -0.5,188.167 -0.5,174.5C 1.30207,159.825 4.6354,145.492 9.5,131.5 Z"/></g>
<g><path style="opacity:0.992" fill="#5ca062" d="M 289.5,146.5 C 291.912,149.368 293.579,152.701 294.5,156.5C 294.5,226.5 294.5,296.5 294.5,366.5C 293.101,367.89 291.434,368.89 289.5,369.5C 289.5,295.167 289.5,220.833 289.5,146.5 Z"/></g>
<g><path style="opacity:0.99" fill="#5ea161" d="M 294.5,156.5 C 295.738,158.214 296.405,160.214 296.5,162.5C 296.5,230.167 296.5,297.833 296.5,365.5C 296.158,366.338 295.492,366.672 294.5,366.5C 294.5,296.5 294.5,226.5 294.5,156.5 Z"/></g>
<g><path style="opacity:0.988" fill="#5da260" d="M 296.5,162.5 C 297.924,164.515 298.59,166.848 298.5,169.5C 298.5,234.5 298.5,299.5 298.5,364.5C 298.158,365.338 297.492,365.672 296.5,365.5C 296.5,297.833 296.5,230.167 296.5,162.5 Z"/></g>
<g><path style="opacity:0.934" fill="#5ea45f" d="M 298.5,169.5 C 299.913,172.219 300.58,175.219 300.5,178.5C 301.833,178.5 303.167,178.5 304.5,178.5C 304.5,190.833 304.5,203.167 304.5,215.5C 303.167,231.486 302.501,247.819 302.5,264.5C 302.667,280.833 302.833,297.167 303,313.5C 303.383,312.944 303.883,312.611 304.5,312.5C 304.5,328.5 304.5,344.5 304.5,360.5C 302.795,362.192 300.795,363.525 298.5,364.5C 298.5,299.5 298.5,234.5 298.5,169.5 Z"/></g>
<g><path style="opacity:0.981" fill="#67b34f" d="M 344.5,177.5 C 344.5,190.167 344.5,202.833 344.5,215.5C 342.167,215.5 339.833,215.5 337.5,215.5C 337.5,203.167 337.5,190.833 337.5,178.5C 339.806,178.007 342.139,177.674 344.5,177.5 Z"/></g>
<g><path style="opacity:0.97" fill="#69b64d" d="M 344.5,177.5 C 346.833,177.5 349.167,177.5 351.5,177.5C 351.5,190.167 351.5,202.833 351.5,215.5C 349.167,215.5 346.833,215.5 344.5,215.5C 344.5,202.833 344.5,190.167 344.5,177.5 Z"/></g>
<g><path style="opacity:0.967" fill="#6bb84b" d="M 351.5,177.5 C 352.167,177.5 352.833,177.5 353.5,177.5C 353.5,190.167 353.5,202.833 353.5,215.5C 352.833,215.5 352.167,215.5 351.5,215.5C 351.5,202.833 351.5,190.167 351.5,177.5 Z"/></g>
<g><path style="opacity:0.987" fill="#386988" d="M 129.5,178.5 C 130.833,178.5 132.167,178.5 133.5,178.5C 133.5,190.833 133.5,203.167 133.5,215.5C 132.167,215.5 130.833,215.5 129.5,215.5C 129.5,203.167 129.5,190.833 129.5,178.5 Z"/></g>
<g><path style="opacity:0.987" fill="#386a87" d="M 133.5,178.5 C 134.167,178.5 134.833,178.5 135.5,178.5C 135.5,190.833 135.5,203.167 135.5,215.5C 134.833,215.5 134.167,215.5 133.5,215.5C 133.5,203.167 133.5,190.833 133.5,178.5 Z"/></g>
<g><path style="opacity:0.987" fill="#396d86" d="M 135.5,178.5 C 141.5,178.5 147.5,178.5 153.5,178.5C 153.5,190.833 153.5,203.167 153.5,215.5C 147.5,215.5 141.5,215.5 135.5,215.5C 135.5,203.167 135.5,190.833 135.5,178.5 Z"/></g>
<g><path style="opacity:0.987" fill="#3b7284" d="M 153.5,178.5 C 155.5,178.5 157.5,178.5 159.5,178.5C 159.5,190.833 159.5,203.167 159.5,215.5C 157.5,215.5 155.5,215.5 153.5,215.5C 153.5,203.167 153.5,190.833 153.5,178.5 Z"/></g>
<g><path style="opacity:0.987" fill="#3d7482" d="M 159.5,178.5 C 163.833,178.5 168.167,178.5 172.5,178.5C 172.5,190.833 172.5,203.167 172.5,215.5C 168.167,215.5 163.833,215.5 159.5,215.5C 159.5,203.167 159.5,190.833 159.5,178.5 Z"/></g>
<g><path style="opacity:0.987" fill="#40797f" d="M 172.5,178.5 C 177.833,178.5 183.167,178.5 188.5,178.5C 188.5,190.833 188.5,203.167 188.5,215.5C 183.167,215.5 177.833,215.5 172.5,215.5C 172.5,203.167 172.5,190.833 172.5,178.5 Z"/></g>
<g><path style="opacity:0.987" fill="#437d7e" d="M 188.5,178.5 C 189.833,178.5 191.167,178.5 192.5,178.5C 192.5,190.833 192.5,203.167 192.5,215.5C 191.167,215.5 189.833,215.5 188.5,215.5C 188.5,203.167 188.5,190.833 188.5,178.5 Z"/></g>
<g><path style="opacity:0.987" fill="#447e7c" d="M 192.5,178.5 C 193.167,178.5 193.833,178.5 194.5,178.5C 194.5,190.833 194.5,203.167 194.5,215.5C 193.833,215.5 193.167,215.5 192.5,215.5C 192.5,203.167 192.5,190.833 192.5,178.5 Z"/></g>
<g><path style="opacity:0.987" fill="#457f7d" d="M 194.5,178.5 C 195.833,178.5 197.167,178.5 198.5,178.5C 198.5,190.833 198.5,203.167 198.5,215.5C 197.167,215.5 195.833,215.5 194.5,215.5C 194.5,203.167 194.5,190.833 194.5,178.5 Z"/></g>
<g><path style="opacity:0.987" fill="#47817b" d="M 198.5,178.5 C 202.5,178.5 206.5,178.5 210.5,178.5C 210.5,190.833 210.5,203.167 210.5,215.5C 206.5,215.5 202.5,215.5 198.5,215.5C 198.5,203.167 198.5,190.833 198.5,178.5 Z"/></g>
<g><path style="opacity:0.987" fill="#488478" d="M 210.5,178.5 C 213.5,178.5 216.5,178.5 219.5,178.5C 219.5,190.833 219.5,203.167 219.5,215.5C 216.5,215.5 213.5,215.5 210.5,215.5C 210.5,203.167 210.5,190.833 210.5,178.5 Z"/></g>
<g><path style="opacity:0.987" fill="#4b8777" d="M 219.5,178.5 C 220.5,178.5 221.5,178.5 222.5,178.5C 222.5,190.833 222.5,203.167 222.5,215.5C 221.5,215.5 220.5,215.5 219.5,215.5C 219.5,203.167 219.5,190.833 219.5,178.5 Z"/></g>
<g><path style="opacity:0.987" fill="#4b8876" d="M 222.5,178.5 C 223.5,178.5 224.5,178.5 225.5,178.5C 225.5,190.833 225.5,203.167 225.5,215.5C 224.5,215.5 223.5,215.5 222.5,215.5C 222.5,203.167 222.5,190.833 222.5,178.5 Z"/></g>
<g><path style="opacity:0.987" fill="#4c8975" d="M 225.5,178.5 C 226.5,178.5 227.5,178.5 228.5,178.5C 228.5,190.833 228.5,203.167 228.5,215.5C 227.5,215.5 226.5,215.5 225.5,215.5C 225.5,203.167 225.5,190.833 225.5,178.5 Z"/></g>
<g><path style="opacity:0.987" fill="#4e8c74" d="M 228.5,178.5 C 233.833,178.5 239.167,178.5 244.5,178.5C 244.5,190.833 244.5,203.167 244.5,215.5C 239.167,215.5 233.833,215.5 228.5,215.5C 228.5,203.167 228.5,190.833 228.5,178.5 Z"/></g>
<g><path style="opacity:0.987" fill="#509071" d="M 244.5,178.5 C 245.833,178.5 247.167,178.5 248.5,178.5C 248.5,190.833 248.5,203.167 248.5,215.5C 247.167,215.5 245.833,215.5 244.5,215.5C 244.5,203.167 244.5,190.833 244.5,178.5 Z"/></g>
<g><path style="opacity:0.987" fill="#519170" d="M 248.5,178.5 C 249.167,178.5 249.833,178.5 250.5,178.5C 250.5,190.833 250.5,203.167 250.5,215.5C 249.833,215.5 249.167,215.5 248.5,215.5C 248.5,203.167 248.5,190.833 248.5,178.5 Z"/></g>
<g><path style="opacity:0.987" fill="#53936e" d="M 250.5,178.5 C 253.833,178.5 257.167,178.5 260.5,178.5C 260.5,190.833 260.5,203.167 260.5,215.5C 257.167,215.5 253.833,215.5 250.5,215.5C 250.5,203.167 250.5,190.833 250.5,178.5 Z"/></g>
<g><path style="opacity:0.987" fill="#60a65b" d="M 304.5,178.5 C 307.5,178.5 310.5,178.5 313.5,178.5C 313.5,190.833 313.5,203.167 313.5,215.5C 310.5,215.5 307.5,215.5 304.5,215.5C 304.5,203.167 304.5,190.833 304.5,178.5 Z"/></g>
<g><path style="opacity:0.993" fill="#61a958" d="M 313.5,178.5 C 315.5,178.5 317.5,178.5 319.5,178.5C 319.5,190.833 319.5,203.167 319.5,215.5C 317.5,215.5 315.5,215.5 313.5,215.5C 313.5,203.167 313.5,190.833 313.5,178.5 Z"/></g>
<g><path style="opacity:0.993" fill="#63ab56" d="M 319.5,178.5 C 320.833,178.5 322.167,178.5 323.5,178.5C 323.5,190.833 323.5,203.167 323.5,215.5C 322.167,215.5 320.833,215.5 319.5,215.5C 319.5,203.167 319.5,190.833 319.5,178.5 Z"/></g>
<g><path style="opacity:0.993" fill="#64ad55" d="M 323.5,178.5 C 325.167,178.5 326.833,178.5 328.5,178.5C 328.5,190.833 328.5,203.167 328.5,215.5C 326.833,215.5 325.167,215.5 323.5,215.5C 323.5,203.167 323.5,190.833 323.5,178.5 Z"/></g>
<g><path style="opacity:0.993" fill="#66b052" d="M 328.5,178.5 C 331.5,178.5 334.5,178.5 337.5,178.5C 337.5,190.833 337.5,203.167 337.5,215.5C 334.5,215.5 331.5,215.5 328.5,215.5C 328.5,203.167 328.5,190.833 328.5,178.5 Z"/></g>
<g><path style="opacity:0.971" fill="#386988" d="M 129.5,216.5 C 131.352,219.551 132.686,222.884 133.5,226.5C 133.5,245.167 133.5,263.833 133.5,282.5C 131.77,281.974 130.436,280.974 129.5,279.5C 129.5,258.5 129.5,237.5 129.5,216.5 Z"/></g>
<g><path style="opacity:0.967" fill="#6bb84b" d="M 353.5,221.5 C 353.5,252.5 353.5,283.5 353.5,314.5C 353.167,315.5 352.5,316.167 351.5,316.5C 351.5,288.167 351.5,259.833 351.5,231.5C 351.753,227.96 352.419,224.627 353.5,221.5 Z"/></g>
<g><path style="opacity:0.97" fill="#386a87" d="M 133.5,226.5 C 134.401,227.29 135.068,228.29 135.5,229.5C 135.5,247.833 135.5,266.167 135.5,284.5C 134.5,284.167 133.833,283.5 133.5,282.5C 133.5,263.833 133.5,245.167 133.5,226.5 Z"/></g>
<g><path style="opacity:0.971" fill="#396d86" d="M 135.5,229.5 C 140.031,237.703 146.031,244.703 153.5,250.5C 153.5,265.167 153.5,279.833 153.5,294.5C 147.178,291.674 141.178,288.341 135.5,284.5C 135.5,266.167 135.5,247.833 135.5,229.5 Z"/></g>
<g><path style="opacity:0.965" fill="#69b64d" d="M 351.5,231.5 C 351.5,259.833 351.5,288.167 351.5,316.5C 349.542,319.792 347.209,322.792 344.5,325.5C 344.5,301.833 344.5,278.167 344.5,254.5C 346.665,246.679 348.999,239.012 351.5,231.5 Z"/></g>
<g><path style="opacity:0.971" fill="#274d91" d="M 40.5,233.5 C 45.4268,249.029 51.7601,264.029 59.5,278.5C 59.5,299.5 59.5,320.5 59.5,341.5C 52.4484,334.782 46.115,327.449 40.5,319.5C 40.5,290.833 40.5,262.167 40.5,233.5 Z"/></g>
<g><path style="opacity:0.731" fill="#508f71" d="M 244.5,290.5 C 244.5,275.167 244.5,259.833 244.5,244.5C 244.811,243.522 245.478,242.855 246.5,242.5C 247.666,258.156 247.833,273.823 247,289.5C 246.329,290.252 245.496,290.586 244.5,290.5 Z"/></g>
<g><path style="opacity:0.974" fill="#4e8c73" d="M 244.5,244.5 C 244.5,259.833 244.5,275.167 244.5,290.5C 239.693,293.9 234.36,296.234 228.5,297.5C 228.5,283.833 228.5,270.167 228.5,256.5C 234.191,252.987 239.524,248.987 244.5,244.5 Z"/></g>
<g><path style="opacity:0.972" fill="#3b7284" d="M 153.5,250.5 C 155.5,251.833 157.5,253.167 159.5,254.5C 159.5,268.5 159.5,282.5 159.5,296.5C 157.5,295.833 155.5,295.167 153.5,294.5C 153.5,279.833 153.5,265.167 153.5,250.5 Z"/></g>
<g><path style="opacity:0.976" fill="#3d7482" d="M 159.5,254.5 C 163.74,257.118 168.074,259.452 172.5,261.5C 172.5,274.5 172.5,287.5 172.5,300.5C 168.03,299.565 163.697,298.232 159.5,296.5C 159.5,282.5 159.5,268.5 159.5,254.5 Z"/></g>
<g><path style="opacity:0.975" fill="#67b34f" d="M 344.5,254.5 C 344.5,278.167 344.5,301.833 344.5,325.5C 342.5,328.167 340.167,330.5 337.5,332.5C 337.5,311.5 337.5,290.5 337.5,269.5C 339.597,264.311 341.93,259.311 344.5,254.5 Z"/></g>
<g><path style="opacity:0.968" fill="#4c8975" d="M 228.5,256.5 C 228.5,270.167 228.5,283.833 228.5,297.5C 227.791,298.404 226.791,298.737 225.5,298.5C 225.5,285.167 225.5,271.833 225.5,258.5C 226.29,257.599 227.29,256.932 228.5,256.5 Z"/></g>
<g><path style="opacity:0.966" fill="#4b8876" d="M 225.5,258.5 C 225.5,271.833 225.5,285.167 225.5,298.5C 224.791,299.404 223.791,299.737 222.5,299.5C 222.5,286.167 222.5,272.833 222.5,259.5C 223.391,258.89 224.391,258.557 225.5,258.5 Z"/></g>
<g><path style="opacity:0.976" fill="#4b8777" d="M 222.5,259.5 C 222.5,272.833 222.5,286.167 222.5,299.5C 221.609,300.11 220.609,300.443 219.5,300.5C 219.5,287.167 219.5,273.833 219.5,260.5C 220.609,260.443 221.609,260.11 222.5,259.5 Z"/></g>
<g><path style="opacity:0.978" fill="#488578" d="M 219.5,260.5 C 219.5,273.833 219.5,287.167 219.5,300.5C 216.417,300.916 213.417,301.583 210.5,302.5C 210.5,289.5 210.5,276.5 210.5,263.5C 213.579,262.696 216.579,261.696 219.5,260.5 Z"/></g>
<g><path style="opacity:0.977" fill="#40797f" d="M 172.5,261.5 C 177.773,262.818 183.107,263.818 188.5,264.5C 188.5,277.167 188.5,289.833 188.5,302.5C 183.07,302.483 177.737,301.817 172.5,300.5C 172.5,287.5 172.5,274.5 172.5,261.5 Z"/></g>
<g><path style="opacity:0.978" fill="#47817b" d="M 210.5,263.5 C 210.5,276.5 210.5,289.5 210.5,302.5C 206.4,302.237 202.4,302.57 198.5,303.5C 198.5,290.833 198.5,278.167 198.5,265.5C 202.336,264.622 206.336,263.956 210.5,263.5 Z"/></g>
<g><path style="opacity:0.974" fill="#437d7e" d="M 188.5,264.5 C 190.099,264.232 191.432,264.566 192.5,265.5C 192.5,278.167 192.5,290.833 192.5,303.5C 191.292,302.766 189.959,302.433 188.5,302.5C 188.5,289.833 188.5,277.167 188.5,264.5 Z"/></g>
<g><path style="opacity:0.98" fill="#447e7c" d="M 192.5,265.5 C 193.167,265.5 193.833,265.5 194.5,265.5C 194.5,278.167 194.5,290.833 194.5,303.5C 193.833,303.5 193.167,303.5 192.5,303.5C 192.5,290.833 192.5,278.167 192.5,265.5 Z"/></g>
<g><path style="opacity:0.98" fill="#457f7d" d="M 194.5,265.5 C 195.833,265.5 197.167,265.5 198.5,265.5C 198.5,278.167 198.5,290.833 198.5,303.5C 197.167,303.5 195.833,303.5 194.5,303.5C 194.5,290.833 194.5,278.167 194.5,265.5 Z"/></g>
<g><path style="opacity:0.974" fill="#66b052" d="M 337.5,269.5 C 337.5,290.5 337.5,311.5 337.5,332.5C 337.631,333.239 337.464,333.906 337,334.5C 334.044,336.722 331.21,339.055 328.5,341.5C 328.5,322.5 328.5,303.5 328.5,284.5C 331.263,279.299 334.263,274.299 337.5,269.5 Z"/></g>
<g><path style="opacity:0.975" fill="#265390" d="M 59.5,278.5 C 63.8013,284.477 68.1347,290.477 72.5,296.5C 72.5,315.167 72.5,333.833 72.5,352.5C 67.8482,349.179 63.5149,345.513 59.5,341.5C 59.5,320.5 59.5,299.5 59.5,278.5 Z"/></g>
<g><path style="opacity:0.974" fill="#64ad55" d="M 328.5,284.5 C 328.5,303.5 328.5,322.5 328.5,341.5C 327.167,343.5 325.5,345.167 323.5,346.5C 323.5,328.167 323.5,309.833 323.5,291.5C 324.934,288.953 326.6,286.619 328.5,284.5 Z"/></g>
<g><path style="opacity:0.986" fill="#63ab56" d="M 323.5,291.5 C 323.5,309.833 323.5,328.167 323.5,346.5C 322.205,347.488 320.872,348.488 319.5,349.5C 319.5,331.833 319.5,314.167 319.5,296.5C 320.864,294.809 322.197,293.142 323.5,291.5 Z"/></g>
<g><path style="opacity:0.972" fill="#61a958" d="M 319.5,296.5 C 319.5,314.167 319.5,331.833 319.5,349.5C 317.54,351.156 315.54,352.823 313.5,354.5C 313.5,337.5 313.5,320.5 313.5,303.5C 315.529,301.142 317.529,298.808 319.5,296.5 Z"/></g>
<g><path style="opacity:0.977" fill="#28568f" d="M 72.5,296.5 C 73.803,298.142 75.1363,299.809 76.5,301.5C 76.5,319.5 76.5,337.5 76.5,355.5C 74.7697,354.974 73.4363,353.974 72.5,352.5C 72.5,333.833 72.5,315.167 72.5,296.5 Z"/></g>
<g><path style="opacity:0.975" fill="#29598f" d="M 76.5,301.5 C 79.1379,304.474 81.8046,307.474 84.5,310.5C 84.5,327.5 84.5,344.5 84.5,361.5C 81.5265,359.853 78.8599,357.853 76.5,355.5C 76.5,337.5 76.5,319.5 76.5,301.5 Z"/></g>
<g><path style="opacity:0.967" fill="#60a65b" d="M 313.5,303.5 C 313.5,320.5 313.5,337.5 313.5,354.5C 310.672,356.748 307.672,358.748 304.5,360.5C 304.5,344.5 304.5,328.5 304.5,312.5C 307.167,309.167 310.167,306.167 313.5,303.5 Z"/></g>
<g><path style="opacity:0.979" fill="#2c5b8d" d="M 84.5,310.5 C 87.5256,313.195 90.5256,315.862 93.5,318.5C 93.5,334.5 93.5,350.5 93.5,366.5C 90.2622,365.262 87.2622,363.596 84.5,361.5C 84.5,344.5 84.5,327.5 84.5,310.5 Z"/></g>
<g><path style="opacity:0.973" fill="#305e8d" d="M 93.5,318.5 C 95.5248,320.196 97.5248,321.863 99.5,323.5C 99.5,339.167 99.5,354.833 99.5,370.5C 97.1184,369.649 95.1184,368.316 93.5,366.5C 93.5,350.5 93.5,334.5 93.5,318.5 Z"/></g>
<g><path style="opacity:0.981" fill="#31608c" d="M 99.5,323.5 C 100.833,324.167 101.833,325.167 102.5,326.5C 102.5,341.5 102.5,356.5 102.5,371.5C 101.391,371.443 100.391,371.11 99.5,370.5C 99.5,354.833 99.5,339.167 99.5,323.5 Z"/></g>
<g><path style="opacity:0.976" fill="#33618b" d="M 102.5,326.5 C 106.025,327.759 109.025,329.759 111.5,332.5C 111.5,347.167 111.5,361.833 111.5,376.5C 108.304,375.071 105.304,373.405 102.5,371.5C 102.5,356.5 102.5,341.5 102.5,326.5 Z"/></g>
<g><path style="opacity:0.974" fill="#35648a" d="M 111.5,332.5 C 114.634,333.901 117.634,335.568 120.5,337.5C 120.5,351.833 120.5,366.167 120.5,380.5C 117.5,379.167 114.5,377.833 111.5,376.5C 111.5,361.833 111.5,347.167 111.5,332.5 Z"/></g>
<g><path style="opacity:0.976" fill="#376789" d="M 120.5,337.5 C 123.696,338.929 126.696,340.595 129.5,342.5C 129.5,356.167 129.5,369.833 129.5,383.5C 126.579,382.304 123.579,381.304 120.5,380.5C 120.5,366.167 120.5,351.833 120.5,337.5 Z"/></g>
<g><path style="opacity:0.98" fill="#386988" d="M 129.5,342.5 C 131.153,342.66 132.486,343.326 133.5,344.5C 133.5,357.833 133.5,371.167 133.5,384.5C 132.167,384.167 130.833,383.833 129.5,383.5C 129.5,369.833 129.5,356.167 129.5,342.5 Z"/></g>
<g><path style="opacity:0.968" fill="#386a87" d="M 133.5,344.5 C 134.167,344.5 134.833,344.5 135.5,344.5C 135.5,358.167 135.5,371.833 135.5,385.5C 134.833,385.167 134.167,384.833 133.5,384.5C 133.5,371.167 133.5,357.833 133.5,344.5 Z"/></g>
<g><path style="opacity:0.973" fill="#396d86" d="M 135.5,344.5 C 141.571,346.853 147.571,349.186 153.5,351.5C 153.5,364.167 153.5,376.833 153.5,389.5C 147.425,388.481 141.425,387.148 135.5,385.5C 135.5,371.833 135.5,358.167 135.5,344.5 Z"/></g>
<g><path style="opacity:0.94" fill="#4d8a74" d="M 228.5,390.5 C 228.5,377.833 228.5,365.167 228.5,352.5C 230.47,351.838 232.47,351.172 234.5,350.5C 235.833,363.5 235.833,376.5 234.5,389.5C 232.591,390.348 230.591,390.682 228.5,390.5 Z"/></g>
<g><path style="opacity:0.98" fill="#3b7284" d="M 153.5,351.5 C 155.565,351.517 157.565,351.85 159.5,352.5C 159.5,365.167 159.5,377.833 159.5,390.5C 157.435,390.483 155.435,390.15 153.5,389.5C 153.5,376.833 153.5,364.167 153.5,351.5 Z"/></g>
<g><path style="opacity:0.978" fill="#3d7482" d="M 159.5,352.5 C 163.743,353.681 168.076,354.348 172.5,354.5C 172.5,367.167 172.5,379.833 172.5,392.5C 168.127,392.018 163.794,391.352 159.5,390.5C 159.5,377.833 159.5,365.167 159.5,352.5 Z"/></g>
<g><path style="opacity:0.972" fill="#4c8975" d="M 228.5,352.5 C 228.5,365.167 228.5,377.833 228.5,390.5C 227.609,391.11 226.609,391.443 225.5,391.5C 225.5,378.833 225.5,366.167 225.5,353.5C 226.209,352.596 227.209,352.263 228.5,352.5 Z"/></g>
<g><path style="opacity:0.972" fill="#4b8777" d="M 222.5,353.5 C 222.5,366.167 222.5,378.833 222.5,391.5C 221.391,391.557 220.391,391.89 219.5,392.5C 219.5,379.833 219.5,367.167 219.5,354.5C 220.209,353.596 221.209,353.263 222.5,353.5 Z"/></g>
<g><path style="opacity:0.985" fill="#4b8876" d="M 222.5,353.5 C 223.5,353.5 224.5,353.5 225.5,353.5C 225.5,366.167 225.5,378.833 225.5,391.5C 224.5,391.5 223.5,391.5 222.5,391.5C 222.5,378.833 222.5,366.167 222.5,353.5 Z"/></g>
<g><path style="opacity:0.978" fill="#40797f" d="M 172.5,354.5 C 177.758,355.427 183.091,356.094 188.5,356.5C 188.5,368.833 188.5,381.167 188.5,393.5C 185.5,393.5 182.5,393.5 179.5,393.5C 177.393,392.532 175.059,392.198 172.5,392.5C 172.5,379.833 172.5,367.167 172.5,354.5 Z"/></g>
<g><path style="opacity:0.983" fill="#488578" d="M 219.5,354.5 C 219.5,367.167 219.5,379.833 219.5,392.5C 216.5,392.5 213.5,392.5 210.5,392.5C 210.5,380.167 210.5,367.833 210.5,355.5C 213.455,354.841 216.455,354.508 219.5,354.5 Z"/></g>
<g><path style="opacity:0.975" fill="#47817b" d="M 210.5,355.5 C 210.5,367.833 210.5,380.167 210.5,392.5C 210.5,392.833 210.5,393.167 210.5,393.5C 206.5,393.5 202.5,393.5 198.5,393.5C 198.5,381.167 198.5,368.833 198.5,356.5C 202.481,355.979 206.481,355.646 210.5,355.5 Z"/></g>
<g><path style="opacity:0.98" fill="#437d7e" d="M 188.5,356.5 C 189.833,356.5 191.167,356.5 192.5,356.5C 192.5,368.833 192.5,381.167 192.5,393.5C 191.167,393.5 189.833,393.5 188.5,393.5C 188.5,381.167 188.5,368.833 188.5,356.5 Z"/></g>
<g><path style="opacity:0.987" fill="#447e7c" d="M 192.5,356.5 C 193.167,356.5 193.833,356.5 194.5,356.5C 194.5,368.833 194.5,381.167 194.5,393.5C 193.833,393.5 193.167,393.5 192.5,393.5C 192.5,381.167 192.5,368.833 192.5,356.5 Z"/></g>
<g><path style="opacity:0.987" fill="#457f7d" d="M 194.5,356.5 C 195.833,356.5 197.167,356.5 198.5,356.5C 198.5,368.833 198.5,381.167 198.5,393.5C 197.167,393.5 195.833,393.5 194.5,393.5C 194.5,381.167 194.5,368.833 194.5,356.5 Z"/></g>
</svg>
