<?xml version="1.0" encoding="UTF-8"?>
<!DOCTYPE svg PUBLIC "-//W3C//DTD SVG 1.1//EN" "http://www.w3.org/Graphics/SVG/1.1/DTD/svg11.dtd">
<svg xmlns="http://www.w3.org/2000/svg" version="1.1" width="657px" height="197px" style="shape-rendering:geometricPrecision; text-rendering:geometricPrecision; image-rendering:optimizeQuality; fill-rule:evenodd; clip-rule:evenodd" xmlns:xlink="http://www.w3.org/1999/xlink">
<g><path style="opacity:0.97" fill="#ec1c24" d="M -0.5,-0.5 C 4.83333,-0.5 10.1667,-0.5 15.5,-0.5C 15.5,16.1667 15.5,32.8333 15.5,49.5C 10.1667,49.5 4.83333,49.5 -0.5,49.5C -0.5,32.8333 -0.5,16.1667 -0.5,-0.5 Z"/></g>
<g><path style="opacity:0.985" fill="#e91c27" d="M 15.5,-0.5 C 19.8333,-0.5 24.1667,-0.5 28.5,-0.5C 28.5,16.1667 28.5,32.8333 28.5,49.5C 24.1667,49.5 19.8333,49.5 15.5,49.5C 15.5,32.8333 15.5,16.1667 15.5,-0.5 Z"/></g>
<g><path style="opacity:0.985" fill="#e51f2a" d="M 28.5,-0.5 C 32.8333,-0.5 37.1667,-0.5 41.5,-0.5C 41.5,16.1667 41.5,32.8333 41.5,49.5C 37.1667,49.5 32.8333,49.5 28.5,49.5C 28.5,32.8333 28.5,16.1667 28.5,-0.5 Z"/></g>
<g><path style="opacity:0.985" fill="#e31f2b" d="M 41.5,-0.5 C 42.1667,-0.5 42.8333,-0.5 43.5,-0.5C 43.5,16.1667 43.5,32.8333 43.5,49.5C 42.8333,49.5 42.1667,49.5 41.5,49.5C 41.5,32.8333 41.5,16.1667 41.5,-0.5 Z"/></g>
<g><path style="opacity:0.985" fill="#e21f2d" d="M 43.5,-0.5 C 46.8333,-0.5 50.1667,-0.5 53.5,-0.5C 53.5,16.1667 53.5,32.8333 53.5,49.5C 50.1667,49.5 46.8333,49.5 43.5,49.5C 43.5,32.8333 43.5,16.1667 43.5,-0.5 Z"/></g>
<g><path style="opacity:0.985" fill="#de212f" d="M 53.5,-0.5 C 59.5,-0.5 65.5,-0.5 71.5,-0.5C 71.5,16.1667 71.5,32.8333 71.5,49.5C 65.5,49.5 59.5,49.5 53.5,49.5C 53.5,32.8333 53.5,16.1667 53.5,-0.5 Z"/></g>
<g><path style="opacity:0.985" fill="#da2331" d="M 71.5,-0.5 C 72.5,-0.5 73.5,-0.5 74.5,-0.5C 74.5,16.1667 74.5,32.8333 74.5,49.5C 73.5,49.5 72.5,49.5 71.5,49.5C 71.5,32.8333 71.5,16.1667 71.5,-0.5 Z"/></g>
<g><path style="opacity:0.985" fill="#d72334" d="M 74.5,-0.5 C 81.8333,-0.5 89.1667,-0.5 96.5,-0.5C 96.5,16.1667 96.5,32.8333 96.5,49.5C 89.1667,49.5 81.8333,49.5 74.5,49.5C 74.5,32.8333 74.5,16.1667 74.5,-0.5 Z"/></g>
<g><path style="opacity:0.985" fill="#d32437" d="M 96.5,-0.5 C 99.1667,-0.5 101.833,-0.5 104.5,-0.5C 104.5,16.1667 104.5,32.8333 104.5,49.5C 101.833,49.5 99.1667,49.5 96.5,49.5C 96.5,32.8333 96.5,16.1667 96.5,-0.5 Z"/></g>
<g><path style="opacity:0.985" fill="#d02639" d="M 104.5,-0.5 C 108.833,-0.5 113.167,-0.5 117.5,-0.5C 117.5,16.1667 117.5,32.8333 117.5,49.5C 113.167,49.5 108.833,49.5 104.5,49.5C 104.5,32.8333 104.5,16.1667 104.5,-0.5 Z"/></g>
<g><path style="opacity:0.985" fill="#cc263c" d="M 117.5,-0.5 C 122.5,-0.5 127.5,-0.5 132.5,-0.5C 132.5,16.1667 132.5,32.8333 132.5,49.5C 127.5,49.5 122.5,49.5 117.5,49.5C 117.5,32.8333 117.5,16.1667 117.5,-0.5 Z"/></g>
<g><path style="opacity:0.985" fill="#c8283f" d="M 132.5,-0.5 C 136.833,-0.5 141.167,-0.5 145.5,-0.5C 145.5,16.1667 145.5,32.8333 145.5,49.5C 141.167,49.5 136.833,49.5 132.5,49.5C 132.5,32.8333 132.5,16.1667 132.5,-0.5 Z"/></g>
<g><path style="opacity:0.985" fill="#c42942" d="M 145.5,-0.5 C 150.5,-0.5 155.5,-0.5 160.5,-0.5C 160.5,16.1667 160.5,32.8333 160.5,49.5C 155.5,49.5 150.5,49.5 145.5,49.5C 145.5,32.8333 145.5,16.1667 145.5,-0.5 Z"/></g>
<g><path style="opacity:0.985" fill="#c22a45" d="M 160.5,-0.5 C 162.167,-0.5 163.833,-0.5 165.5,-0.5C 165.5,16.1667 165.5,32.8333 165.5,49.5C 163.833,49.5 162.167,49.5 160.5,49.5C 160.5,32.8333 160.5,16.1667 160.5,-0.5 Z"/></g>
<g><path style="opacity:0.985" fill="#c02a46" d="M 165.5,-0.5 C 169.5,-0.5 173.5,-0.5 177.5,-0.5C 177.5,16.1667 177.5,32.8333 177.5,49.5C 173.5,49.5 169.5,49.5 165.5,49.5C 165.5,32.8333 165.5,16.1667 165.5,-0.5 Z"/></g>
<g><path style="opacity:0.985" fill="#bc2c49" d="M 177.5,-0.5 C 181.167,-0.5 184.833,-0.5 188.5,-0.5C 188.5,16.1667 188.5,32.8333 188.5,49.5C 184.833,49.5 181.167,49.5 177.5,49.5C 177.5,32.8333 177.5,16.1667 177.5,-0.5 Z"/></g>
<g><path style="opacity:0.985" fill="#ba2c49" d="M 188.5,-0.5 C 189.167,-0.5 189.833,-0.5 190.5,-0.5C 190.5,16.1667 190.5,32.8333 190.5,49.5C 189.833,49.5 189.167,49.5 188.5,49.5C 188.5,32.8333 188.5,16.1667 188.5,-0.5 Z"/></g>
<g><path style="opacity:0.985" fill="#b72c4b" d="M 190.5,-0.5 C 196.5,-0.5 202.5,-0.5 208.5,-0.5C 208.5,16.1667 208.5,32.8333 208.5,49.5C 202.5,49.5 196.5,49.5 190.5,49.5C 190.5,32.8333 190.5,16.1667 190.5,-0.5 Z"/></g>
<g><path style="opacity:0.985" fill="#b12e4f" d="M 208.5,-0.5 C 216.833,-0.5 225.167,-0.5 233.5,-0.5C 233.5,16.1667 233.5,32.8333 233.5,49.5C 225.167,49.5 216.833,49.5 208.5,49.5C 208.5,32.8333 208.5,16.1667 208.5,-0.5 Z"/></g>
<g><path style="opacity:0.985" fill="#ab2f53" d="M 233.5,-0.5 C 241.167,-0.5 248.833,-0.5 256.5,-0.5C 256.5,16.1667 256.5,32.8333 256.5,49.5C 248.833,49.5 241.167,49.5 233.5,49.5C 233.5,32.8333 233.5,16.1667 233.5,-0.5 Z"/></g>
<g><path style="opacity:0.985" fill="#a73056" d="M 256.5,-0.5 C 259.833,-0.5 263.167,-0.5 266.5,-0.5C 266.5,16.1667 266.5,32.8333 266.5,49.5C 263.167,49.5 259.833,49.5 256.5,49.5C 256.5,32.8333 256.5,16.1667 256.5,-0.5 Z"/></g>
<g><path style="opacity:0.985" fill="#a43158" d="M 266.5,-0.5 C 269.5,-0.5 272.5,-0.5 275.5,-0.5C 275.5,16.1667 275.5,32.8333 275.5,49.5C 272.5,49.5 269.5,49.5 266.5,49.5C 266.5,32.8333 266.5,16.1667 266.5,-0.5 Z"/></g>
<g><path style="opacity:0.985" fill="#a33159" d="M 275.5,-0.5 C 276.833,-0.5 278.167,-0.5 279.5,-0.5C 279.5,16.1667 279.5,32.8333 279.5,49.5C 278.167,49.5 276.833,49.5 275.5,49.5C 275.5,32.8333 275.5,16.1667 275.5,-0.5 Z"/></g>
<g><path style="opacity:0.985" fill="#9f325b" d="M 279.5,-0.5 C 286.167,-0.5 292.833,-0.5 299.5,-0.5C 299.5,16.1667 299.5,32.8333 299.5,49.5C 292.833,49.5 286.167,49.5 279.5,49.5C 279.5,32.8333 279.5,16.1667 279.5,-0.5 Z"/></g>
<g><path style="opacity:0.985" fill="#9b325c" d="M 299.5,-0.5 C 300.5,-0.5 301.5,-0.5 302.5,-0.5C 302.5,16.1667 302.5,32.8333 302.5,49.5C 301.5,49.5 300.5,49.5 299.5,49.5C 299.5,32.8333 299.5,16.1667 299.5,-0.5 Z"/></g>
<g><path style="opacity:0.985" fill="#98335f" d="M 302.5,-0.5 C 309.833,-0.5 317.167,-0.5 324.5,-0.5C 324.5,16.1667 324.5,32.8333 324.5,49.5C 317.167,49.5 309.833,49.5 302.5,49.5C 302.5,32.8333 302.5,16.1667 302.5,-0.5 Z"/></g>
<g><path style="opacity:0.985" fill="#933362" d="M 324.5,-0.5 C 329.833,-0.5 335.167,-0.5 340.5,-0.5C 340.5,16.1667 340.5,32.8333 340.5,49.5C 335.167,49.5 329.833,49.5 324.5,49.5C 324.5,32.8333 324.5,16.1667 324.5,-0.5 Z"/></g>
<g><path style="opacity:0.985" fill="#903364" d="M 340.5,-0.5 C 342.833,-0.5 345.167,-0.5 347.5,-0.5C 347.5,16.1667 347.5,32.8333 347.5,49.5C 345.167,49.5 342.833,49.5 340.5,49.5C 340.5,32.8333 340.5,16.1667 340.5,-0.5 Z"/></g>
<g><path style="opacity:0.985" fill="#8c3566" d="M 347.5,-0.5 C 355.167,-0.5 362.833,-0.5 370.5,-0.5C 370.5,16.1667 370.5,32.8333 370.5,49.5C 362.833,49.5 355.167,49.5 347.5,49.5C 347.5,32.8333 347.5,16.1667 347.5,-0.5 Z"/></g>
<g><path style="opacity:0.982" fill="#873569" d="M 370.5,-0.5 C 374.833,-0.5 379.167,-0.5 383.5,-0.5C 383.5,65.1667 383.5,130.833 383.5,196.5C 379.167,196.5 374.833,196.5 370.5,196.5C 370.5,179.5 370.5,162.5 370.5,145.5C 376.62,140.807 378.12,134.807 375,127.5C 373.629,125.959 372.129,124.625 370.5,123.5C 370.5,106.5 370.5,89.5 370.5,72.5C 375.022,70.2892 377.022,66.6225 376.5,61.5C 377.126,56.0843 375.126,52.0843 370.5,49.5C 370.5,32.8333 370.5,16.1667 370.5,-0.5 Z"/></g>
<g><path style="opacity:0.995" fill="#84366b" d="M 383.5,-0.5 C 386.833,-0.5 390.167,-0.5 393.5,-0.5C 393.5,65.1667 393.5,130.833 393.5,196.5C 390.167,196.5 386.833,196.5 383.5,196.5C 383.5,130.833 383.5,65.1667 383.5,-0.5 Z"/></g>
<g><path style="opacity:0.993" fill="#7f366d" d="M 393.5,-0.5 C 401.833,-0.5 410.167,-0.5 418.5,-0.5C 418.5,30.1667 418.5,60.8333 418.5,91.5C 416.073,94.2237 413.073,96.2237 409.5,97.5C 413.073,98.7763 416.073,100.776 418.5,103.5C 418.5,132.167 418.5,160.833 418.5,189.5C 415.343,193.325 411.343,195.659 406.5,196.5C 402.167,196.5 397.833,196.5 393.5,196.5C 393.5,130.833 393.5,65.1667 393.5,-0.5 Z"/></g>
<g><path style="opacity:0.989" fill="#7b376f" d="M 418.5,-0.5 C 419.5,-0.5 420.5,-0.5 421.5,-0.5C 421.5,29.1667 421.5,58.8333 421.5,88.5C 420.833,89.8333 419.833,90.8333 418.5,91.5C 418.5,60.8333 418.5,30.1667 418.5,-0.5 Z"/></g>
<g><path style="opacity:0.972" fill="#793672" d="M 421.5,-0.5 C 428.167,-0.5 434.833,-0.5 441.5,-0.5C 441.5,16.1667 441.5,32.8333 441.5,49.5C 436.5,49.5 431.5,49.5 426.5,49.5C 426.666,59.1724 426.5,68.8391 426,78.5C 425.278,82.2699 423.778,85.6032 421.5,88.5C 421.5,58.8333 421.5,29.1667 421.5,-0.5 Z"/></g>
<g><path style="opacity:0.985" fill="#743774" d="M 441.5,-0.5 C 446.5,-0.5 451.5,-0.5 456.5,-0.5C 456.5,16.1667 456.5,32.8333 456.5,49.5C 451.5,49.5 446.5,49.5 441.5,49.5C 441.5,32.8333 441.5,16.1667 441.5,-0.5 Z"/></g>
<g><path style="opacity:0.985" fill="#713877" d="M 456.5,-0.5 C 458.167,-0.5 459.833,-0.5 461.5,-0.5C 461.5,16.1667 461.5,32.8333 461.5,49.5C 459.833,49.5 458.167,49.5 456.5,49.5C 456.5,32.8333 456.5,16.1667 456.5,-0.5 Z"/></g>
<g><path style="opacity:0.985" fill="#6d3778" d="M 461.5,-0.5 C 467.5,-0.5 473.5,-0.5 479.5,-0.5C 479.5,16.1667 479.5,32.8333 479.5,49.5C 473.5,49.5 467.5,49.5 461.5,49.5C 461.5,32.8333 461.5,16.1667 461.5,-0.5 Z"/></g>
<g><path style="opacity:0.985" fill="#67387b" d="M 479.5,-0.5 C 485.5,-0.5 491.5,-0.5 497.5,-0.5C 497.5,16.1667 497.5,32.8333 497.5,49.5C 491.5,49.5 485.5,49.5 479.5,49.5C 479.5,32.8333 479.5,16.1667 479.5,-0.5 Z"/></g>
<g><path style="opacity:0.985" fill="#64387d" d="M 497.5,-0.5 C 499.167,-0.5 500.833,-0.5 502.5,-0.5C 502.5,16.1667 502.5,32.8333 502.5,49.5C 500.833,49.5 499.167,49.5 497.5,49.5C 497.5,32.8333 497.5,16.1667 497.5,-0.5 Z"/></g>
<g><path style="opacity:0.985" fill="#60397e" d="M 502.5,-0.5 C 508.5,-0.5 514.5,-0.5 520.5,-0.5C 520.5,16.1667 520.5,32.8333 520.5,49.5C 514.5,49.5 508.5,49.5 502.5,49.5C 502.5,32.8333 502.5,16.1667 502.5,-0.5 Z"/></g>
<g><path style="opacity:0.945" fill="#593982" d="M 520.5,-0.5 C 526.167,-0.5 531.833,-0.5 537.5,-0.5C 537.5,65.1667 537.5,130.833 537.5,196.5C 535.833,196.5 534.167,196.5 532.5,196.5C 532.5,147.5 532.5,98.5 532.5,49.5C 528.5,49.5 524.5,49.5 520.5,49.5C 520.5,32.8333 520.5,16.1667 520.5,-0.5 Z"/></g>
<g><path style="opacity:0.995" fill="#563a83" d="M 537.5,-0.5 C 538.5,-0.5 539.5,-0.5 540.5,-0.5C 540.5,65.1667 540.5,130.833 540.5,196.5C 539.5,196.5 538.5,196.5 537.5,196.5C 537.5,130.833 537.5,65.1667 537.5,-0.5 Z"/></g>
<g><path style="opacity:0.995" fill="#543984" d="M 540.5,-0.5 C 545.5,-0.5 550.5,-0.5 555.5,-0.5C 555.5,65.1667 555.5,130.833 555.5,196.5C 550.5,196.5 545.5,196.5 540.5,196.5C 540.5,130.833 540.5,65.1667 540.5,-0.5 Z"/></g>
<g><path style="opacity:0.995" fill="#4e3987" d="M 555.5,-0.5 C 561.5,-0.5 567.5,-0.5 573.5,-0.5C 573.5,65.1667 573.5,130.833 573.5,196.5C 567.5,196.5 561.5,196.5 555.5,196.5C 555.5,130.833 555.5,65.1667 555.5,-0.5 Z"/></g>
<g><path style="opacity:0.975" fill="#483a88" d="M 573.5,-0.5 C 576.833,-0.5 580.167,-0.5 583.5,-0.5C 583.5,16.1667 583.5,32.8333 583.5,49.5C 582.501,98.3305 582.168,147.33 582.5,196.5C 579.5,196.5 576.5,196.5 573.5,196.5C 573.5,130.833 573.5,65.1667 573.5,-0.5 Z"/></g>
<g><path style="opacity:0.985" fill="#453a8a" d="M 583.5,-0.5 C 585.167,-0.5 586.833,-0.5 588.5,-0.5C 588.5,16.1667 588.5,32.8333 588.5,49.5C 586.833,49.5 585.167,49.5 583.5,49.5C 583.5,32.8333 583.5,16.1667 583.5,-0.5 Z"/></g>
<g><path style="opacity:0.985" fill="#41398c" d="M 588.5,-0.5 C 593.5,-0.5 598.5,-0.5 603.5,-0.5C 603.5,16.1667 603.5,32.8333 603.5,49.5C 598.5,49.5 593.5,49.5 588.5,49.5C 588.5,32.8333 588.5,16.1667 588.5,-0.5 Z"/></g>
<g><path style="opacity:0.985" fill="#3c398e" d="M 603.5,-0.5 C 607.167,-0.5 610.833,-0.5 614.5,-0.5C 614.5,16.1667 614.5,32.8333 614.5,49.5C 610.833,49.5 607.167,49.5 603.5,49.5C 603.5,32.8333 603.5,16.1667 603.5,-0.5 Z"/></g>
<g><path style="opacity:0.985" fill="#393a90" d="M 614.5,-0.5 C 616.167,-0.5 617.833,-0.5 619.5,-0.5C 619.5,16.1667 619.5,32.8333 619.5,49.5C 617.833,49.5 616.167,49.5 614.5,49.5C 614.5,32.8333 614.5,16.1667 614.5,-0.5 Z"/></g>
<g><path style="opacity:0.985" fill="#343a91" d="M 619.5,-0.5 C 623.5,-0.5 627.5,-0.5 631.5,-0.5C 631.5,16.1667 631.5,32.8333 631.5,49.5C 627.5,49.5 623.5,49.5 619.5,49.5C 619.5,32.8333 619.5,16.1667 619.5,-0.5 Z"/></g>
<g><path style="opacity:0.985" fill="#2d3b93" d="M 631.5,-0.5 C 635.167,-0.5 638.833,-0.5 642.5,-0.5C 642.5,16.1667 642.5,32.8333 642.5,49.5C 638.833,49.5 635.167,49.5 631.5,49.5C 631.5,32.8333 631.5,16.1667 631.5,-0.5 Z"/></g>
<g><path style="opacity:0.985" fill="#293b95" d="M 642.5,-0.5 C 644.167,-0.5 645.833,-0.5 647.5,-0.5C 647.5,16.1667 647.5,32.8333 647.5,49.5C 645.833,49.5 644.167,49.5 642.5,49.5C 642.5,32.8333 642.5,16.1667 642.5,-0.5 Z"/></g>
<g><path style="opacity:0.985" fill="#273b96" d="M 647.5,-0.5 C 649.167,-0.5 650.833,-0.5 652.5,-0.5C 652.5,16.1667 652.5,32.8333 652.5,49.5C 650.833,49.5 649.167,49.5 647.5,49.5C 647.5,32.8333 647.5,16.1667 647.5,-0.5 Z"/></g>
<g><path style="opacity:0.801" fill="#243a96" d="M 652.5,-0.5 C 653.833,-0.5 655.167,-0.5 656.5,-0.5C 656.5,16.1667 656.5,32.8333 656.5,49.5C 655.167,49.5 653.833,49.5 652.5,49.5C 652.5,32.8333 652.5,16.1667 652.5,-0.5 Z"/></g>
<g><path style="opacity:0.941" fill="#ec1c24" d="M -0.5,72.5 C 1.16667,72.5 2.83333,72.5 4.5,72.5C 4.5,113.833 4.5,155.167 4.5,196.5C 2.83333,196.5 1.16667,196.5 -0.5,196.5C -0.5,155.167 -0.5,113.833 -0.5,72.5 Z"/></g>
<g><path style="opacity:0.99" fill="#e91c26" d="M 4.5,72.5 C 5.83333,72.5 7.16667,72.5 8.5,72.5C 8.5,113.833 8.5,155.167 8.5,196.5C 7.16667,196.5 5.83333,196.5 4.5,196.5C 4.5,155.167 4.5,113.833 4.5,72.5 Z"/></g>
<g><path style="opacity:0.99" fill="#e51f29" d="M 8.5,72.5 C 9.83333,72.5 11.1667,72.5 12.5,72.5C 12.5,113.833 12.5,155.167 12.5,196.5C 11.1667,196.5 9.83333,196.5 8.5,196.5C 8.5,155.167 8.5,113.833 8.5,72.5 Z"/></g>
<g><path style="opacity:0.99" fill="#e21f2d" d="M 12.5,72.5 C 13.8333,72.5 15.1667,72.5 16.5,72.5C 16.5,113.833 16.5,155.167 16.5,196.5C 15.1667,196.5 13.8333,196.5 12.5,196.5C 12.5,155.167 12.5,113.833 12.5,72.5 Z"/></g>
<g><path style="opacity:0.99" fill="#dd2130" d="M 16.5,72.5 C 18.5,72.5 20.5,72.5 22.5,72.5C 22.5,113.833 22.5,155.167 22.5,196.5C 20.5,196.5 18.5,196.5 16.5,196.5C 16.5,155.167 16.5,113.833 16.5,72.5 Z"/></g>
<g><path style="opacity:0.99" fill="#d72334" d="M 22.5,72.5 C 24.8333,72.5 27.1667,72.5 29.5,72.5C 29.5,113.833 29.5,155.167 29.5,196.5C 27.1667,196.5 24.8333,196.5 22.5,196.5C 22.5,155.167 22.5,113.833 22.5,72.5 Z"/></g>
<g><path style="opacity:0.99" fill="#d22537" d="M 29.5,72.5 C 30.1667,72.5 30.8333,72.5 31.5,72.5C 31.5,113.833 31.5,155.167 31.5,196.5C 30.8333,196.5 30.1667,196.5 29.5,196.5C 29.5,155.167 29.5,113.833 29.5,72.5 Z"/></g>
<g><path style="opacity:0.99" fill="#d0263a" d="M 31.5,72.5 C 32.8333,72.5 34.1667,72.5 35.5,72.5C 35.5,113.833 35.5,155.167 35.5,196.5C 34.1667,196.5 32.8333,196.5 31.5,196.5C 31.5,155.167 31.5,113.833 31.5,72.5 Z"/></g>
<g><path style="opacity:0.99" fill="#cc273c" d="M 35.5,72.5 C 36.8333,72.5 38.1667,72.5 39.5,72.5C 39.5,113.833 39.5,155.167 39.5,196.5C 38.1667,196.5 36.8333,196.5 35.5,196.5C 35.5,155.167 35.5,113.833 35.5,72.5 Z"/></g>
<g><path style="opacity:0.99" fill="#c9283f" d="M 39.5,72.5 C 40.8333,72.5 42.1667,72.5 43.5,72.5C 43.5,113.833 43.5,155.167 43.5,196.5C 42.1667,196.5 40.8333,196.5 39.5,196.5C 39.5,155.167 39.5,113.833 39.5,72.5 Z"/></g>
<g><path style="opacity:0.99" fill="#c52942" d="M 43.5,72.5 C 45.1667,72.5 46.8333,72.5 48.5,72.5C 48.5,113.833 48.5,155.167 48.5,196.5C 46.8333,196.5 45.1667,196.5 43.5,196.5C 43.5,155.167 43.5,113.833 43.5,72.5 Z"/></g>
<g><path style="opacity:0.985" fill="#c02a46" d="M 48.5,72.5 C 50.1667,72.5 51.8333,72.5 53.5,72.5C 53.5,89.1667 53.5,105.833 53.5,122.5C 52.1667,122.5 50.8333,122.5 49.5,122.5C 49.5,130.5 49.5,138.5 49.5,146.5C 49.5,163.167 49.5,179.833 49.5,196.5C 49.1667,196.5 48.8333,196.5 48.5,196.5C 48.5,155.167 48.5,113.833 48.5,72.5 Z"/></g>
<g><path style="opacity:0.985" fill="#bc2c49" d="M 53.5,72.5 C 54.8333,72.5 56.1667,72.5 57.5,72.5C 57.5,89.1667 57.5,105.833 57.5,122.5C 56.1667,122.5 54.8333,122.5 53.5,122.5C 53.5,105.833 53.5,89.1667 53.5,72.5 Z"/></g>
<g><path style="opacity:0.985" fill="#b72c4b" d="M 57.5,72.5 C 59.1667,72.5 60.8333,72.5 62.5,72.5C 62.5,89.1667 62.5,105.833 62.5,122.5C 60.8333,122.5 59.1667,122.5 57.5,122.5C 57.5,105.833 57.5,89.1667 57.5,72.5 Z"/></g>
<g><path style="opacity:0.985" fill="#b22e4f" d="M 62.5,72.5 C 64.8333,72.5 67.1667,72.5 69.5,72.5C 69.5,89.1667 69.5,105.833 69.5,122.5C 67.1667,122.5 64.8333,122.5 62.5,122.5C 62.5,105.833 62.5,89.1667 62.5,72.5 Z"/></g>
<g><path style="opacity:0.985" fill="#ab2f53" d="M 69.5,72.5 C 71.8333,72.5 74.1667,72.5 76.5,72.5C 76.5,89.1667 76.5,105.833 76.5,122.5C 74.1667,122.5 71.8333,122.5 69.5,122.5C 69.5,105.833 69.5,89.1667 69.5,72.5 Z"/></g>
<g><path style="opacity:0.985" fill="#a73056" d="M 76.5,72.5 C 77.5,72.5 78.5,72.5 79.5,72.5C 79.5,89.1667 79.5,105.833 79.5,122.5C 78.5,122.5 77.5,122.5 76.5,122.5C 76.5,105.833 76.5,89.1667 76.5,72.5 Z"/></g>
<g><path style="opacity:0.985" fill="#a43158" d="M 79.5,72.5 C 80.8333,72.5 82.1667,72.5 83.5,72.5C 83.5,89.1667 83.5,105.833 83.5,122.5C 82.1667,122.5 80.8333,122.5 79.5,122.5C 79.5,105.833 79.5,89.1667 79.5,72.5 Z"/></g>
<g><path style="opacity:0.985" fill="#9f325b" d="M 83.5,72.5 C 85.8333,72.5 88.1667,72.5 90.5,72.5C 90.5,89.1667 90.5,105.833 90.5,122.5C 88.1667,122.5 85.8333,122.5 83.5,122.5C 83.5,105.833 83.5,89.1667 83.5,72.5 Z"/></g>
<g><path style="opacity:0.985" fill="#98335f" d="M 90.5,72.5 C 92.8333,72.5 95.1667,72.5 97.5,72.5C 97.5,89.1667 97.5,105.833 97.5,122.5C 95.1667,122.5 92.8333,122.5 90.5,122.5C 90.5,105.833 90.5,89.1667 90.5,72.5 Z"/></g>
<g><path style="opacity:0.985" fill="#933362" d="M 97.5,72.5 C 98.8333,72.5 100.167,72.5 101.5,72.5C 101.5,89.1667 101.5,105.833 101.5,122.5C 100.167,122.5 98.8333,122.5 97.5,122.5C 97.5,105.833 97.5,89.1667 97.5,72.5 Z"/></g>
<g><path style="opacity:0.985" fill="#903363" d="M 101.5,72.5 C 102.167,72.5 102.833,72.5 103.5,72.5C 103.5,89.1667 103.5,105.833 103.5,122.5C 102.833,122.5 102.167,122.5 101.5,122.5C 101.5,105.833 101.5,89.1667 101.5,72.5 Z"/></g>
<g><path style="opacity:0.985" fill="#8c3566" d="M 103.5,72.5 C 105.833,72.5 108.167,72.5 110.5,72.5C 110.5,89.1667 110.5,105.833 110.5,122.5C 108.167,122.5 105.833,122.5 103.5,122.5C 103.5,105.833 103.5,89.1667 103.5,72.5 Z"/></g>
<g><path style="opacity:0.985" fill="#873569" d="M 110.5,72.5 C 111.833,72.5 113.167,72.5 114.5,72.5C 114.5,89.1667 114.5,105.833 114.5,122.5C 113.167,122.5 111.833,122.5 110.5,122.5C 110.5,105.833 110.5,89.1667 110.5,72.5 Z"/></g>
<g><path style="opacity:0.985" fill="#85366b" d="M 114.5,72.5 C 115.5,72.5 116.5,72.5 117.5,72.5C 117.5,89.1667 117.5,105.833 117.5,122.5C 116.5,122.5 115.5,122.5 114.5,122.5C 114.5,105.833 114.5,89.1667 114.5,72.5 Z"/></g>
<g><path style="opacity:0.985" fill="#7f366d" d="M 117.5,72.5 C 120.167,72.5 122.833,72.5 125.5,72.5C 125.5,89.1667 125.5,105.833 125.5,122.5C 122.833,122.5 120.167,122.5 117.5,122.5C 117.5,105.833 117.5,89.1667 117.5,72.5 Z"/></g>
<g><path style="opacity:0.985" fill="#793772" d="M 125.5,72.5 C 127.5,72.5 129.5,72.5 131.5,72.5C 131.5,89.1667 131.5,105.833 131.5,122.5C 129.5,122.5 127.5,122.5 125.5,122.5C 125.5,105.833 125.5,89.1667 125.5,72.5 Z"/></g>
<g><path style="opacity:0.985" fill="#743774" d="M 131.5,72.5 C 133.167,72.5 134.833,72.5 136.5,72.5C 136.5,89.1667 136.5,105.833 136.5,122.5C 134.833,122.5 133.167,122.5 131.5,122.5C 131.5,105.833 131.5,89.1667 131.5,72.5 Z"/></g>
<g><path style="opacity:0.985" fill="#713877" d="M 136.5,72.5 C 137.167,72.5 137.833,72.5 138.5,72.5C 138.5,89.1667 138.5,105.833 138.5,122.5C 137.833,122.5 137.167,122.5 136.5,122.5C 136.5,105.833 136.5,89.1667 136.5,72.5 Z"/></g>
<g><path style="opacity:0.985" fill="#6d3878" d="M 138.5,72.5 C 140.167,72.5 141.833,72.5 143.5,72.5C 143.5,89.1667 143.5,105.833 143.5,122.5C 141.833,122.5 140.167,122.5 138.5,122.5C 138.5,105.833 138.5,89.1667 138.5,72.5 Z"/></g>
<g><path style="opacity:0.985" fill="#67387b" d="M 143.5,72.5 C 145.167,72.5 146.833,72.5 148.5,72.5C 148.5,89.1667 148.5,105.833 148.5,122.5C 146.833,122.5 145.167,122.5 143.5,122.5C 143.5,105.833 143.5,89.1667 143.5,72.5 Z"/></g>
<g><path style="opacity:0.985" fill="#64387d" d="M 148.5,72.5 C 149.167,72.5 149.833,72.5 150.5,72.5C 150.5,89.1667 150.5,105.833 150.5,122.5C 149.833,122.5 149.167,122.5 148.5,122.5C 148.5,105.833 148.5,89.1667 148.5,72.5 Z"/></g>
<g><path style="opacity:0.985" fill="#60387e" d="M 150.5,72.5 C 152.167,72.5 153.833,72.5 155.5,72.5C 155.5,89.1667 155.5,105.833 155.5,122.5C 153.833,122.5 152.167,122.5 150.5,122.5C 150.5,105.833 150.5,89.1667 150.5,72.5 Z"/></g>
<g><path style="opacity:0.985" fill="#5a3981" d="M 155.5,72.5 C 157.5,72.5 159.5,72.5 161.5,72.5C 161.5,89.1667 161.5,105.833 161.5,122.5C 159.5,122.5 157.5,122.5 155.5,122.5C 155.5,105.833 155.5,89.1667 155.5,72.5 Z"/></g>
<g><path style="opacity:0.985" fill="#543984" d="M 161.5,72.5 C 163.167,72.5 164.833,72.5 166.5,72.5C 166.5,89.1667 166.5,105.833 166.5,122.5C 164.833,122.5 163.167,122.5 161.5,122.5C 161.5,105.833 161.5,89.1667 161.5,72.5 Z"/></g>
<g><path style="opacity:0.985" fill="#4d3987" d="M 166.5,72.5 C 168.167,72.5 169.833,72.5 171.5,72.5C 171.5,89.1667 171.5,105.833 171.5,122.5C 169.833,122.5 168.167,122.5 166.5,122.5C 166.5,105.833 166.5,89.1667 166.5,72.5 Z"/></g>
<g><path style="opacity:0.985" fill="#473988" d="M 171.5,72.5 C 172.833,72.5 174.167,72.5 175.5,72.5C 175.5,89.1667 175.5,105.833 175.5,122.5C 174.167,122.5 172.833,122.5 171.5,122.5C 171.5,105.833 171.5,89.1667 171.5,72.5 Z"/></g>
<g><path style="opacity:0.985" fill="#41398c" d="M 175.5,72.5 C 177.167,72.5 178.833,72.5 180.5,72.5C 180.5,89.1667 180.5,105.833 180.5,122.5C 178.833,122.5 177.167,122.5 175.5,122.5C 175.5,105.833 175.5,89.1667 175.5,72.5 Z"/></g>
<g><path style="opacity:0.985" fill="#3b398e" d="M 180.5,72.5 C 181.833,72.5 183.167,72.5 184.5,72.5C 184.5,89.1667 184.5,105.833 184.5,122.5C 183.167,122.5 181.833,122.5 180.5,122.5C 180.5,105.833 180.5,89.1667 180.5,72.5 Z"/></g>
<g><path style="opacity:0.985" fill="#353991" d="M 184.5,72.5 C 185.833,72.5 187.167,72.5 188.5,72.5C 188.5,89.1667 188.5,105.833 188.5,122.5C 187.167,122.5 185.833,122.5 184.5,122.5C 184.5,105.833 184.5,89.1667 184.5,72.5 Z"/></g>
<g><path style="opacity:0.985" fill="#2e3a93" d="M 188.5,72.5 C 189.5,72.5 190.5,72.5 191.5,72.5C 191.5,89.1667 191.5,105.833 191.5,122.5C 190.5,122.5 189.5,122.5 188.5,122.5C 188.5,105.833 188.5,89.1667 188.5,72.5 Z"/></g>
<g><path style="opacity:0.985" fill="#2a3b95" d="M 191.5,72.5 C 192.167,72.5 192.833,72.5 193.5,72.5C 193.5,89.1667 193.5,105.833 193.5,122.5C 192.833,122.5 192.167,122.5 191.5,122.5C 191.5,105.833 191.5,89.1667 191.5,72.5 Z"/></g>
<g><path style="opacity:0.616" fill="#253b96" d="M 193.5,72.5 C 194.5,72.5 195.5,72.5 196.5,72.5C 196.5,89.1667 196.5,105.833 196.5,122.5C 195.5,122.5 194.5,122.5 193.5,122.5C 193.5,105.833 193.5,89.1667 193.5,72.5 Z"/></g>
<g><path style="opacity:0.868" fill="#ae2f50" d="M 233.5,72.5 C 233.5,113.833 233.5,155.167 233.5,196.5C 232.167,196.5 230.833,196.5 229.5,196.5C 229.5,155.167 229.5,113.833 229.5,72.5C 230.833,72.5 232.167,72.5 233.5,72.5 Z"/></g>
<g><path style="opacity:0.992" fill="#ab2f53" d="M 233.5,72.5 C 241.167,72.5 248.833,72.5 256.5,72.5C 256.5,113.833 256.5,155.167 256.5,196.5C 248.833,196.5 241.167,196.5 233.5,196.5C 233.5,155.167 233.5,113.833 233.5,72.5 Z"/></g>
<g><path style="opacity:0.992" fill="#a73056" d="M 256.5,72.5 C 259.833,72.5 263.167,72.5 266.5,72.5C 266.5,113.833 266.5,155.167 266.5,196.5C 263.167,196.5 259.833,196.5 256.5,196.5C 256.5,155.167 256.5,113.833 256.5,72.5 Z"/></g>
<g><path style="opacity:0.992" fill="#a43158" d="M 266.5,72.5 C 269.5,72.5 272.5,72.5 275.5,72.5C 275.5,113.833 275.5,155.167 275.5,196.5C 272.5,196.5 269.5,196.5 266.5,196.5C 266.5,155.167 266.5,113.833 266.5,72.5 Z"/></g>
<g><path style="opacity:0.992" fill="#a33159" d="M 275.5,72.5 C 276.833,72.5 278.167,72.5 279.5,72.5C 279.5,89.1667 279.5,105.833 279.5,122.5C 279.5,130.5 279.5,138.5 279.5,146.5C 279.5,163.167 279.5,179.833 279.5,196.5C 278.167,196.5 276.833,196.5 275.5,196.5C 275.5,155.167 275.5,113.833 275.5,72.5 Z"/></g>
<g><path style="opacity:0.99" fill="#9f325b" d="M 279.5,72.5 C 286.167,72.5 292.833,72.5 299.5,72.5C 299.5,89.1667 299.5,105.833 299.5,122.5C 292.833,122.5 286.167,122.5 279.5,122.5C 279.5,105.833 279.5,89.1667 279.5,72.5 Z"/></g>
<g><path style="opacity:0.99" fill="#9b325c" d="M 299.5,72.5 C 300.5,72.5 301.5,72.5 302.5,72.5C 302.5,89.1667 302.5,105.833 302.5,122.5C 301.5,122.5 300.5,122.5 299.5,122.5C 299.5,105.833 299.5,89.1667 299.5,72.5 Z"/></g>
<g><path style="opacity:0.99" fill="#98335f" d="M 302.5,72.5 C 309.833,72.5 317.167,72.5 324.5,72.5C 324.5,89.1667 324.5,105.833 324.5,122.5C 317.167,122.5 309.833,122.5 302.5,122.5C 302.5,105.833 302.5,89.1667 302.5,72.5 Z"/></g>
<g><path style="opacity:0.99" fill="#933362" d="M 324.5,72.5 C 329.833,72.5 335.167,72.5 340.5,72.5C 340.5,89.1667 340.5,105.833 340.5,122.5C 335.167,122.5 329.833,122.5 324.5,122.5C 324.5,105.833 324.5,89.1667 324.5,72.5 Z"/></g>
<g><path style="opacity:0.99" fill="#903364" d="M 340.5,72.5 C 342.833,72.5 345.167,72.5 347.5,72.5C 347.5,89.1667 347.5,105.833 347.5,122.5C 345.167,122.5 342.833,122.5 340.5,122.5C 340.5,105.833 340.5,89.1667 340.5,72.5 Z"/></g>
<g><path style="opacity:0.989" fill="#8c3566" d="M 347.5,72.5 C 355.167,72.5 362.833,72.5 370.5,72.5C 370.5,89.5 370.5,106.5 370.5,123.5C 362.889,122.566 355.222,122.233 347.5,122.5C 347.5,105.833 347.5,89.1667 347.5,72.5 Z"/></g>
<g><path style="opacity:0.984" fill="#7b376f" d="M 418.5,103.5 C 419.833,104.167 420.833,105.167 421.5,106.5C 421.5,133.167 421.5,159.833 421.5,186.5C 420.833,187.833 419.833,188.833 418.5,189.5C 418.5,160.833 418.5,132.167 418.5,103.5 Z"/></g>
<g><path style="opacity:0.886" fill="#7a3771" d="M 421.5,106.5 C 423.778,109.397 425.278,112.73 426,116.5C 426.667,136.833 426.667,157.167 426,177.5C 425.337,181.035 423.837,184.035 421.5,186.5C 421.5,159.833 421.5,133.167 421.5,106.5 Z"/></g>
<g><path style="opacity:0.984" fill="#8c3566" d="M 370.5,145.5 C 370.5,162.5 370.5,179.5 370.5,196.5C 362.833,196.5 355.167,196.5 347.5,196.5C 347.5,179.833 347.5,163.167 347.5,146.5C 355.222,146.767 362.889,146.434 370.5,145.5 Z"/></g>
<g><path style="opacity:0.985" fill="#c02a46" d="M 49.5,146.5 C 50.8333,146.5 52.1667,146.5 53.5,146.5C 53.5,163.167 53.5,179.833 53.5,196.5C 52.1667,196.5 50.8333,196.5 49.5,196.5C 49.5,179.833 49.5,163.167 49.5,146.5 Z"/></g>
<g><path style="opacity:0.985" fill="#bc2c49" d="M 53.5,146.5 C 54.8333,146.5 56.1667,146.5 57.5,146.5C 57.5,163.167 57.5,179.833 57.5,196.5C 56.1667,196.5 54.8333,196.5 53.5,196.5C 53.5,179.833 53.5,163.167 53.5,146.5 Z"/></g>
<g><path style="opacity:0.985" fill="#b72c4b" d="M 57.5,146.5 C 59.1667,146.5 60.8333,146.5 62.5,146.5C 62.5,163.167 62.5,179.833 62.5,196.5C 60.8333,196.5 59.1667,196.5 57.5,196.5C 57.5,179.833 57.5,163.167 57.5,146.5 Z"/></g>
<g><path style="opacity:0.985" fill="#b22e4f" d="M 62.5,146.5 C 64.8333,146.5 67.1667,146.5 69.5,146.5C 69.5,163.167 69.5,179.833 69.5,196.5C 67.1667,196.5 64.8333,196.5 62.5,196.5C 62.5,179.833 62.5,163.167 62.5,146.5 Z"/></g>
<g><path style="opacity:0.985" fill="#ab2f53" d="M 69.5,146.5 C 71.8333,146.5 74.1667,146.5 76.5,146.5C 76.5,163.167 76.5,179.833 76.5,196.5C 74.1667,196.5 71.8333,196.5 69.5,196.5C 69.5,179.833 69.5,163.167 69.5,146.5 Z"/></g>
<g><path style="opacity:0.985" fill="#a73056" d="M 76.5,146.5 C 77.5,146.5 78.5,146.5 79.5,146.5C 79.5,163.167 79.5,179.833 79.5,196.5C 78.5,196.5 77.5,196.5 76.5,196.5C 76.5,179.833 76.5,163.167 76.5,146.5 Z"/></g>
<g><path style="opacity:0.985" fill="#a43158" d="M 79.5,146.5 C 80.8333,146.5 82.1667,146.5 83.5,146.5C 83.5,163.167 83.5,179.833 83.5,196.5C 82.1667,196.5 80.8333,196.5 79.5,196.5C 79.5,179.833 79.5,163.167 79.5,146.5 Z"/></g>
<g><path style="opacity:0.985" fill="#9f325b" d="M 83.5,146.5 C 85.8333,146.5 88.1667,146.5 90.5,146.5C 90.5,163.167 90.5,179.833 90.5,196.5C 88.1667,196.5 85.8333,196.5 83.5,196.5C 83.5,179.833 83.5,163.167 83.5,146.5 Z"/></g>
<g><path style="opacity:0.985" fill="#98335f" d="M 90.5,146.5 C 92.8333,146.5 95.1667,146.5 97.5,146.5C 97.5,163.167 97.5,179.833 97.5,196.5C 95.1667,196.5 92.8333,196.5 90.5,196.5C 90.5,179.833 90.5,163.167 90.5,146.5 Z"/></g>
<g><path style="opacity:0.985" fill="#933362" d="M 97.5,146.5 C 98.8333,146.5 100.167,146.5 101.5,146.5C 101.5,163.167 101.5,179.833 101.5,196.5C 100.167,196.5 98.8333,196.5 97.5,196.5C 97.5,179.833 97.5,163.167 97.5,146.5 Z"/></g>
<g><path style="opacity:0.985" fill="#903363" d="M 101.5,146.5 C 102.167,146.5 102.833,146.5 103.5,146.5C 103.5,163.167 103.5,179.833 103.5,196.5C 102.833,196.5 102.167,196.5 101.5,196.5C 101.5,179.833 101.5,163.167 101.5,146.5 Z"/></g>
<g><path style="opacity:0.985" fill="#8c3566" d="M 103.5,146.5 C 105.833,146.5 108.167,146.5 110.5,146.5C 110.5,163.167 110.5,179.833 110.5,196.5C 108.167,196.5 105.833,196.5 103.5,196.5C 103.5,179.833 103.5,163.167 103.5,146.5 Z"/></g>
<g><path style="opacity:0.985" fill="#873569" d="M 110.5,146.5 C 111.833,146.5 113.167,146.5 114.5,146.5C 114.5,163.167 114.5,179.833 114.5,196.5C 113.167,196.5 111.833,196.5 110.5,196.5C 110.5,179.833 110.5,163.167 110.5,146.5 Z"/></g>
<g><path style="opacity:0.985" fill="#85366b" d="M 114.5,146.5 C 115.5,146.5 116.5,146.5 117.5,146.5C 117.5,163.167 117.5,179.833 117.5,196.5C 116.5,196.5 115.5,196.5 114.5,196.5C 114.5,179.833 114.5,163.167 114.5,146.5 Z"/></g>
<g><path style="opacity:0.985" fill="#7f366d" d="M 117.5,146.5 C 120.167,146.5 122.833,146.5 125.5,146.5C 125.5,163.167 125.5,179.833 125.5,196.5C 122.833,196.5 120.167,196.5 117.5,196.5C 117.5,179.833 117.5,163.167 117.5,146.5 Z"/></g>
<g><path style="opacity:0.985" fill="#793772" d="M 125.5,146.5 C 127.5,146.5 129.5,146.5 131.5,146.5C 131.5,163.167 131.5,179.833 131.5,196.5C 129.5,196.5 127.5,196.5 125.5,196.5C 125.5,179.833 125.5,163.167 125.5,146.5 Z"/></g>
<g><path style="opacity:0.985" fill="#743774" d="M 131.5,146.5 C 133.167,146.5 134.833,146.5 136.5,146.5C 136.5,163.167 136.5,179.833 136.5,196.5C 134.833,196.5 133.167,196.5 131.5,196.5C 131.5,179.833 131.5,163.167 131.5,146.5 Z"/></g>
<g><path style="opacity:0.985" fill="#713877" d="M 136.5,146.5 C 137.167,146.5 137.833,146.5 138.5,146.5C 138.5,163.167 138.5,179.833 138.5,196.5C 137.833,196.5 137.167,196.5 136.5,196.5C 136.5,179.833 136.5,163.167 136.5,146.5 Z"/></g>
<g><path style="opacity:0.985" fill="#6d3878" d="M 138.5,146.5 C 140.167,146.5 141.833,146.5 143.5,146.5C 143.5,163.167 143.5,179.833 143.5,196.5C 141.833,196.5 140.167,196.5 138.5,196.5C 138.5,179.833 138.5,163.167 138.5,146.5 Z"/></g>
<g><path style="opacity:0.985" fill="#67387b" d="M 143.5,146.5 C 145.167,146.5 146.833,146.5 148.5,146.5C 148.5,163.167 148.5,179.833 148.5,196.5C 146.833,196.5 145.167,196.5 143.5,196.5C 143.5,179.833 143.5,163.167 143.5,146.5 Z"/></g>
<g><path style="opacity:0.985" fill="#64387d" d="M 148.5,146.5 C 149.167,146.5 149.833,146.5 150.5,146.5C 150.5,163.167 150.5,179.833 150.5,196.5C 149.833,196.5 149.167,196.5 148.5,196.5C 148.5,179.833 148.5,163.167 148.5,146.5 Z"/></g>
<g><path style="opacity:0.985" fill="#60387e" d="M 150.5,146.5 C 152.167,146.5 153.833,146.5 155.5,146.5C 155.5,163.167 155.5,179.833 155.5,196.5C 153.833,196.5 152.167,196.5 150.5,196.5C 150.5,179.833 150.5,163.167 150.5,146.5 Z"/></g>
<g><path style="opacity:0.985" fill="#5a3981" d="M 155.5,146.5 C 157.5,146.5 159.5,146.5 161.5,146.5C 161.5,163.167 161.5,179.833 161.5,196.5C 159.5,196.5 157.5,196.5 155.5,196.5C 155.5,179.833 155.5,163.167 155.5,146.5 Z"/></g>
<g><path style="opacity:0.985" fill="#543984" d="M 161.5,146.5 C 163.167,146.5 164.833,146.5 166.5,146.5C 166.5,163.167 166.5,179.833 166.5,196.5C 164.833,196.5 163.167,196.5 161.5,196.5C 161.5,179.833 161.5,163.167 161.5,146.5 Z"/></g>
<g><path style="opacity:0.985" fill="#4d3987" d="M 166.5,146.5 C 168.167,146.5 169.833,146.5 171.5,146.5C 171.5,163.167 171.5,179.833 171.5,196.5C 169.833,196.5 168.167,196.5 166.5,196.5C 166.5,179.833 166.5,163.167 166.5,146.5 Z"/></g>
<g><path style="opacity:0.985" fill="#473988" d="M 171.5,146.5 C 172.833,146.5 174.167,146.5 175.5,146.5C 175.5,163.167 175.5,179.833 175.5,196.5C 174.167,196.5 172.833,196.5 171.5,196.5C 171.5,179.833 171.5,163.167 171.5,146.5 Z"/></g>
<g><path style="opacity:0.985" fill="#41398c" d="M 175.5,146.5 C 177.167,146.5 178.833,146.5 180.5,146.5C 180.5,163.167 180.5,179.833 180.5,196.5C 178.833,196.5 177.167,196.5 175.5,196.5C 175.5,179.833 175.5,163.167 175.5,146.5 Z"/></g>
<g><path style="opacity:0.985" fill="#3b398e" d="M 180.5,146.5 C 181.833,146.5 183.167,146.5 184.5,146.5C 184.5,163.167 184.5,179.833 184.5,196.5C 183.167,196.5 181.833,196.5 180.5,196.5C 180.5,179.833 180.5,163.167 180.5,146.5 Z"/></g>
<g><path style="opacity:0.985" fill="#353991" d="M 184.5,146.5 C 185.833,146.5 187.167,146.5 188.5,146.5C 188.5,163.167 188.5,179.833 188.5,196.5C 187.167,196.5 185.833,196.5 184.5,196.5C 184.5,179.833 184.5,163.167 184.5,146.5 Z"/></g>
<g><path style="opacity:0.985" fill="#2e3a93" d="M 188.5,146.5 C 189.5,146.5 190.5,146.5 191.5,146.5C 191.5,163.167 191.5,179.833 191.5,196.5C 190.5,196.5 189.5,196.5 188.5,196.5C 188.5,179.833 188.5,163.167 188.5,146.5 Z"/></g>
<g><path style="opacity:0.985" fill="#2a3b95" d="M 191.5,146.5 C 192.167,146.5 192.833,146.5 193.5,146.5C 193.5,163.167 193.5,179.833 193.5,196.5C 192.833,196.5 192.167,196.5 191.5,196.5C 191.5,179.833 191.5,163.167 191.5,146.5 Z"/></g>
<g><path style="opacity:0.616" fill="#253b96" d="M 193.5,146.5 C 194.5,146.5 195.5,146.5 196.5,146.5C 196.5,163.167 196.5,179.833 196.5,196.5C 195.5,196.5 194.5,196.5 193.5,196.5C 193.5,179.833 193.5,163.167 193.5,146.5 Z"/></g>
<g><path style="opacity:0.985" fill="#9f325b" d="M 279.5,146.5 C 286.167,146.5 292.833,146.5 299.5,146.5C 299.5,163.167 299.5,179.833 299.5,196.5C 292.833,196.5 286.167,196.5 279.5,196.5C 279.5,179.833 279.5,163.167 279.5,146.5 Z"/></g>
<g><path style="opacity:0.985" fill="#9b325c" d="M 299.5,146.5 C 300.5,146.5 301.5,146.5 302.5,146.5C 302.5,163.167 302.5,179.833 302.5,196.5C 301.5,196.5 300.5,196.5 299.5,196.5C 299.5,179.833 299.5,163.167 299.5,146.5 Z"/></g>
<g><path style="opacity:0.985" fill="#98335f" d="M 302.5,146.5 C 309.833,146.5 317.167,146.5 324.5,146.5C 324.5,163.167 324.5,179.833 324.5,196.5C 317.167,196.5 309.833,196.5 302.5,196.5C 302.5,179.833 302.5,163.167 302.5,146.5 Z"/></g>
<g><path style="opacity:0.985" fill="#933362" d="M 324.5,146.5 C 329.833,146.5 335.167,146.5 340.5,146.5C 340.5,163.167 340.5,179.833 340.5,196.5C 335.167,196.5 329.833,196.5 324.5,196.5C 324.5,179.833 324.5,163.167 324.5,146.5 Z"/></g>
<g><path style="opacity:0.985" fill="#903364" d="M 340.5,146.5 C 342.833,146.5 345.167,146.5 347.5,146.5C 347.5,163.167 347.5,179.833 347.5,196.5C 345.167,196.5 342.833,196.5 340.5,196.5C 340.5,179.833 340.5,163.167 340.5,146.5 Z"/></g>
</svg>
