<?xml version="1.0" encoding="UTF-8"?>
<!DOCTYPE svg PUBLIC "-//W3C//DTD SVG 1.1//EN" "http://www.w3.org/Graphics/SVG/1.1/DTD/svg11.dtd">
<svg xmlns="http://www.w3.org/2000/svg" version="1.1" width="657px" height="197px" style="shape-rendering:geometricPrecision; text-rendering:geometricPrecision; image-rendering:optimizeQuality; fill-rule:evenodd; clip-rule:evenodd" xmlns:xlink="http://www.w3.org/1999/xlink">
<g><path style="opacity:0.988" fill="#243a97" d="M -0.5,-0.5 C 218.5,-0.5 437.5,-0.5 656.5,-0.5C 656.5,16.1667 656.5,32.8333 656.5,49.5C 631.833,49.5 607.167,49.5 582.5,49.5C 582.5,98.5 582.5,147.5 582.5,196.5C 565.833,196.5 549.167,196.5 532.5,196.5C 532.5,147.5 532.5,98.5 532.5,49.5C 497.167,49.5 461.833,49.5 426.5,49.5C 426.906,60.5637 426.406,71.5637 425,82.5C 421.833,89.6667 416.667,94.8333 409.5,98C 418.07,100.904 423.57,106.737 426,115.5C 426.667,136.167 426.667,156.833 426,177.5C 422.888,187.447 416.388,193.781 406.5,196.5C 347.5,196.5 288.5,196.5 229.5,196.5C 229.5,155.167 229.5,113.833 229.5,72.5C 276.835,72.6667 324.168,72.5 371.5,72C 375.84,69.647 377.507,65.9804 376.5,61C 377.48,55.6595 375.48,51.9928 370.5,50C 246.834,49.5 123.167,49.3333 -0.5,49.5C -0.5,32.8333 -0.5,16.1667 -0.5,-0.5 Z M 279.5,122.5 C 309.169,122.333 338.835,122.5 368.5,123C 374.105,124.774 376.771,128.607 376.5,134.5C 376.771,140.393 374.105,144.226 368.5,146C 338.835,146.5 309.169,146.667 279.5,146.5C 279.5,138.5 279.5,130.5 279.5,122.5 Z"/></g>
<g><path style="opacity:0.983" fill="#243a97" d="M -0.5,72.5 C 65.1667,72.5 130.833,72.5 196.5,72.5C 196.5,89.1667 196.5,105.833 196.5,122.5C 147.5,122.5 98.5,122.5 49.5,122.5C 49.5,130.5 49.5,138.5 49.5,146.5C 98.5,146.5 147.5,146.5 196.5,146.5C 196.5,163.167 196.5,179.833 196.5,196.5C 130.833,196.5 65.1667,196.5 -0.5,196.5C -0.5,155.167 -0.5,113.833 -0.5,72.5 Z"/></g>
</svg>
