<?xml version="1.0" encoding="UTF-8"?>
<!DOCTYPE svg PUBLIC "-//W3C//DTD SVG 1.1//EN" "http://www.w3.org/Graphics/SVG/1.1/DTD/svg11.dtd">
<svg xmlns="http://www.w3.org/2000/svg" version="1.1" width="365px" height="366px" style="shape-rendering:geometricPrecision; text-rendering:geometricPrecision; image-rendering:optimizeQuality; fill-rule:evenodd; clip-rule:evenodd" xmlns:xlink="http://www.w3.org/1999/xlink">
<g><path style="opacity:0.975" fill="#243a97" d="M 168.5,-0.5 C 177.5,-0.5 186.5,-0.5 195.5,-0.5C 261.427,6.86881 310.927,39.2021 344,96.5C 354.601,117.46 361.434,139.46 364.5,162.5C 364.5,175.5 364.5,188.5 364.5,201.5C 356.099,264.039 324.766,311.205 270.5,343C 262.578,347.582 254.245,351.082 245.5,353.5C 245.5,302.5 245.5,251.5 245.5,200.5C 204.167,200.5 162.833,200.5 121.5,200.5C 131.354,229.166 151.521,244.499 182,246.5C 200.513,245.67 216.179,238.67 229,225.5C 229.667,240.167 229.667,254.833 229,269.5C 192.052,287.525 156.552,285.025 122.5,262C 101.054,245.281 88.2209,223.448 84,196.5C 83.8333,155.496 83.3333,114.496 82.5,73.5C 42.2757,110.673 27.109,156.34 37,210.5C 49.4996,263.339 80.6663,300.506 130.5,322C 159.486,331.947 188.819,333.114 218.5,325.5C 219.833,337.5 219.833,349.5 218.5,361.5C 210.768,363.22 203.102,364.553 195.5,365.5C 185.833,365.5 176.167,365.5 166.5,365.5C 85.3829,356.557 32.2163,313.224 7,235.5C 3.40014,221.887 0.900143,208.221 -0.5,194.5C -0.5,185.833 -0.5,177.167 -0.5,168.5C 6.29114,96.7414 42.2911,45.5748 107.5,15C 111.021,13.3262 114.687,12.1596 118.5,11.5C 118.333,43.1684 118.5,74.8351 119,106.5C 148.655,82.8796 181.488,77.3796 217.5,90C 251.525,104.227 272.192,129.394 279.5,165.5C 295.833,165.5 312.167,165.5 328.5,165.5C 320.316,109.16 290.316,69.3262 238.5,46C 208.2,33.5028 177.2,31.3361 145.5,39.5C 144.167,27.5 144.167,15.5 145.5,3.5C 153.232,1.7804 160.898,0.447067 168.5,-0.5 Z M 175.5,118.5 C 209.037,118.413 231.703,133.913 243.5,165C 202.496,165.833 161.496,165.667 120.5,164.5C 130.114,138.553 148.448,123.22 175.5,118.5 Z M 280.5,200.5 C 296.5,200.5 312.5,200.5 328.5,200.5C 323.694,236.785 307.861,267.118 281,291.5C 280.5,261.168 280.333,230.835 280.5,200.5 Z"/></g>
</svg>
