<?xml version="1.0" encoding="UTF-8"?>
<!DOCTYPE svg PUBLIC "-//W3C//DTD SVG 1.1//EN" "http://www.w3.org/Graphics/SVG/1.1/DTD/svg11.dtd">
<svg xmlns="http://www.w3.org/2000/svg" version="1.1" width="365px" height="366px" style="shape-rendering:geometricPrecision; text-rendering:geometricPrecision; image-rendering:optimizeQuality; fill-rule:evenodd; clip-rule:evenodd" xmlns:xlink="http://www.w3.org/1999/xlink">
<g><path style="opacity:0.972" fill="#bf8030" d="M 168.5,-0.5 C 169.833,-0.5 171.167,-0.5 172.5,-0.5C 172.5,11.1667 172.5,22.8333 172.5,34.5C 168.005,35.4219 163.338,36.0886 158.5,36.5C 158.5,24.8333 158.5,13.1667 158.5,1.5C 161.833,0.833333 165.167,0.166667 168.5,-0.5 Z"/></g>
<g><path style="opacity:0.984" fill="#bc8430" d="M 172.5,-0.5 C 174.5,-0.5 176.5,-0.5 178.5,-0.5C 178.5,11.1667 178.5,22.8333 178.5,34.5C 176.5,34.5 174.5,34.5 172.5,34.5C 172.5,22.8333 172.5,11.1667 172.5,-0.5 Z"/></g>
<g><path style="opacity:0.98" fill="#b98732" d="M 178.5,-0.5 C 182.167,-0.5 185.833,-0.5 189.5,-0.5C 189.5,11.1667 189.5,22.8333 189.5,34.5C 185.833,34.5 182.167,34.5 178.5,34.5C 178.5,22.8333 178.5,11.1667 178.5,-0.5 Z"/></g>
<g><path style="opacity:0.971" fill="#b78a32" d="M 189.5,-0.5 C 191.5,-0.5 193.5,-0.5 195.5,-0.5C 195.5,-0.166667 195.5,0.166667 195.5,0.5C 195.5,12.1667 195.5,23.8333 195.5,35.5C 193.5,35.1667 191.5,34.8333 189.5,34.5C 189.5,22.8333 189.5,11.1667 189.5,-0.5 Z"/></g>
<g><path style="opacity:0.98" fill="#b38d34" d="M 195.5,0.5 C 199.881,0.371756 204.215,0.70509 208.5,1.5C 208.5,13.5 208.5,25.5 208.5,37.5C 204.286,36.298 199.952,35.6314 195.5,35.5C 195.5,23.8333 195.5,12.1667 195.5,0.5 Z"/></g>
<g><path style="opacity:0.976" fill="#c47a2e" d="M 154.5,1.5 C 154.5,13.5 154.5,25.5 154.5,37.5C 151.447,37.9107 148.447,38.5774 145.5,39.5C 144.167,27.5 144.167,15.5 145.5,3.5C 148.447,2.57741 151.447,1.91074 154.5,1.5 Z"/></g>
<g><path style="opacity:0.981" fill="#c27d2f" d="M 154.5,1.5 C 155.833,1.5 157.167,1.5 158.5,1.5C 158.5,13.1667 158.5,24.8333 158.5,36.5C 157.167,36.8333 155.833,37.1667 154.5,37.5C 154.5,25.5 154.5,13.5 154.5,1.5 Z"/></g>
<g><path style="opacity:0.973" fill="#b09135" d="M 208.5,1.5 C 212.221,1.9111 215.888,2.57777 219.5,3.5C 219.5,15.5 219.5,27.5 219.5,39.5C 215.864,38.6745 212.197,38.0078 208.5,37.5C 208.5,25.5 208.5,13.5 208.5,1.5 Z"/></g>
<g><path style="opacity:0.976" fill="#ad9436" d="M 219.5,3.5 C 222.267,3.85831 224.933,4.52498 227.5,5.5C 227.5,17.5 227.5,29.5 227.5,41.5C 224.733,41.1417 222.067,40.475 219.5,39.5C 219.5,27.5 219.5,15.5 219.5,3.5 Z"/></g>
<g><path style="opacity:0.974" fill="#aa9737" d="M 227.5,5.5 C 231.314,6.03638 234.981,7.03638 238.5,8.5C 238.5,20.8333 238.5,33.1667 238.5,45.5C 234.617,44.5412 230.95,43.2078 227.5,41.5C 227.5,29.5 227.5,17.5 227.5,5.5 Z"/></g>
<g><path style="opacity:0.97" fill="#a69a38" d="M 238.5,8.5 C 242.127,9.32079 245.46,10.6541 248.5,12.5C 248.5,25.1667 248.5,37.8333 248.5,50.5C 244.849,49.3411 241.515,47.6744 238.5,45.5C 238.5,33.1667 238.5,20.8333 238.5,8.5 Z"/></g>
<g><path style="opacity:0.947" fill="#cd6e2c" d="M 124.5,102.5 C 124.5,119.833 124.5,137.167 124.5,154.5C 123.18,157.812 121.846,161.145 120.5,164.5C 121.689,165.429 123.022,165.762 124.5,165.5C 124.5,177.167 124.5,188.833 124.5,200.5C 123.5,200.5 122.5,200.5 121.5,200.5C 122.099,203.963 123.099,207.296 124.5,210.5C 124.5,227.833 124.5,245.167 124.5,262.5C 120.793,260.312 117.46,257.645 114.5,254.5C 114.5,173.833 114.5,93.1667 114.5,12.5C 115.708,11.7659 117.041,11.4326 118.5,11.5C 118.333,43.1684 118.5,74.8351 119,106.5C 120.451,104.536 122.284,103.203 124.5,102.5 Z"/></g>
<g><path style="opacity:0.995" fill="#cf6b2c" d="M 114.5,12.5 C 114.5,93.1667 114.5,173.833 114.5,254.5C 112.5,253.167 110.833,251.5 109.5,249.5C 109.5,171.167 109.5,92.8333 109.5,14.5C 111.05,13.5592 112.716,12.8925 114.5,12.5 Z"/></g>
<g><path style="opacity:0.969" fill="#a39d39" d="M 248.5,12.5 C 250.703,12.6036 252.703,13.2702 254.5,14.5C 254.5,27.5 254.5,40.5 254.5,53.5C 252.181,53.0075 250.181,52.0075 248.5,50.5C 248.5,37.8333 248.5,25.1667 248.5,12.5 Z"/></g>
<g><path style="opacity:0.993" fill="#d0692c" d="M 109.5,14.5 C 109.5,92.8333 109.5,171.167 109.5,249.5C 108.5,249.167 107.833,248.5 107.5,247.5C 107.5,170.167 107.5,92.8333 107.5,15.5C 107.842,14.6618 108.508,14.3284 109.5,14.5 Z"/></g>
<g><path style="opacity:0.972" fill="#9fa039" d="M 254.5,14.5 C 259.48,16.3232 264.147,18.6566 268.5,21.5C 268.5,35.1667 268.5,48.8333 268.5,62.5C 263.797,59.4864 259.13,56.4864 254.5,53.5C 254.5,40.5 254.5,27.5 254.5,14.5 Z"/></g>
<g><path style="opacity:0.993" fill="#d1662a" d="M 107.5,15.5 C 107.5,92.8333 107.5,170.167 107.5,247.5C 102.002,241.995 97.6686,235.662 94.5,228.5C 94.5,159.5 94.5,90.5 94.5,21.5C 98.7091,19.2288 103.042,17.2288 107.5,15.5 Z"/></g>
<g><path style="opacity:0.99" fill="#d3622a" d="M 94.5,21.5 C 94.5,90.5 94.5,159.5 94.5,228.5C 92.0692,224.889 90.4025,220.889 89.5,216.5C 89.5,152.5 89.5,88.5 89.5,24.5C 90.9649,23.2632 92.6316,22.2632 94.5,21.5 Z"/></g>
<g><path style="opacity:0.971" fill="#98a53b" d="M 268.5,21.5 C 275.376,24.7641 281.71,28.7641 287.5,33.5C 287.5,48.5 287.5,63.5 287.5,78.5C 281.142,73.1371 274.808,67.8038 268.5,62.5C 268.5,48.8333 268.5,35.1667 268.5,21.5 Z"/></g>
<g><path style="opacity:0.985" fill="#d55f29" d="M 89.5,24.5 C 89.5,88.5 89.5,152.5 89.5,216.5C 86.4821,210.289 84.6488,203.623 84,196.5C 83.8326,155.331 83.3326,114.331 82.5,73.5C 82.5,58.5 82.5,43.5 82.5,28.5C 84.6351,26.9291 86.9684,25.5957 89.5,24.5 Z"/></g>
<g><path style="opacity:0.978" fill="#d75a28" d="M 82.5,28.5 C 82.5,43.5 82.5,58.5 82.5,73.5C 79.1667,76.5 75.8333,79.5 72.5,82.5C 72.5,66.8333 72.5,51.1667 72.5,35.5C 75.4459,32.6869 78.7792,30.3535 82.5,28.5 Z"/></g>
<g><path style="opacity:0.968" fill="#92aa3d" d="M 287.5,33.5 C 292.765,36.4347 297.432,40.1014 301.5,44.5C 301.5,61.5 301.5,78.5 301.5,95.5C 296.863,89.858 292.197,84.1914 287.5,78.5C 287.5,63.5 287.5,48.5 287.5,33.5 Z"/></g>
<g><path style="opacity:0.97" fill="#d95528" d="M 72.5,35.5 C 72.5,51.1667 72.5,66.8333 72.5,82.5C 71.5569,85.1092 69.8903,87.1092 67.5,88.5C 67.5,72.1667 67.5,55.8333 67.5,39.5C 68.5794,37.457 70.246,36.1237 72.5,35.5 Z"/></g>
<g><path style="opacity:0.972" fill="#db5227" d="M 67.5,39.5 C 67.5,55.8333 67.5,72.1667 67.5,88.5C 66.2993,90.9095 64.6326,92.9095 62.5,94.5C 62.5,77.5 62.5,60.5 62.5,43.5C 63.5846,41.4131 65.2512,40.0798 67.5,39.5 Z"/></g>
<g><path style="opacity:0.969" fill="#dd4e27" d="M 62.5,43.5 C 62.5,60.5 62.5,77.5 62.5,94.5C 59.0794,100.345 55.4128,106.012 51.5,111.5C 51.5,92.1667 51.5,72.8333 51.5,53.5C 54.5628,49.4342 58.2294,46.1009 62.5,43.5 Z"/></g>
<g><path style="opacity:0.971" fill="#8dad3e" d="M 301.5,44.5 C 304.784,46.117 307.451,48.4503 309.5,51.5C 309.5,70.1667 309.5,88.8333 309.5,107.5C 306.846,103.537 304.18,99.5368 301.5,95.5C 301.5,78.5 301.5,61.5 301.5,44.5 Z"/></g>
<g><path style="opacity:0.968" fill="#8aaf3f" d="M 309.5,51.5 C 311.833,53.1667 313.833,55.1667 315.5,57.5C 315.5,77.8333 315.5,98.1667 315.5,118.5C 313.262,115.028 311.262,111.362 309.5,107.5C 309.5,88.8333 309.5,70.1667 309.5,51.5 Z"/></g>
<g><path style="opacity:0.975" fill="#df4826" d="M 51.5,53.5 C 51.5,72.8333 51.5,92.1667 51.5,111.5C 49.4806,115.539 47.4806,119.539 45.5,123.5C 45.5,102.167 45.5,80.8333 45.5,59.5C 47.1667,57.1667 49.1667,55.1667 51.5,53.5 Z"/></g>
<g><path style="opacity:0.967" fill="#86b13f" d="M 315.5,57.5 C 319.845,61.847 323.845,66.5137 327.5,71.5C 327.5,98.8333 327.5,126.167 327.5,153.5C 324.324,141.642 320.324,129.975 315.5,118.5C 315.5,98.1667 315.5,77.8333 315.5,57.5 Z"/></g>
<g><path style="opacity:0.965" fill="#e14526" d="M 45.5,59.5 C 45.5,80.8333 45.5,102.167 45.5,123.5C 44.7362,126.018 43.7362,128.351 42.5,130.5C 42.5,107.833 42.5,85.1667 42.5,62.5C 43.1667,61.1667 44.1667,60.1667 45.5,59.5 Z"/></g>
<g><path style="opacity:0.968" fill="#e24125" d="M 42.5,62.5 C 42.5,85.1667 42.5,107.833 42.5,130.5C 39.9234,138.88 37.5901,147.213 35.5,155.5C 35.5,127.5 35.5,99.5 35.5,71.5C 37.4821,68.1897 39.8154,65.1897 42.5,62.5 Z"/></g>
<g><path style="opacity:0.962" fill="#e33d25" d="M 35.5,71.5 C 35.5,99.5 35.5,127.5 35.5,155.5C 34.6688,163.647 34.0021,171.814 33.5,180C 34.0681,188.513 34.7348,197.013 35.5,205.5C 35.5,234.833 35.5,264.167 35.5,293.5C 34.0256,292.564 33.0256,291.23 32.5,289.5C 32.5,218.167 32.5,146.833 32.5,75.5C 33.0256,73.7697 34.0256,72.4363 35.5,71.5 Z"/></g>
<g><path style="opacity:0.982" fill="#82b441" d="M 327.5,71.5 C 329.522,73.5313 331.189,75.8646 332.5,78.5C 332.5,147.833 332.5,217.167 332.5,286.5C 331.066,289.047 329.4,291.381 327.5,293.5C 327.5,265.833 327.5,238.167 327.5,210.5C 328.239,206.985 328.239,203.652 327.5,200.5C 327.5,188.833 327.5,177.167 327.5,165.5C 328.226,161.679 328.226,157.679 327.5,153.5C 327.5,126.167 327.5,98.8333 327.5,71.5 Z"/></g>
<g><path style="opacity:0.991" fill="#e53b24" d="M 32.5,75.5 C 32.5,146.833 32.5,218.167 32.5,289.5C 30.412,287.664 29.0787,285.331 28.5,282.5C 28.5,215.5 28.5,148.5 28.5,81.5C 29.4746,79.2048 30.8079,77.2048 32.5,75.5 Z"/></g>
<g><path style="opacity:0.989" fill="#7eb641" d="M 332.5,78.5 C 336.251,82.9946 339.251,87.9946 341.5,93.5C 341.5,152.833 341.5,212.167 341.5,271.5C 339.251,277.005 336.251,282.005 332.5,286.5C 332.5,217.167 332.5,147.833 332.5,78.5 Z"/></g>
<g><path style="opacity:0.989" fill="#e63524" d="M 28.5,81.5 C 28.5,148.5 28.5,215.5 28.5,282.5C 25.3768,279.024 23.0435,275.024 21.5,270.5C 21.5,211.5 21.5,152.5 21.5,93.5C 23.332,89.1638 25.6654,85.1638 28.5,81.5 Z"/></g>
<g><path style="opacity:0.972" fill="#bf8030" d="M 172.5,83.5 C 172.5,95.5 172.5,107.5 172.5,119.5C 167.627,120.217 162.96,121.551 158.5,123.5C 158.5,111.167 158.5,98.8333 158.5,86.5C 162.977,85.1385 167.643,84.1385 172.5,83.5 Z"/></g>
<g><path style="opacity:0.973" fill="#bc8430" d="M 172.5,83.5 C 174.5,83.5 176.5,83.5 178.5,83.5C 178.5,95.1667 178.5,106.833 178.5,118.5C 176.5,118.833 174.5,119.167 172.5,119.5C 172.5,107.5 172.5,95.5 172.5,83.5 Z"/></g>
<g><path style="opacity:0.981" fill="#b98732" d="M 178.5,83.5 C 182.167,83.5 185.833,83.5 189.5,83.5C 189.5,95.5 189.5,107.5 189.5,119.5C 185.881,118.756 182.215,118.423 178.5,118.5C 178.5,106.833 178.5,95.1667 178.5,83.5 Z"/></g>
<g><path style="opacity:0.974" fill="#b78a32" d="M 189.5,83.5 C 191.5,83.8333 193.5,84.1667 195.5,84.5C 195.5,96.5 195.5,108.5 195.5,120.5C 193.565,119.85 191.565,119.517 189.5,119.5C 189.5,107.5 189.5,95.5 189.5,83.5 Z"/></g>
<g><path style="opacity:0.975" fill="#b38d34" d="M 195.5,84.5 C 199.965,85.0333 204.298,86.0333 208.5,87.5C 208.5,99.8333 208.5,112.167 208.5,124.5C 204.299,122.766 199.965,121.433 195.5,120.5C 195.5,108.5 195.5,96.5 195.5,84.5 Z"/></g>
<g><path style="opacity:0.979" fill="#c27d2f" d="M 158.5,86.5 C 158.5,98.8333 158.5,111.167 158.5,123.5C 157.167,123.833 155.833,124.167 154.5,124.5C 154.5,112.167 154.5,99.8333 154.5,87.5C 155.708,86.7659 157.041,86.4326 158.5,86.5 Z"/></g>
<g><path style="opacity:0.971" fill="#c5792e" d="M 154.5,87.5 C 154.5,99.8333 154.5,112.167 154.5,124.5C 149.523,127.8 144.523,131.133 139.5,134.5C 139.5,120.833 139.5,107.167 139.5,93.5C 144.105,90.7042 149.105,88.7042 154.5,87.5 Z"/></g>
<g><path style="opacity:0.969" fill="#b09135" d="M 208.5,87.5 C 212.537,88.0653 216.203,89.3987 219.5,91.5C 219.5,104.5 219.5,117.5 219.5,130.5C 215.665,128.75 211.999,126.75 208.5,124.5C 208.5,112.167 208.5,99.8333 208.5,87.5 Z"/></g>
<g><path style="opacity:0.971" fill="#ad9436" d="M 219.5,91.5 C 222.327,92.1084 224.993,93.1084 227.5,94.5C 227.5,108.833 227.5,123.167 227.5,137.5C 224.418,135.628 221.751,133.295 219.5,130.5C 219.5,117.5 219.5,104.5 219.5,91.5 Z"/></g>
<g><path style="opacity:0.988" fill="#e63124" d="M 21.5,93.5 C 21.5,152.5 21.5,211.5 21.5,270.5C 20.3263,269.486 19.6596,268.153 19.5,266.5C 19.5,210.167 19.5,153.833 19.5,97.5C 19.6596,95.847 20.3263,94.5137 21.5,93.5 Z"/></g>
<g><path style="opacity:0.985" fill="#c7762d" d="M 139.5,93.5 C 139.5,107.167 139.5,120.833 139.5,134.5C 139.167,135.5 138.5,136.167 137.5,136.5C 137.5,122.5 137.5,108.5 137.5,94.5C 137.842,93.6618 138.508,93.3284 139.5,93.5 Z"/></g>
<g><path style="opacity:0.986" fill="#79b942" d="M 341.5,93.5 C 346.15,99.8035 349.484,106.804 351.5,114.5C 351.5,159.833 351.5,205.167 351.5,250.5C 348.954,257.923 345.621,264.923 341.5,271.5C 341.5,212.167 341.5,152.833 341.5,93.5 Z"/></g>
<g><path style="opacity:0.97" fill="#c9722d" d="M 137.5,94.5 C 137.5,108.5 137.5,122.5 137.5,136.5C 132.36,141.965 128.027,147.965 124.5,154.5C 124.5,137.167 124.5,119.833 124.5,102.5C 128.299,99.0482 132.632,96.3815 137.5,94.5 Z"/></g>
<g><path style="opacity:0.968" fill="#aa9737" d="M 227.5,94.5 C 231.372,96.5974 235.039,98.9308 238.5,101.5C 238.5,118.5 238.5,135.5 238.5,152.5C 235.251,147.243 231.585,142.243 227.5,137.5C 227.5,123.167 227.5,108.833 227.5,94.5 Z"/></g>
<g><path style="opacity:0.985" fill="#e82d24" d="M 19.5,97.5 C 19.5,153.833 19.5,210.167 19.5,266.5C 17.3754,263.912 16.0421,260.912 15.5,257.5C 15.5,206.833 15.5,156.167 15.5,105.5C 16.3257,102.515 17.659,99.8485 19.5,97.5 Z"/></g>
<g><path style="opacity:0.882" fill="#a59b38" d="M 238.5,101.5 C 242.146,103.817 245.48,106.484 248.5,109.5C 248.5,190.5 248.5,271.5 248.5,352.5C 247.791,353.404 246.791,353.737 245.5,353.5C 245.5,302.5 245.5,251.5 245.5,200.5C 243.167,200.5 240.833,200.5 238.5,200.5C 238.5,188.833 238.5,177.167 238.5,165.5C 240.199,165.66 241.866,165.494 243.5,165C 241.974,160.781 240.307,156.614 238.5,152.5C 238.5,135.5 238.5,118.5 238.5,101.5 Z"/></g>
<g><path style="opacity:0.981" fill="#e92824" d="M 15.5,105.5 C 15.5,156.167 15.5,206.833 15.5,257.5C 12.5361,252.618 10.5361,247.285 9.5,241.5C 9.5,201.5 9.5,161.5 9.5,121.5C 10.929,115.871 12.929,110.537 15.5,105.5 Z"/></g>
<g><path style="opacity:0.995" fill="#a39d39" d="M 248.5,109.5 C 250.833,111.167 252.833,113.167 254.5,115.5C 254.5,193.833 254.5,272.167 254.5,350.5C 252.703,351.73 250.703,352.396 248.5,352.5C 248.5,271.5 248.5,190.5 248.5,109.5 Z"/></g>
<g><path style="opacity:0.979" fill="#75bb42" d="M 351.5,114.5 C 353.267,116.792 354.267,119.458 354.5,122.5C 354.5,162.5 354.5,202.5 354.5,242.5C 354.267,245.542 353.267,248.208 351.5,250.5C 351.5,205.167 351.5,159.833 351.5,114.5 Z"/></g>
<g><path style="opacity:0.993" fill="#9fa039" d="M 254.5,115.5 C 260.3,120.431 264.634,126.431 267.5,133.5C 267.5,203.833 267.5,274.167 267.5,344.5C 263.286,346.774 258.953,348.774 254.5,350.5C 254.5,272.167 254.5,193.833 254.5,115.5 Z"/></g>
<g><path style="opacity:0.966" fill="#eb2223" d="M 9.5,121.5 C 9.5,161.5 9.5,201.5 9.5,241.5C 6.92011,235.858 5.25345,229.858 4.5,223.5C 4.5,195.5 4.5,167.5 4.5,139.5C 5.38939,133.181 7.05605,127.181 9.5,121.5 Z"/></g>
<g><path style="opacity:0.966" fill="#72bc43" d="M 354.5,122.5 C 358.06,130.734 360.394,139.401 361.5,148.5C 361.5,170.833 361.5,193.167 361.5,215.5C 360.551,224.964 358.218,233.964 354.5,242.5C 354.5,202.5 354.5,162.5 354.5,122.5 Z"/></g>
<g><path style="opacity:0.986" fill="#99a43b" d="M 267.5,133.5 C 273.69,143.236 277.69,153.903 279.5,165.5C 282.167,165.5 284.833,165.5 287.5,165.5C 287.5,177.167 287.5,188.833 287.5,200.5C 285.167,200.5 282.833,200.5 280.5,200.5C 280.333,230.835 280.5,261.168 281,291.5C 283.328,290.001 285.495,288.334 287.5,286.5C 287.5,301.5 287.5,316.5 287.5,331.5C 281.395,336.587 274.729,340.92 267.5,344.5C 267.5,274.167 267.5,203.833 267.5,133.5 Z"/></g>
<g><path style="opacity:0.862" fill="#ec1e23" d="M 4.5,139.5 C 4.5,167.5 4.5,195.5 4.5,223.5C 2.18143,213.934 0.514759,204.268 -0.5,194.5C -0.5,185.833 -0.5,177.167 -0.5,168.5C 0.514759,158.732 2.18143,149.066 4.5,139.5 Z"/></g>
<g><path style="opacity:0.871" fill="#6fbd44" d="M 361.5,148.5 C 362.663,153.137 363.663,157.804 364.5,162.5C 364.5,175.5 364.5,188.5 364.5,201.5C 363.663,206.196 362.663,210.863 361.5,215.5C 361.5,193.167 361.5,170.833 361.5,148.5 Z"/></g>
<g><path style="opacity:0.972" fill="#c9732d" d="M 124.5,165.5 C 128.833,165.5 133.167,165.5 137.5,165.5C 137.5,177.167 137.5,188.833 137.5,200.5C 133.167,200.5 128.833,200.5 124.5,200.5C 124.5,188.833 124.5,177.167 124.5,165.5 Z"/></g>
<g><path style="opacity:0.972" fill="#c7762d" d="M 137.5,165.5 C 138.167,165.5 138.833,165.5 139.5,165.5C 139.5,177.167 139.5,188.833 139.5,200.5C 138.833,200.5 138.167,200.5 137.5,200.5C 137.5,188.833 137.5,177.167 137.5,165.5 Z"/></g>
<g><path style="opacity:0.972" fill="#c5792e" d="M 139.5,165.5 C 144.5,165.5 149.5,165.5 154.5,165.5C 154.5,177.167 154.5,188.833 154.5,200.5C 149.5,200.5 144.5,200.5 139.5,200.5C 139.5,188.833 139.5,177.167 139.5,165.5 Z"/></g>
<g><path style="opacity:0.972" fill="#c27d2f" d="M 154.5,165.5 C 155.833,165.5 157.167,165.5 158.5,165.5C 158.5,177.167 158.5,188.833 158.5,200.5C 157.167,200.5 155.833,200.5 154.5,200.5C 154.5,188.833 154.5,177.167 154.5,165.5 Z"/></g>
<g><path style="opacity:0.972" fill="#bf8030" d="M 158.5,165.5 C 163.167,165.5 167.833,165.5 172.5,165.5C 172.5,177.167 172.5,188.833 172.5,200.5C 167.833,200.5 163.167,200.5 158.5,200.5C 158.5,188.833 158.5,177.167 158.5,165.5 Z"/></g>
<g><path style="opacity:0.972" fill="#bc8430" d="M 172.5,165.5 C 174.5,165.5 176.5,165.5 178.5,165.5C 178.5,177.167 178.5,188.833 178.5,200.5C 176.5,200.5 174.5,200.5 172.5,200.5C 172.5,188.833 172.5,177.167 172.5,165.5 Z"/></g>
<g><path style="opacity:0.972" fill="#b98732" d="M 178.5,165.5 C 182.167,165.5 185.833,165.5 189.5,165.5C 189.5,177.167 189.5,188.833 189.5,200.5C 185.833,200.5 182.167,200.5 178.5,200.5C 178.5,188.833 178.5,177.167 178.5,165.5 Z"/></g>
<g><path style="opacity:0.972" fill="#b78a32" d="M 189.5,165.5 C 191.5,165.5 193.5,165.5 195.5,165.5C 195.5,177.167 195.5,188.833 195.5,200.5C 193.5,200.5 191.5,200.5 189.5,200.5C 189.5,188.833 189.5,177.167 189.5,165.5 Z"/></g>
<g><path style="opacity:0.972" fill="#b38d33" d="M 195.5,165.5 C 199.833,165.5 204.167,165.5 208.5,165.5C 208.5,177.167 208.5,188.833 208.5,200.5C 204.167,200.5 199.833,200.5 195.5,200.5C 195.5,188.833 195.5,177.167 195.5,165.5 Z"/></g>
<g><path style="opacity:0.972" fill="#b09135" d="M 208.5,165.5 C 212.167,165.5 215.833,165.5 219.5,165.5C 219.5,177.167 219.5,188.833 219.5,200.5C 215.833,200.5 212.167,200.5 208.5,200.5C 208.5,188.833 208.5,177.167 208.5,165.5 Z"/></g>
<g><path style="opacity:0.972" fill="#ad9436" d="M 219.5,165.5 C 222.167,165.5 224.833,165.5 227.5,165.5C 227.5,177.167 227.5,188.833 227.5,200.5C 224.833,200.5 222.167,200.5 219.5,200.5C 219.5,188.833 219.5,177.167 219.5,165.5 Z"/></g>
<g><path style="opacity:0.972" fill="#aa9737" d="M 227.5,165.5 C 231.167,165.5 234.833,165.5 238.5,165.5C 238.5,177.167 238.5,188.833 238.5,200.5C 234.833,200.5 231.167,200.5 227.5,200.5C 227.5,188.833 227.5,177.167 227.5,165.5 Z"/></g>
<g><path style="opacity:0.973" fill="#92aa3d" d="M 287.5,165.5 C 292.167,165.5 296.833,165.5 301.5,165.5C 301.5,177.167 301.5,188.833 301.5,200.5C 296.833,200.5 292.167,200.5 287.5,200.5C 287.5,188.833 287.5,177.167 287.5,165.5 Z"/></g>
<g><path style="opacity:0.972" fill="#8ead3e" d="M 301.5,165.5 C 304.167,165.5 306.833,165.5 309.5,165.5C 309.5,177.167 309.5,188.833 309.5,200.5C 306.833,200.5 304.167,200.5 301.5,200.5C 301.5,188.833 301.5,177.167 301.5,165.5 Z"/></g>
<g><path style="opacity:0.972" fill="#8aaf3f" d="M 309.5,165.5 C 311.5,165.5 313.5,165.5 315.5,165.5C 315.5,177.167 315.5,188.833 315.5,200.5C 313.5,200.5 311.5,200.5 309.5,200.5C 309.5,188.833 309.5,177.167 309.5,165.5 Z"/></g>
<g><path style="opacity:0.976" fill="#86b13f" d="M 315.5,165.5 C 319.5,165.5 323.5,165.5 327.5,165.5C 327.5,177.167 327.5,188.833 327.5,200.5C 323.5,200.5 319.5,200.5 315.5,200.5C 315.5,188.833 315.5,177.167 315.5,165.5 Z"/></g>
<g><path style="opacity:0.969" fill="#e24125" d="M 35.5,205.5 C 37.8096,214.064 40.1429,222.731 42.5,231.5C 42.5,255.167 42.5,278.833 42.5,302.5C 39.8154,299.81 37.4821,296.81 35.5,293.5C 35.5,264.167 35.5,234.833 35.5,205.5 Z"/></g>
<g><path style="opacity:0.969" fill="#c9722d" d="M 124.5,210.5 C 128.331,216.816 132.665,222.816 137.5,228.5C 137.5,242.5 137.5,256.5 137.5,270.5C 132.657,268.582 128.323,265.916 124.5,262.5C 124.5,245.167 124.5,227.833 124.5,210.5 Z"/></g>
<g><path style="opacity:0.968" fill="#86b13f" d="M 327.5,210.5 C 327.5,238.167 327.5,265.833 327.5,293.5C 323.845,298.486 319.845,303.153 315.5,307.5C 315.5,287.167 315.5,266.833 315.5,246.5C 320.529,234.746 324.529,222.746 327.5,210.5 Z"/></g>
<g><path style="opacity:0.854" fill="#ab9636" d="M 227.5,270.5 C 227.5,256.167 227.5,241.833 227.5,227.5C 227.783,226.711 228.283,226.044 229,225.5C 229.667,240.167 229.667,254.833 229,269.5C 228.617,270.056 228.117,270.389 227.5,270.5 Z"/></g>
<g><path style="opacity:0.97" fill="#ad9436" d="M 227.5,227.5 C 227.5,241.833 227.5,256.167 227.5,270.5C 224.833,271.833 222.167,273.167 219.5,274.5C 219.5,261.167 219.5,247.833 219.5,234.5C 221.751,231.705 224.418,229.372 227.5,227.5 Z"/></g>
<g><path style="opacity:0.979" fill="#c7762d" d="M 137.5,228.5 C 138.5,228.833 139.167,229.5 139.5,230.5C 139.5,244.167 139.5,257.833 139.5,271.5C 138.508,271.672 137.842,271.338 137.5,270.5C 137.5,256.5 137.5,242.5 137.5,228.5 Z"/></g>
<g><path style="opacity:0.972" fill="#c5792e" d="M 139.5,230.5 C 144.523,233.867 149.523,237.2 154.5,240.5C 154.5,252.833 154.5,265.167 154.5,277.5C 149.105,276.262 144.105,274.262 139.5,271.5C 139.5,257.833 139.5,244.167 139.5,230.5 Z"/></g>
<g><path style="opacity:0.972" fill="#e14526" d="M 42.5,231.5 C 44.0652,233.509 45.0652,235.843 45.5,238.5C 45.5,261.167 45.5,283.833 45.5,306.5C 44.5116,305.205 43.5116,303.872 42.5,302.5C 42.5,278.833 42.5,255.167 42.5,231.5 Z"/></g>
<g><path style="opacity:0.976" fill="#b09135" d="M 219.5,234.5 C 219.5,247.833 219.5,261.167 219.5,274.5C 215.89,275.703 212.223,276.703 208.5,277.5C 208.5,265.167 208.5,252.833 208.5,240.5C 212.034,238.234 215.7,236.234 219.5,234.5 Z"/></g>
<g><path style="opacity:0.97" fill="#df4826" d="M 45.5,238.5 C 47.7365,242.645 49.7365,246.978 51.5,251.5C 51.5,271.833 51.5,292.167 51.5,312.5C 49.1667,310.833 47.1667,308.833 45.5,306.5C 45.5,283.833 45.5,261.167 45.5,238.5 Z"/></g>
<g><path style="opacity:0.976" fill="#c27d2f" d="M 154.5,240.5 C 155.833,240.833 157.167,241.167 158.5,241.5C 158.5,253.833 158.5,266.167 158.5,278.5C 157.041,278.567 155.708,278.234 154.5,277.5C 154.5,265.167 154.5,252.833 154.5,240.5 Z"/></g>
<g><path style="opacity:0.971" fill="#b38d34" d="M 208.5,240.5 C 208.5,252.833 208.5,265.167 208.5,277.5C 204.453,279.26 200.12,280.26 195.5,280.5C 195.5,268.5 195.5,256.5 195.5,244.5C 199.965,243.567 204.298,242.234 208.5,240.5 Z"/></g>
<g><path style="opacity:0.976" fill="#bf8030" d="M 158.5,241.5 C 162.96,243.449 167.627,244.783 172.5,245.5C 172.5,257.5 172.5,269.5 172.5,281.5C 167.798,280.685 163.131,279.685 158.5,278.5C 158.5,266.167 158.5,253.833 158.5,241.5 Z"/></g>
<g><path style="opacity:0.974" fill="#b78a32" d="M 195.5,244.5 C 195.5,256.5 195.5,268.5 195.5,280.5C 193.565,281.15 191.565,281.483 189.5,281.5C 189.5,269.5 189.5,257.5 189.5,245.5C 191.621,245.675 193.621,245.341 195.5,244.5 Z"/></g>
<g><path style="opacity:0.968" fill="#bc8430" d="M 172.5,245.5 C 174.565,245.517 176.565,245.85 178.5,246.5C 178.5,258.167 178.5,269.833 178.5,281.5C 176.5,281.5 174.5,281.5 172.5,281.5C 172.5,269.5 172.5,257.5 172.5,245.5 Z"/></g>
<g><path style="opacity:0.983" fill="#b98732" d="M 189.5,245.5 C 189.5,257.5 189.5,269.5 189.5,281.5C 185.833,281.5 182.167,281.5 178.5,281.5C 178.5,269.833 178.5,258.167 178.5,246.5C 182.234,246.677 185.901,246.344 189.5,245.5 Z"/></g>
<g><path style="opacity:0.966" fill="#8aaf3f" d="M 315.5,246.5 C 315.5,266.833 315.5,287.167 315.5,307.5C 313.833,309.833 311.833,311.833 309.5,313.5C 309.5,294.833 309.5,276.167 309.5,257.5C 311.25,253.665 313.25,249.999 315.5,246.5 Z"/></g>
<g><path style="opacity:0.972" fill="#dd4e27" d="M 51.5,251.5 C 55.4022,256.96 59.0689,262.627 62.5,268.5C 62.5,286.833 62.5,305.167 62.5,323.5C 58.5,320.167 54.8333,316.5 51.5,312.5C 51.5,292.167 51.5,271.833 51.5,251.5 Z"/></g>
<g><path style="opacity:0.967" fill="#8dad3e" d="M 309.5,257.5 C 309.5,276.167 309.5,294.833 309.5,313.5C 307.451,316.55 304.784,318.883 301.5,320.5C 301.5,303.5 301.5,286.5 301.5,269.5C 304.18,265.463 306.846,261.463 309.5,257.5 Z"/></g>
<g><path style="opacity:0.974" fill="#db5227" d="M 62.5,268.5 C 64.3998,270.619 66.0664,272.953 67.5,275.5C 67.5,292.833 67.5,310.167 67.5,327.5C 65.8333,326.167 64.1667,324.833 62.5,323.5C 62.5,305.167 62.5,286.833 62.5,268.5 Z"/></g>
<g><path style="opacity:0.97" fill="#92aa3d" d="M 301.5,269.5 C 301.5,286.5 301.5,303.5 301.5,320.5C 297.413,324.922 292.746,328.589 287.5,331.5C 287.5,316.5 287.5,301.5 287.5,286.5C 292.197,280.809 296.863,275.142 301.5,269.5 Z"/></g>
<g><path style="opacity:0.972" fill="#d95528" d="M 67.5,275.5 C 69.1563,277.46 70.823,279.46 72.5,281.5C 72.5,298.167 72.5,314.833 72.5,331.5C 70.8089,330.136 69.1423,328.803 67.5,327.5C 67.5,310.167 67.5,292.833 67.5,275.5 Z"/></g>
<g><path style="opacity:0.963" fill="#d75a28" d="M 72.5,281.5 C 76.1667,284.5 79.5,287.833 82.5,291.5C 82.5,307.167 82.5,322.833 82.5,338.5C 79.1667,336.167 75.8333,333.833 72.5,331.5C 72.5,314.833 72.5,298.167 72.5,281.5 Z"/></g>
<g><path style="opacity:0.969" fill="#d55f29" d="M 82.5,291.5 C 85.1667,293.5 87.5,295.833 89.5,298.5C 89.5,313.167 89.5,327.833 89.5,342.5C 87.1667,341.167 84.8333,339.833 82.5,338.5C 82.5,322.833 82.5,307.167 82.5,291.5 Z"/></g>
<g><path style="opacity:0.977" fill="#d3622a" d="M 89.5,298.5 C 91.7488,299.08 93.4154,300.413 94.5,302.5C 94.5,316.5 94.5,330.5 94.5,344.5C 92.7162,344.107 91.0495,343.441 89.5,342.5C 89.5,327.833 89.5,313.167 89.5,298.5 Z"/></g>
<g><path style="opacity:0.974" fill="#d1662a" d="M 94.5,302.5 C 98.8159,305.14 103.149,307.806 107.5,310.5C 107.5,324.167 107.5,337.833 107.5,351.5C 102.973,349.405 98.6392,347.072 94.5,344.5C 94.5,330.5 94.5,316.5 94.5,302.5 Z"/></g>
<g><path style="opacity:0.975" fill="#d0692c" d="M 107.5,310.5 C 108.5,310.833 109.167,311.5 109.5,312.5C 109.5,325.5 109.5,338.5 109.5,351.5C 108.833,351.5 108.167,351.5 107.5,351.5C 107.5,337.833 107.5,324.167 107.5,310.5 Z"/></g>
<g><path style="opacity:0.976" fill="#cf6b2c" d="M 109.5,312.5 C 111.284,312.893 112.95,313.559 114.5,314.5C 114.5,327.5 114.5,340.5 114.5,353.5C 112.447,353.598 110.78,352.931 109.5,351.5C 109.5,338.5 109.5,325.5 109.5,312.5 Z"/></g>
<g><path style="opacity:0.974" fill="#cc6e2c" d="M 114.5,314.5 C 117.833,316.167 121.167,317.833 124.5,319.5C 124.5,332.167 124.5,344.833 124.5,357.5C 121.016,356.343 117.683,355.01 114.5,353.5C 114.5,340.5 114.5,327.5 114.5,314.5 Z"/></g>
<g><path style="opacity:0.977" fill="#c9732d" d="M 124.5,319.5 C 128.755,321.363 133.088,323.03 137.5,324.5C 137.5,336.5 137.5,348.5 137.5,360.5C 133.127,359.657 128.793,358.657 124.5,357.5C 124.5,344.833 124.5,332.167 124.5,319.5 Z"/></g>
<g><path style="opacity:0.956" fill="#c7762d" d="M 137.5,324.5 C 138.492,324.328 139.158,324.662 139.5,325.5C 139.5,337.5 139.5,349.5 139.5,361.5C 138.833,361.167 138.167,360.833 137.5,360.5C 137.5,348.5 137.5,336.5 137.5,324.5 Z"/></g>
<g><path style="opacity:0.976" fill="#c5792e" d="M 139.5,325.5 C 144.532,326.341 149.532,327.341 154.5,328.5C 154.5,340.167 154.5,351.833 154.5,363.5C 149.484,362.942 144.484,362.275 139.5,361.5C 139.5,349.5 139.5,337.5 139.5,325.5 Z"/></g>
<g><path style="opacity:0.909" fill="#b09135" d="M 208.5,363.5 C 208.5,351.833 208.5,340.167 208.5,328.5C 211.713,327.513 215.046,326.513 218.5,325.5C 219.833,337.5 219.833,349.5 218.5,361.5C 215.243,362.551 211.91,363.218 208.5,363.5 Z"/></g>
<g><path style="opacity:0.978" fill="#c27d2f" d="M 154.5,328.5 C 155.833,328.833 157.167,329.167 158.5,329.5C 158.5,341.167 158.5,352.833 158.5,364.5C 157.167,364.167 155.833,363.833 154.5,363.5C 154.5,351.833 154.5,340.167 154.5,328.5 Z"/></g>
<g><path style="opacity:0.979" fill="#b38d33" d="M 208.5,328.5 C 208.5,340.167 208.5,351.833 208.5,363.5C 204.215,364.295 199.881,364.628 195.5,364.5C 195.5,353.167 195.5,341.833 195.5,330.5C 199.639,329.437 203.972,328.77 208.5,328.5 Z"/></g>
<g><path style="opacity:0.975" fill="#bf8030" d="M 158.5,329.5 C 163.141,330.127 167.807,330.46 172.5,330.5C 172.5,342.167 172.5,353.833 172.5,365.5C 170.5,365.5 168.5,365.5 166.5,365.5C 164.052,364.527 161.385,364.194 158.5,364.5C 158.5,352.833 158.5,341.167 158.5,329.5 Z"/></g>
<g><path style="opacity:0.964" fill="#bc8430" d="M 172.5,330.5 C 174.5,330.5 176.5,330.5 178.5,330.5C 178.5,342.167 178.5,353.833 178.5,365.5C 176.5,365.5 174.5,365.5 172.5,365.5C 172.5,353.833 172.5,342.167 172.5,330.5 Z"/></g>
<g><path style="opacity:0.968" fill="#b98732" d="M 178.5,330.5 C 182.167,330.5 185.833,330.5 189.5,330.5C 189.5,342.167 189.5,353.833 189.5,365.5C 185.833,365.5 182.167,365.5 178.5,365.5C 178.5,353.833 178.5,342.167 178.5,330.5 Z"/></g>
<g><path style="opacity:0.974" fill="#b78a32" d="M 189.5,330.5 C 191.5,330.5 193.5,330.5 195.5,330.5C 195.5,341.833 195.5,353.167 195.5,364.5C 195.5,364.833 195.5,365.167 195.5,365.5C 193.5,365.5 191.5,365.5 189.5,365.5C 189.5,353.833 189.5,342.167 189.5,330.5 Z"/></g>
</svg>
