<?xml version="1.0" encoding="UTF-8"?>
<!DOCTYPE svg PUBLIC "-//W3C//DTD SVG 1.1//EN" "http://www.w3.org/Graphics/SVG/1.1/DTD/svg11.dtd">
<svg xmlns="http://www.w3.org/2000/svg" version="1.1" width="419px" height="419px" style="shape-rendering:geometricPrecision; text-rendering:geometricPrecision; image-rendering:optimizeQuality; fill-rule:evenodd; clip-rule:evenodd" xmlns:xlink="http://www.w3.org/1999/xlink">
<g><path style="opacity:0.979" fill="#6ebe43" d="M 190.5,-0.5 C 202.833,-0.5 215.167,-0.5 227.5,-0.5C 299.566,8.27229 354.399,43.6056 392,105.5C 406.577,132.17 415.41,160.503 418.5,190.5C 418.5,202.833 418.5,215.167 418.5,227.5C 407.368,312.773 362.201,372.107 283,405.5C 282.5,346.834 282.333,288.168 282.5,229.5C 234.833,229.5 187.167,229.5 139.5,229.5C 150.817,262.436 173.983,280.103 209,282.5C 230.137,281.524 247.97,273.524 262.5,258.5C 263.666,275.157 263.833,291.823 263,308.5C 216.745,330.905 173.578,326.072 133.5,294C 111.552,273.603 99.0519,248.437 96,218.5C 95.6667,173.5 95.3333,128.5 95,83.5C 42.4126,133.847 27.0793,193.847 49,263.5C 67.4725,311.97 100.306,346.803 147.5,368C 181.583,380.88 216.249,382.713 251.5,373.5C 251.5,387.167 251.5,400.833 251.5,414.5C 243.037,415.85 234.704,417.183 226.5,418.5C 214.5,418.5 202.5,418.5 190.5,418.5C 105.265,409.761 46.4318,365.761 14,286.5C 5.27077,262.102 0.437433,237.102 -0.5,211.5C -0.5,208.833 -0.5,206.167 -0.5,203.5C 4.38308,111.377 49.3831,47.7105 134.5,12.5C 135.333,49.1621 135.833,85.8288 136,122.5C 170.039,94.9188 207.872,88.4188 249.5,103C 282.577,116.41 305.077,139.91 317,173.5C 318.743,178.717 319.91,184.05 320.5,189.5C 339.5,189.5 358.5,189.5 377.5,189.5C 367.157,123.669 331.49,77.5024 270.5,51C 236.159,38.2697 201.159,36.1031 165.5,44.5C 165.5,30.8333 165.5,17.1667 165.5,3.5C 173.964,2.15023 182.297,0.8169 190.5,-0.5 Z M 202.5,135.5 C 240.42,135.609 266.086,153.276 279.5,188.5C 232.5,189.833 185.5,189.833 138.5,188.5C 149.614,158.378 170.947,140.712 202.5,135.5 Z M 322.5,229.5 C 340.845,229.167 359.179,229.5 377.5,230.5C 371.159,271.52 352.993,306.187 323,334.5C 322.5,299.502 322.333,264.502 322.5,229.5 Z"/></g>
</svg>
